<svg id="Layer_1" data-name="Layer 1" xmlns="http://www.w3.org/2000/svg" width="59.77" height="60.14" viewBox="0 0 59.77 60.14">
  <defs>
    <style>
      .cls-1 {
        fill: #efb44b;
      }

      .cls-2 {
        fill: #fce754;
      }

      .cls-3 {
        fill: #66201e;
      }
    </style>
  </defs>
  <g>
    <path class="cls-1" d="M40.79,11.51A45.19,45.19,0,0,1,46,16c7.17,7.42,7.56,21.21-1.71,30.34-9,8.89-20.32,9.48-28.28,3.27-2.13-1.66-5.44-4.79-7-8.34Z"/>
    <g>
      <path class="cls-2" d="M41.37,12c7.36,6.79,7.34,19.73-1.81,28.74-8.89,8.79-20,9.35-27.88,3.22-6.72-5.24-7.48-19,1.18-28S34.59,5.78,41.37,12Z"/>
      <path class="cls-3" d="M23.3,49.09a19.81,19.81,0,0,1-12.24-4.28c-3.15-2.46-5.16-6.7-5.52-11.63a23.64,23.64,0,0,1,6.59-18c8.69-9.11,22.43-10.95,30-4a18,18,0,0,1,5.63,13.08,23.94,23.94,0,0,1-7.41,17.18C35.2,46.52,29.16,49.09,23.3,49.09Zm7.17-40a24,24,0,0,0-16.9,7.53,21.55,21.55,0,0,0-6,16.42c.31,4.34,2,8,4.76,10.14,7.82,6.1,18.49,4.83,26.57-3.15a21.82,21.82,0,0,0,6.79-15.67,15.92,15.92,0,0,0-5-11.63h0A14.91,14.91,0,0,0,30.47,9.13Z"/>
    </g>
    <path class="cls-1" d="M22.92,41.19c-7.9.33-10.2-6.2-10.42-9A16.38,16.38,0,0,1,17,20a18.44,18.44,0,0,1,12.92-5.87,9.84,9.84,0,0,1,6.68,2.24A10.55,10.55,0,0,1,39.84,24a16.43,16.43,0,0,1-5.19,11.71C31,39.31,27,41.19,22.92,41.19Z"/>
    <path class="cls-2" d="M24.1,41.91c-7.38.32-9.52-5.79-9.73-8.37A15.27,15.27,0,0,1,18.59,22.1a17.21,17.21,0,0,1,12-5.47,9.08,9.08,0,0,1,6.24,2.08,9.8,9.8,0,0,1,3,7.19A15.38,15.38,0,0,1,35,36.84C31.67,40.15,27.87,41.91,24.1,41.91Z"/>
    <path class="cls-3" d="M22.33,42.23c-8.29,0-10.65-7.13-10.88-9.94a17.42,17.42,0,0,1,4.86-13,19.42,19.42,0,0,1,13.63-6.16,10.71,10.71,0,0,1,7.37,2.52A11.56,11.56,0,0,1,40.87,24a17.45,17.45,0,0,1-5.5,12.46c-3.79,3.76-8.08,5.74-12.4,5.75Zm7.58-27.11a17.27,17.27,0,0,0-12.17,5.56A15.29,15.29,0,0,0,13.5,32.14a8.7,8.7,0,0,0,9.36,8h0c3.78,0,7.58-1.79,11-5.16a15.36,15.36,0,0,0,4.88-10.94,9.53,9.53,0,0,0-2.89-7A8.63,8.63,0,0,0,29.91,15.12Z"/>
    <path class="cls-3" d="M27.79,54.79a20,20,0,0,1-12.43-4.33c-1.6-1.25-5.51-4.61-7.26-8.75A1,1,0,1,1,10,40.83l0,.08c1.6,3.8,5.48,7,6.63,7.93,7.93,6.15,18.76,4.89,26.94-3.2,7.31-7.22,9.74-20.56,1.7-28.89a41.87,41.87,0,0,0-4.81-4.22l-.29-.23a1,1,0,0,1,1.18-1.68l.1.09.29.23a43.22,43.22,0,0,1,5,4.38A21.09,21.09,0,0,1,52.3,30.58,24.18,24.18,0,0,1,45,47.1C39.84,52.19,33.72,54.79,27.79,54.79Z"/>
  </g>
</svg>
