<svg id="Layer_1" data-name="Layer 1" xmlns="http://www.w3.org/2000/svg" viewBox="0 0 68.91 69.85">
<!-- 

-->
  <defs>
    <style>
      .cls-1 {
        fill: #efb44b;
      }

      .cls-2 {
        fill: #fce754;
      }

      .cls-3 {
        fill: #66201e;
      }
    </style>
  </defs>
  <title>1</title>
  <g>
    <path class="cls-1" d="M317,273.37c4.87,3.93,5.47,4.4,7.63,6.62,10.54,10.85,11.11,31-2.52,44.35-13.26,13-29.88,13.86-41.59,4.78-3.14-2.43-8-7-10.22-12.19Z" transform="translate(-265.04 -266.79)"/>
    <g>
      <path class="cls-2" d="M317.86,274.09c10.83,9.93,10.79,28.84-2.66,42-13.08,12.86-29.48,13.68-41,4.72-9.89-7.67-11-27.82,1.73-41S307.89,265,317.86,274.09Z" transform="translate(-265.04 -266.79)"/>
      <path class="cls-3" d="M291.28,328.3a29.16,29.16,0,0,1-18-6.26c-4.63-3.59-7.59-9.78-8.11-17a34.46,34.46,0,0,1,9.68-26.28c12.79-13.31,33-16,44.07-5.79a26.17,26.17,0,0,1,8.28,19.11c0.16,9-3.82,18.15-10.9,25.11C308.79,324.54,299.9,328.3,291.28,328.3Zm10.55-58.42a35.4,35.4,0,0,0-24.86,11,31.46,31.46,0,0,0-8.85,24c0.46,6.35,3,11.76,7,14.83,11.5,8.91,27.2,7.06,39.07-4.6,6.5-6.38,10.15-14.74,10-22.91a23.21,23.21,0,0,0-7.31-17h0C312.93,271.61,307.57,269.89,301.83,269.89Z" transform="translate(-265.04 -266.79)"/>
    </g>
    <path class="cls-1" d="M290.73,316.75c-11.62.49-15-9.06-15.33-13.11a23.83,23.83,0,0,1,6.65-17.91c5.16-5.37,12.26-8.58,19-8.58,4,0,7.52,1.16,9.82,3.27a15.35,15.35,0,0,1,4.74,11.24c0.1,6-2.68,12.25-7.63,17.12C302.65,314,296.7,316.75,290.73,316.75Z" transform="translate(-265.04 -266.79)"/>
    <path class="cls-2" d="M292.46,317.81c-10.85.46-14-8.46-14.31-12.24a22.25,22.25,0,0,1,6.21-16.72c4.82-5,11.44-8,17.71-8a13.47,13.47,0,0,1,9.17,3.05,14.33,14.33,0,0,1,4.43,10.5c0.1,5.61-2.5,11.44-7.12,16C303.59,315.24,298,317.81,292.46,317.81Z" transform="translate(-265.04 -266.79)"/>
    <path class="cls-3" d="M289.86,318.27c-12.19,0-15.66-10.41-16-14.52A25.35,25.35,0,0,1,281,284.69c5.44-5.66,12.94-9,20.05-9,4.41,0,8.26,1.3,10.84,3.67a16.84,16.84,0,0,1,5.23,12.32c0.11,6.42-2.83,13.06-8.08,18.21-5.58,5.49-11.89,8.39-18.24,8.4ZM301,278.65c-6.31,0-13,3-17.89,8.12a22.31,22.31,0,0,0-6.24,16.76c0.25,3.41,3.23,12.15,13.77,11.72h0.06c5.56,0,11.15-2.61,16.17-7.54,4.66-4.58,7.28-10.42,7.18-16a13.87,13.87,0,0,0-4.25-10.16C307.81,279.67,304.68,278.65,301,278.65Z" transform="translate(-265.04 -266.79)"/>
    <path class="cls-3" d="M297.88,336.64a29.54,29.54,0,0,1-18.27-6.34c-2.36-1.83-8.11-6.73-10.68-12.79a1.5,1.5,0,1,1,2.76-1.17c2.36,5.56,8.07,10.27,9.76,11.59,11.66,9,27.58,7.16,39.62-4.67,10.75-10.56,14.32-30.05,2.49-42.23a60.42,60.42,0,0,0-7.07-6.16l-0.42-.34a1.5,1.5,0,1,1,1.88-2.33l0.42,0.34a63.24,63.24,0,0,1,7.34,6.4,30.71,30.71,0,0,1,8.22,22.31,35.31,35.31,0,0,1-10.77,24.15C315.61,332.83,306.61,336.64,297.88,336.64Z" transform="translate(-265.04 -266.79)"/>
  </g>
</svg>
