<svg xmlns="http://www.w3.org/2000/svg" viewBox="0 0 1908.77 567.83">
  <defs>
    <style>
      .cls-1 {
        fill: #efb44b;
      }

      .cls-2 {
        fill: #fce754;
      }

      .cls-3 {
        fill: #66201e;
      }

      .cls-4 {
        opacity: 0.86;
      }

      .cls-5 {
        fill: #874a13;
      }

      .cls-6 {
        fill: #331907;
      }

      .cls-7 {
        fill: #6b3305;
      }

      .cls-8 {
        fill: #fff;
      }

      .cls-9 {
        fill: #00c5e5;
      }

      .cls-10 {
        fill: #0089ce;
      }

      .cls-11 {
        fill: #f7aa4f;
      }

      .cls-12 {
        fill: #ffce99;
      }

      .cls-13 {
        fill: #e5935c;
      }

      .cls-14 {
        fill: #3a1700;
      }

      .cls-15 {
        fill: #dd7f40;
      }

      .cls-16 {
        fill: #ffb192;
      }

      .cls-17 {
        fill: #f25a8a;
      }

      .cls-18 {
        fill: #403c3d;
      }

      .cls-19 {
        fill: #a36833;
      }

      .cls-20 {
        fill: #754423;
      }

      .cls-21 {
        fill: #131314;
      }

      .cls-22 {
        fill: #ffc78a;
      }

      .cls-23 {
        fill: #d88248;
      }

      .cls-24 {
        fill: #ffaa80;
      }

      .cls-25 {
        fill: #c63b21;
      }

      .cls-26 {
        fill: #c6c6c6;
      }

      .cls-27 {
        fill: #603822;
      }

      .cls-28 {
        fill: #ffb08d;
      }

      .cls-29 {
        fill: #d37d42;
      }

      .cls-30 {
        fill: #54280a;
      }

      .cls-31 {
        fill: #12dbdb;
      }

      .cls-32 {
        fill: #f4ece6;
      }

      .cls-33 {
        fill: #ef9c56;
      }

      .cls-34, .cls-35 {
        fill: #cc7032;
      }

      .cls-35 {
        opacity: 0.5;
      }

      .cls-35, .cls-36 {
        isolation: isolate;
      }

      .cls-36 {
        fill: #aa214b;
        opacity: 0.6;
      }

      .cls-37 {
        fill: #ffd110;
      }

      .cls-38 {
        fill: #a8571b;
      }

      .cls-39 {
        fill: #bc4719;
      }

      .cls-40 {
        fill: #ffd400;
      }

      .cls-41 {
        fill: #ff7f0b;
      }

      .cls-42 {
        fill: #cc9a75;
      }

      .cls-43 {
        fill: #a3795d;
      }

      .cls-44 {
        fill: #3c313f;
      }

      .cls-45 {
        fill: #aa6739;
      }

      .cls-46 {
        fill: #c46c30;
      }
    </style>
  </defs>
  <g id="Layer_2" data-name="Layer 2">
    <g id="Layer_3_Message" data-name="Layer 3 Message">
      <g id="Top">
        <g>
          <g>
            <path class="cls-1" d="M494.46,234.84c4.81,3.88,5.41,4.34,7.54,6.54,10.41,10.71,11,30.61-2.49,43.8C486.41,298,470,298.87,458.44,289.9c-3.11-2.4-7.91-6.91-10.1-12Z"/>
            <g>
              <path class="cls-2" d="M495.31,235.55C506,245.36,506,264,492.69,277c-12.92,12.7-29.12,13.51-40.5,4.66-9.76-7.57-10.86-27.47,1.71-40.49S485.47,226.57,495.31,235.55Z"/>
              <path class="cls-3" d="M469.06,289.09a28.83,28.83,0,0,1-17.78-6.18c-4.57-3.55-7.49-9.66-8-16.79a34,34,0,0,1,9.56-26c12.63-13.14,32.59-15.8,43.52-5.72a25.88,25.88,0,0,1,8.18,18.88c.16,8.89-3.77,17.92-10.77,24.8C486.36,285.38,477.58,289.09,469.06,289.09Zm10.42-57.7a35,35,0,0,0-24.55,10.87,31,31,0,0,0-8.74,23.7c.45,6.27,3,11.61,6.91,14.64,11.36,8.8,26.87,7,38.59-4.54,6.42-6.3,10-14.56,9.88-22.62a22.93,22.93,0,0,0-7.22-16.79h0a21.8,21.8,0,0,0-14.87-5.25Z"/>
            </g>
            <path class="cls-1" d="M468.52,277.68c-11.48.49-14.82-8.95-15.14-12.95A23.54,23.54,0,0,1,460,247.05c5.09-5.31,12.1-8.48,18.76-8.48,4,0,7.43,1.15,9.7,3.23a15.15,15.15,0,0,1,4.68,11.1c.1,5.93-2.65,12.1-7.53,16.91C480.29,275,474.42,277.68,468.52,277.68Z"/>
            <path class="cls-2" d="M470.23,278.73c-10.72.45-13.83-8.36-14.14-12.09a22,22,0,0,1,6.14-16.51c4.76-4.94,11.3-7.9,17.49-7.9a13.27,13.27,0,0,1,9.06,3,14.18,14.18,0,0,1,4.37,10.37c.1,5.54-2.47,11.3-7,15.8C481.22,276.19,475.7,278.73,470.23,278.73Z"/>
            <path class="cls-3" d="M467.66,279.18c-12,0-15.47-10.28-15.8-14.34A25,25,0,0,1,458.91,246c5.37-5.59,12.78-8.89,19.8-8.89,4.36,0,8.16,1.28,10.71,3.62a16.61,16.61,0,0,1,5.16,12.17c.11,6.34-2.79,12.9-8,18-5.51,5.42-11.74,8.28-18,8.29Zm11-39.13c-6.23,0-12.84,3-17.67,8a22.07,22.07,0,0,0-6.16,16.56c.25,3.36,3.19,12,13.6,11.57h.06c5.49,0,11-2.58,16-7.45,4.6-4.52,7.19-10.29,7.09-15.8a13.65,13.65,0,0,0-4.2-10C485.39,241.06,482.3,240.05,478.66,240.05Z"/>
            <path class="cls-3" d="M475.58,297.33a29.16,29.16,0,0,1-18-6.27c-2.33-1.8-8-6.64-10.55-12.63a1.48,1.48,0,1,1,2.68-1.26.49.49,0,0,1,0,.11c2.34,5.49,8,10.14,9.64,11.44,11.52,8.89,27.24,7.07,39.13-4.61,10.62-10.43,14.15-29.68,2.46-41.71a59.39,59.39,0,0,0-7-6.08l-.41-.34a1.48,1.48,0,1,1,1.71-2.42l.14.12.42.34a63.13,63.13,0,0,1,7.25,6.32,30.32,30.32,0,0,1,8.11,22,34.85,34.85,0,0,1-10.63,23.85C493.09,293.56,484.2,297.33,475.58,297.33Z"/>
          </g>
          <g>
            <path class="cls-1" d="M80.83,259.88c4.81,3.88,5.4,4.34,7.54,6.54,10.4,10.71,11,30.61-2.49,43.8-13.1,12.84-29.51,13.69-41.08,4.72-3.1-2.4-7.9-6.92-10.09-12Z"/>
            <g>
              <path class="cls-2" d="M81.68,260.59c10.69,9.81,10.66,28.48-2.63,41.48-12.92,12.7-29.11,13.51-40.49,4.66-9.77-7.57-10.86-27.48,1.71-40.49S71.83,251.61,81.68,260.59Z"/>
              <path class="cls-3" d="M55.43,314.13A28.83,28.83,0,0,1,37.65,308c-4.57-3.55-7.5-9.66-8-16.79a34,34,0,0,1,9.56-26c12.63-13.14,32.59-15.8,43.53-5.72a25.81,25.81,0,0,1,8.17,18.88c.16,8.88-3.77,17.92-10.76,24.8C72.72,310.41,63.94,314.13,55.43,314.13Zm10.42-57.7a35,35,0,0,0-24.56,10.86A31.15,31.15,0,0,0,32.55,291c.46,6.27,3,11.61,6.92,14.64,11.36,8.8,26.86,7,38.58-4.54,6.42-6.3,10-14.56,9.88-22.63a22.92,22.92,0,0,0-7.22-16.79h0a21.8,21.8,0,0,0-14.86-5.24Z"/>
            </g>
            <path class="cls-1" d="M54.88,302.72c-11.47.48-14.81-9-15.14-13a23.57,23.57,0,0,1,6.57-17.69c5.1-5.3,12.11-8.47,18.77-8.47a14.34,14.34,0,0,1,9.7,3.23,15.17,15.17,0,0,1,4.68,11.1c.1,5.93-2.65,12.1-7.54,16.91C66.66,300,60.78,302.72,54.88,302.72Z"/>
            <path class="cls-2" d="M56.59,303.77c-10.71.45-13.82-8.36-14.13-12.09a22,22,0,0,1,6.13-16.51c4.76-4.94,11.3-7.91,17.49-7.91a13.31,13.31,0,0,1,9.06,3,14.17,14.17,0,0,1,4.38,10.37c.09,5.54-2.47,11.3-7,15.8C67.59,301.23,62.06,303.77,56.59,303.77Z"/>
            <path class="cls-3" d="M54,304.22c-12,0-15.47-10.28-15.81-14.34a25.06,25.06,0,0,1,7.05-18.82c5.38-5.59,12.78-8.89,19.81-8.89,4.35,0,8.15,1.28,10.7,3.62A16.66,16.66,0,0,1,81,278c.11,6.34-2.8,12.9-8,18-5.51,5.42-11.74,8.28-18,8.29Zm11-39.13a25.15,25.15,0,0,0-17.67,8,22,22,0,0,0-6.16,16.55c.24,3.37,3.19,12,13.6,11.58h.05c5.5,0,11-2.58,16-7.45,4.61-4.52,7.19-10.29,7.1-15.8a13.73,13.73,0,0,0-4.2-10C71.75,266.1,68.66,265.09,65,265.09Z"/>
            <path class="cls-3" d="M62,322.36A29.11,29.11,0,0,1,43.9,316.1c-2.33-1.8-8-6.64-10.55-12.63A1.49,1.49,0,0,1,36,302.21s0,.07,0,.11c2.33,5.49,8,10.14,9.64,11.44,11.52,8.89,27.24,7.07,39.13-4.61,10.62-10.43,14.14-29.68,2.46-41.71a60.21,60.21,0,0,0-7-6.08l-.42-.34a1.48,1.48,0,0,1,1.71-2.42l.15.12.41.34a62.29,62.29,0,0,1,7.25,6.32,30.33,30.33,0,0,1,8.12,22,34.86,34.86,0,0,1-10.64,23.85C79.46,318.6,70.57,322.36,62,322.36Z"/>
          </g>
          <g>
            <path class="cls-1" d="M312.82,98.81c4.81,3.89,5.4,4.35,7.54,6.54,10.41,10.72,11,30.62-2.49,43.8-13.1,12.84-29.51,13.69-41.08,4.72-3.1-2.4-7.9-6.91-10.09-12Z"/>
            <g>
              <path class="cls-2" d="M313.67,99.52C324.37,109.33,324.33,128,311,141c-12.92,12.7-29.11,13.51-40.49,4.66-9.77-7.58-10.86-27.48,1.71-40.5S303.82,90.55,313.67,99.52Z"/>
              <path class="cls-3" d="M287.42,153.06a28.77,28.77,0,0,1-17.78-6.18c-4.57-3.54-7.5-9.66-8-16.79a34,34,0,0,1,9.56-25.95c12.63-13.15,32.59-15.8,43.53-5.72a25.81,25.81,0,0,1,8.17,18.87c.16,8.89-3.77,17.93-10.76,24.8C304.71,149.35,295.93,153.06,287.42,153.06Zm10.42-57.69a35,35,0,0,0-24.55,10.86,31.1,31.1,0,0,0-8.75,23.7c.46,6.28,3,11.62,6.92,14.65,11.36,8.8,26.86,7,38.58-4.54,6.42-6.3,10-14.56,9.88-22.63a22.91,22.91,0,0,0-7.22-16.79h0a21.8,21.8,0,0,0-14.86-5.24Z"/>
            </g>
            <path class="cls-1" d="M286.87,141.66c-11.47.48-14.81-8.95-15.14-12.95A23.56,23.56,0,0,1,278.3,111c5.1-5.3,12.11-8.47,18.77-8.47,3.95,0,7.42,1.14,9.7,3.23a15.17,15.17,0,0,1,4.68,11.1c.1,5.92-2.65,12.1-7.54,16.91C298.65,138.94,292.77,141.66,286.87,141.66Z"/>
            <path class="cls-2" d="M288.58,142.7c-10.71.46-13.82-8.35-14.13-12.08a22,22,0,0,1,6.13-16.52c4.76-4.94,11.3-7.9,17.49-7.9a13.3,13.3,0,0,1,9.06,3,14.2,14.2,0,0,1,4.38,10.37c.1,5.54-2.47,11.3-7,15.81C299.58,140.17,294.05,142.7,288.58,142.7Z"/>
            <path class="cls-3" d="M286,143.16c-12,0-15.47-10.28-15.81-14.34A25.05,25.05,0,0,1,277.27,110a28.24,28.24,0,0,1,19.8-8.88c4.35,0,8.16,1.28,10.7,3.62a16.64,16.64,0,0,1,5.17,12.17c.11,6.34-2.8,12.9-8,18-5.51,5.42-11.74,8.29-18,8.3ZM297,104a25.15,25.15,0,0,0-17.67,8,22,22,0,0,0-6.16,16.55c.24,3.37,3.19,12,13.6,11.58h.06c5.49,0,11-2.58,16-7.45,4.6-4.52,7.19-10.29,7.09-15.8a13.75,13.75,0,0,0-4.2-10C303.74,105,300.65,104,297,104Z"/>
            <path class="cls-3" d="M293.94,161.3A29.17,29.17,0,0,1,275.89,155c-2.33-1.81-8-6.65-10.55-12.63a1.49,1.49,0,0,1,2.69-1.26l0,.1c2.33,5.49,8,10.15,9.64,11.45,11.52,8.89,27.24,7.07,39.13-4.61,10.62-10.43,14.14-29.68,2.46-41.71a59.27,59.27,0,0,0-7-6.08l-.42-.34a1.48,1.48,0,0,1,1.71-2.42l.15.12.41.33a62.29,62.29,0,0,1,7.25,6.32,30.33,30.33,0,0,1,8.12,22A34.86,34.86,0,0,1,318.9,150.2C311.45,157.54,302.56,161.3,293.94,161.3Z"/>
          </g>
          <g>
            <path class="cls-1" d="M1270.65,158.3a58.34,58.34,0,0,1,6.76,5.87c9.34,9.62,9.85,27.48-2.23,39.31-11.76,11.53-26.49,12.29-36.87,4.24-2.78-2.15-7.09-6.21-9.06-10.81Z"/>
            <g>
              <path class="cls-2" d="M1271.41,158.94c9.6,8.8,9.56,25.56-2.36,37.23-11.59,11.4-26.13,12.13-36.34,4.18-8.77-6.8-9.75-24.66,1.53-36.34S1262.57,150.88,1271.41,158.94Z"/>
              <path class="cls-3" d="M1247.85,207a25.83,25.83,0,0,1-16-5.55c-4.1-3.18-6.73-8.67-7.19-15.07a30.55,30.55,0,0,1,8.58-23.29c11.34-11.8,29.26-14.19,39.07-5.14a23.25,23.25,0,0,1,7.34,16.95c.14,8-3.39,16.08-9.66,22.25C1263.37,203.66,1255.49,207,1247.85,207Zm9.35-51.78a31.34,31.34,0,0,0-22,9.75,27.86,27.86,0,0,0-7.84,21.27c.41,5.63,2.66,10.43,6.2,13.15,10.2,7.9,24.11,6.26,34.64-4.08,5.76-5.66,9-13.07,8.86-20.31a20.58,20.58,0,0,0-6.48-15.07h0a19.56,19.56,0,0,0-13.34-4.71Z"/>
            </g>
            <path class="cls-1" d="M1247.36,196.75c-10.3.44-13.3-8-13.59-11.62a21.1,21.1,0,0,1,5.9-15.87,24.05,24.05,0,0,1,16.84-7.61,12.84,12.84,0,0,1,8.7,2.9,13.62,13.62,0,0,1,4.21,10c.08,5.32-2.38,10.86-6.77,15.18C1257.93,194.32,1252.65,196.75,1247.36,196.75Z"/>
            <path class="cls-2" d="M1248.89,197.69c-9.61.41-12.41-7.5-12.68-10.85a19.74,19.74,0,0,1,5.5-14.82,22.51,22.51,0,0,1,15.7-7.09,12,12,0,0,1,8.13,2.7,12.73,12.73,0,0,1,3.93,9.31c.09,5-2.22,10.14-6.31,14.19C1258.76,195.42,1253.8,197.69,1248.89,197.69Z"/>
            <path class="cls-3" d="M1246.59,198.1c-10.81,0-13.88-9.23-14.18-12.87a22.44,22.44,0,0,1,6.33-16.9,25.38,25.38,0,0,1,17.77-8,14.09,14.09,0,0,1,9.61,3.25,14.91,14.91,0,0,1,4.63,10.92c.1,5.69-2.5,11.58-7.16,16.14-4.94,4.87-10.54,7.44-16.17,7.45Zm9.87-35.12a22.56,22.56,0,0,0-15.85,7.2,19.79,19.79,0,0,0-5.54,14.86c.23,3,2.87,10.77,12.21,10.38h0c4.93,0,9.89-2.31,14.34-6.68,4.13-4.06,6.45-9.24,6.36-14.18a12.3,12.3,0,0,0-3.76-9C1262.5,163.88,1259.73,163,1256.46,163Z"/>
            <path class="cls-3" d="M1253.7,214.39a26.29,26.29,0,0,1-16.2-5.62c-2.09-1.63-7.19-6-9.46-11.34a1.33,1.33,0,1,1,2.4-1.13.36.36,0,0,1,0,.09c2.09,4.93,7.16,9.1,8.65,10.27,10.34,8,24.45,6.35,35.13-4.14,9.52-9.36,12.69-26.63,2.2-37.43a53.23,53.23,0,0,0-6.26-5.46l-.38-.3a1.33,1.33,0,1,1,1.54-2.17l.13.1.37.3a55.76,55.76,0,0,1,6.51,5.68,27.25,27.25,0,0,1,7.29,19.77,31.32,31.32,0,0,1-9.55,21.41C1269.42,211,1261.44,214.39,1253.7,214.39Z"/>
          </g>
          <g>
            <path class="cls-1" d="M1497.71,241.86a58.72,58.72,0,0,1,6.77,5.87c9.34,9.62,9.84,27.48-2.24,39.31-11.75,11.53-26.48,12.29-36.87,4.24-2.78-2.15-7.09-6.21-9-10.81Z"/>
            <g>
              <path class="cls-2" d="M1498.47,242.5c9.61,8.8,9.57,25.56-2.35,37.23-11.6,11.4-26.14,12.13-36.35,4.18-8.76-6.8-9.75-24.66,1.54-36.34S1489.64,234.44,1498.47,242.5Z"/>
              <path class="cls-3" d="M1474.91,290.55a25.78,25.78,0,0,1-16-5.55c-4.11-3.18-6.73-8.67-7.19-15.07a30.52,30.52,0,0,1,8.58-23.29c11.34-11.8,29.25-14.19,39.06-5.14a23.17,23.17,0,0,1,7.34,16.95c.15,8-3.38,16.08-9.66,22.25C1490.43,287.22,1482.55,290.55,1474.91,290.55Zm9.36-51.78a31.3,31.3,0,0,0-22,9.75,27.91,27.91,0,0,0-7.85,21.27c.41,5.63,2.66,10.43,6.21,13.15,10.19,7.9,24.11,6.26,34.63-4.08,5.76-5.66,9-13.07,8.87-20.31a20.62,20.62,0,0,0-6.48-15.07h0a19.6,19.6,0,0,0-13.34-4.71Z"/>
            </g>
            <path class="cls-1" d="M1474.43,280.31c-10.31.44-13.3-8-13.59-11.62a21.09,21.09,0,0,1,5.89-15.87,24.09,24.09,0,0,1,16.84-7.61,12.85,12.85,0,0,1,8.71,2.9,13.57,13.57,0,0,1,4.2,10c.09,5.32-2.38,10.86-6.76,15.18C1485,277.88,1479.72,280.31,1474.43,280.31Z"/>
            <path class="cls-2" d="M1476,281.25c-9.62.41-12.41-7.5-12.69-10.85a19.75,19.75,0,0,1,5.51-14.82,22.49,22.49,0,0,1,15.7-7.09,12,12,0,0,1,8.13,2.7,12.69,12.69,0,0,1,3.92,9.31c.09,5-2.21,10.14-6.31,14.18C1485.83,279,1480.87,281.25,1476,281.25Z"/>
            <path class="cls-3" d="M1473.65,281.66c-10.8,0-13.88-9.23-14.18-12.87a22.48,22.48,0,0,1,6.33-16.9,25.38,25.38,0,0,1,17.77-8,14.08,14.08,0,0,1,9.61,3.25,14.92,14.92,0,0,1,4.64,10.92c.1,5.69-2.51,11.58-7.16,16.14-5,4.87-10.54,7.44-16.17,7.45Zm9.88-35.12a22.6,22.6,0,0,0-15.86,7.2,19.79,19.79,0,0,0-5.53,14.86c.22,3,2.86,10.77,12.21,10.38h.05c4.93,0,9.88-2.31,14.33-6.68,4.13-4.06,6.46-9.24,6.37-14.18a12.27,12.27,0,0,0-3.77-9C1489.57,247.44,1486.79,246.54,1483.53,246.54Z"/>
            <path class="cls-3" d="M1480.76,298a26.26,26.26,0,0,1-16.19-5.62c-2.09-1.63-7.19-6-9.47-11.34a1.33,1.33,0,1,1,2.41-1.13l0,.09c2.09,4.93,7.15,9.1,8.65,10.27,10.34,8,24.45,6.35,35.12-4.14,9.53-9.36,12.69-26.63,2.21-37.43a53.33,53.33,0,0,0-6.27-5.46l-.37-.3a1.34,1.34,0,0,1-.32-1.86,1.32,1.32,0,0,1,1.85-.31l.13.1.38.3a55.67,55.67,0,0,1,6.5,5.68,27.17,27.17,0,0,1,7.29,19.77,31.28,31.28,0,0,1-9.55,21.41C1496.48,294.57,1488.5,298,1480.76,298Z"/>
          </g>
          <g>
            <path class="cls-1" d="M1772.71,5.86a58.72,58.72,0,0,1,6.77,5.87c9.34,9.62,9.84,27.48-2.24,39.31-11.75,11.53-26.48,12.29-36.87,4.24-2.78-2.15-7.09-6.21-9-10.81Z"/>
            <g>
              <path class="cls-2" d="M1773.47,6.5c9.61,8.8,9.57,25.56-2.35,37.23-11.6,11.4-26.14,12.13-36.35,4.18-8.76-6.8-9.75-24.66,1.54-36.34S1764.64-1.56,1773.47,6.5Z"/>
              <path class="cls-3" d="M1749.91,54.55A25.78,25.78,0,0,1,1734,49c-4.11-3.18-6.73-8.67-7.19-15.07a30.52,30.52,0,0,1,8.58-23.29c11.34-11.8,29.25-14.19,39.06-5.14a23.17,23.17,0,0,1,7.34,17c.15,8-3.38,16.08-9.66,22.25C1765.43,51.22,1757.55,54.55,1749.91,54.55Zm9.36-51.78a31.3,31.3,0,0,0-22,9.75,27.91,27.91,0,0,0-7.85,21.27c.41,5.63,2.66,10.43,6.21,13.15,10.19,7.9,24.11,6.26,34.63-4.08,5.76-5.66,9-13.07,8.87-20.31a20.62,20.62,0,0,0-6.48-15.07h0a19.6,19.6,0,0,0-13.34-4.71Z"/>
            </g>
            <path class="cls-1" d="M1749.43,44.31c-10.31.44-13.3-8-13.59-11.62a21.09,21.09,0,0,1,5.89-15.87,24.09,24.09,0,0,1,16.84-7.61,12.85,12.85,0,0,1,8.71,2.9,13.57,13.57,0,0,1,4.2,10c.09,5.32-2.38,10.86-6.76,15.18C1760,41.88,1754.72,44.31,1749.43,44.31Z"/>
            <path class="cls-2" d="M1751,45.25c-9.62.41-12.41-7.5-12.69-10.85a19.75,19.75,0,0,1,5.51-14.82,22.49,22.49,0,0,1,15.7-7.09,12,12,0,0,1,8.13,2.7,12.69,12.69,0,0,1,3.92,9.31c.09,5-2.21,10.14-6.31,14.18C1760.83,43,1755.87,45.25,1751,45.25Z"/>
            <path class="cls-3" d="M1748.65,45.66c-10.8,0-13.88-9.23-14.18-12.87a22.48,22.48,0,0,1,6.33-16.9,25.38,25.38,0,0,1,17.77-8,14.08,14.08,0,0,1,9.61,3.25,14.92,14.92,0,0,1,4.64,10.92c.1,5.69-2.51,11.58-7.16,16.14-5,4.87-10.54,7.44-16.17,7.45Zm9.88-35.12a22.6,22.6,0,0,0-15.86,7.2,19.79,19.79,0,0,0-5.53,14.86c.22,3,2.86,10.77,12.21,10.38h.05c4.93,0,9.88-2.31,14.33-6.68,4.13-4.06,6.46-9.24,6.37-14.18a12.27,12.27,0,0,0-3.77-9C1764.57,11.44,1761.79,10.54,1758.53,10.54Z"/>
            <path class="cls-3" d="M1755.76,62a26.26,26.26,0,0,1-16.19-5.62c-2.09-1.63-7.19-6-9.47-11.34a1.33,1.33,0,1,1,2.41-1.13l0,.09c2.09,4.93,7.15,9.1,8.65,10.27,10.34,8,24.45,6.35,35.12-4.14,9.53-9.36,12.69-26.63,2.21-37.43a53.33,53.33,0,0,0-6.27-5.46l-.37-.3a1.34,1.34,0,0,1-.32-1.86,1.32,1.32,0,0,1,1.85-.31l.13.1.38.3a55.67,55.67,0,0,1,6.5,5.68,27.17,27.17,0,0,1,7.29,19.77A31.28,31.28,0,0,1,1778.17,52C1771.48,58.57,1763.5,62,1755.76,62Z"/>
          </g>
          <g id="_1" data-name="1" class="cls-4">
            <rect class="cls-5" x="1728.34" y="466.69" width="62.49" height="76.8"/>
            <path class="cls-5" d="M1860.57,210.74c-19.45-28-51.12-40.19-82.42-41.53-13-.56-25.52-.67-37.29,0-31.24,1.3-62.15,14.16-82.42,41.53-33.57,45.33-18.07,117.57-18.07,166,0,79.55,70.39,106.54,117.37,106.54s121.67-27.56,121.67-106.54C1879.41,328.53,1894.86,260.06,1860.57,210.74Z"/>
            <path class="cls-5" d="M1831,354.63c-4.11,23.43,9.78,43,31,47.15s41.85-8.49,46-31.93-9.77-45.85-31-50S1835.16,331.19,1831,354.63Z"/>
            <path class="cls-5" d="M1681.37,354.68c4.08,23.23-2.85,42.57-23.93,46.74S1616,393,1611.88,369.77s9.68-45.45,30.77-49.61S1677.31,331.43,1681.37,354.68Z"/>
            <path class="cls-6" d="M1711.15,344.29c0,9.26-6.31,16.77-14.12,16.77s-14.14-7.51-14.14-16.77,6.3-16.76,14.1-16.76S1711.15,335,1711.15,344.29Z"/>
            <path class="cls-6" d="M1833.8,344.29c0,9.26-6.32,16.77-14.13,16.77s-14.13-7.51-14.13-16.77,6.33-16.76,14.13-16.76S1833.8,335,1833.8,344.29Z"/>
            <path class="cls-7" d="M1747.25,397.7h-.35a4.52,4.52,0,0,1-4.36-4.69V393c.61-8,1.56-39.39,1.56-49a4.72,4.72,0,0,1,9.42,0c0,9.12-.91,40.74-1.58,49.63A4.62,4.62,0,0,1,1747.25,397.7Z"/>
            <path class="cls-6" d="M1712,466.34a40.59,40.59,0,0,0,20,20.82,62.2,62.2,0,0,0,27.86,6.21c11.31,0,20.64-3.42,29-7.4,9-4.29,15.37-12.32,19.28-21.5l5.3-13.55c-4.2,1.6-12.24-1.55-14.32,3.8-3.91,10.18-13,10.35-17.08,9.12-9.12-2.71-11.37-11.72-12-19.14-.38-4.1-5.91-2.6-10.09-2.76-4.18.13-9.55-1.3-10.17,2.76-1.16,7.81-2.41,19.53-15.16,19.53a15.62,15.62,0,0,1-13.46-9.66c-2.37-5.21-10.27-.34-15.19-2.25Z"/>
            <path class="cls-8" d="M1718.21,423.49c15.74,32.07,73.74,20.83,77.73-1.47Z"/>
            <path class="cls-7" d="M1755.66,447.29h0c-19.14,0-34.08-8-41-22.13a3.9,3.9,0,0,1,1.75-5.24,4,4,0,0,1,1.71-.41l77.73-1.46a3.88,3.88,0,0,1,3.9,4.61C1797.07,438.18,1775.2,447.29,1755.66,447.29Zm-30.4-20c8.93,10.92,23.8,12.22,30.4,12.22,15,0,29.09-5.79,34.38-13.42Z"/>
            <path class="cls-6" d="M1813.22,418c-9.8-15.19-37-8.15-50.32-8.84-1.3-.06-4.86-.06-6.12,0-13.28.69-41.66-6.12-51.24,9.19-8.8,14,.87,37.76,5.21,45.38,3.9,6.77,20.28,13.91,11-8.46a38.86,38.86,0,0,1-3.24-18.64c1.13-11.14,11-11.47,32.27-10.32h18.07c21.09-1.45,30.26-1.11,31.4,11.78a39.68,39.68,0,0,1-2.23,18.91c-8.34,22.71,8.92,10.78,11.56,3.45S1823.1,433.22,1813.22,418Z"/>
            <path class="cls-6" d="M1843.46,312.19a5.43,5.43,0,0,0,3.47-1.12,3.79,3.79,0,0,0,.86-5.3,3.74,3.74,0,0,0-.63-.69c-6.65-6.07-19.11-7.9-28.56-7.58-4.89.15-16.92,1.19-22.52,7.23a3.82,3.82,0,0,0,.14,5.41,3.76,3.76,0,0,0,.72.54C1799.11,312.14,1842.15,312.18,1843.46,312.19Z"/>
            <path class="cls-6" d="M1675.74,312.19a5.39,5.39,0,0,1-3.45-1.12,3.79,3.79,0,0,1-.89-5.28,3.63,3.63,0,0,1,.65-.71c6.65-6.07,19.12-7.9,28.56-7.58,4.9.15,16.92,1.19,22.52,7.23a3.82,3.82,0,0,1-.13,5.41,3.76,3.76,0,0,1-.72.54C1720.09,312.14,1677.07,312.18,1675.74,312.19Z"/>
            <path class="cls-9" d="M1881.92,559.12c-11.33-14.56-31.89-32.92-77.48-47.39l-13.35-9.11-31.24,16.65-31.24-16.65-13.8,9.69c-45.54,14.49-65.82,32.49-77,46.81Z"/>
            <path class="cls-10" d="M1727.42,553.57l-13.33-36.83a2.42,2.42,0,0,1,4.56-1.64l11,30.31,28.64-24a2.42,2.42,0,1,1,3.33,3.52,2.11,2.11,0,0,1-.23.19Z"/>
            <path class="cls-10" d="M1792.14,553.55l-33.85-28.4a2.42,2.42,0,1,1,2.87-3.9,2.11,2.11,0,0,1,.23.19l28.64,24,11.1-29.94a2.42,2.42,0,1,1,4.54,1.68Z"/>
          </g>
          <g id="_6" data-name="6" class="cls-4">
            <path class="cls-11" d="M1593.72,363.4c0,22.11-16.53,25.77-36.94,25.77s-36.94-5.48-36.94-25.77c0-14.23,16.54-25.77,36.94-25.77S1593.72,349.17,1593.72,363.4Z"/>
            <rect class="cls-12" x="1543.74" y="521.41" width="27.02" height="29.21"/>
            <path class="cls-12" d="M1510.57,464.86c1.15,9.23-4.17,17.48-11.87,18.43s-14.87-5.75-16-15,4.18-17.48,11.88-18.43S1509.43,455.63,1510.57,464.86Z"/>
            <path class="cls-12" d="M1602.49,464.86c-1.14,9.23,4.18,17.48,11.88,18.43s14.88-5.75,16-15-4.18-17.48-11.89-18.43S1603.64,455.63,1602.49,464.86Z"/>
            <path class="cls-12" d="M1608.4,390.47c-11.32-16.06-22.94-16.55-41.68-17.32h-20.37c-18.74.77-30.36,1.27-41.68,17.32s-7,20.23-6.14,39.6c.67,14.65-8.08,4.38-2,45.09s41.4,53.79,60,53.79,51.32-10.91,60-53.78-2.69-30.45-2-45.09C1615.43,410.7,1619.71,406.53,1608.4,390.47Z"/>
            <path class="cls-13" d="M1552.52,490h-.23a2.51,2.51,0,0,1-2.28-2.73c.31-3.48.8-17.08.81-21.43a2.58,2.58,0,0,1,2-2.57,2.52,2.52,0,0,1,3,2.47h0c0,4-.47,18-.82,22A2.5,2.5,0,0,1,1552.52,490Z"/>
            <path class="cls-13" d="M1555.61,508.74c-6.72,0-14.52-1.66-18.8-6.39a2.52,2.52,0,1,1,3.73-3.38c3,3.35,9.87,5.17,17.45,4.66,5.84-.4,10.77-2.19,12.29-4.38a2.51,2.51,0,0,1,4.15,2.83c-2.46,3.6-8.47,6.05-16.07,6.58C1557.45,508.7,1556.54,508.74,1555.61,508.74Z"/>
            <path class="cls-14" d="M1531.41,464.51c0,5.4-3.65,9.78-8.23,9.78s-8.24-4.39-8.24-9.78,3.65-9.77,8.24-9.77S1531.41,459.12,1531.41,464.51Z"/>
            <path class="cls-15" d="M1533.56,446.91a2.45,2.45,0,0,1-1.87-.84,10.31,10.31,0,0,0-7.71-3.27c-3.42,0-7.17,1.28-9.12,3.33a2.51,2.51,0,1,1-3.65-3.45c2.92-3.11,7.87-5,12.85-4.89a15.21,15.21,0,0,1,11.37,4.95,2.51,2.51,0,0,1-.2,3.54,2.47,2.47,0,0,1-1.68.63Z"/>
            <path class="cls-15" d="M1581.54,446.88a2.51,2.51,0,0,1-2-4.08c2.11-2.69,6.11-4.49,10.41-4.7a14.89,14.89,0,0,1,11.73,4.52,2.51,2.51,0,0,1-3.65,3.46h0a10.15,10.15,0,0,0-7.86-3c-3.22.16-5.74,1.56-6.7,2.79A2.51,2.51,0,0,1,1581.54,446.88Z"/>
            <path class="cls-14" d="M1598,464.51c0,5.4-3.7,9.78-8.24,9.78s-8.23-4.39-8.23-9.78,3.69-9.78,8.23-9.78S1598,459.12,1598,464.51Z"/>
            <path class="cls-16" d="M1529.4,485.85c0,4.44-5.2,8-11.63,8s-11.63-3.6-11.63-8,5.21-8,11.63-8S1529.4,481.41,1529.4,485.85Z"/>
            <path class="cls-16" d="M1606.81,485.85c0,4.44-5.2,8-11.63,8s-11.63-3.6-11.63-8,5.21-8,11.63-8S1606.81,481.41,1606.81,485.85Z"/>
            <path class="cls-11" d="M1596.59,375.36c-18.5-12.26-45.14-13.48-66.42-6.54-11.63,3.79-39.78,13.84-42.84,51.65-4,27.46,5.63,44.6,5.63,44.6s1.4-24.66,49.91-38.18c31.78-8.87,42.46-18.89,42.46-18.89s3.45,13.67,17,27.75c18.06,18.78,16.43,32.87,16.43,32.87s6.33-9.61,7.3-25.77h0C1629.58,424.81,1626.66,395.33,1596.59,375.36Z"/>
            <path class="cls-17" d="M1602.12,556.47c-3.61-5.12-8.61-8.27-18.26-12.69l-12.78-5.08s-2,6.48-13.66,6.48c-11.23,0-13.66-6.48-13.66-6.48l-15.08,5.35c-9.24,4.25-14.14,7.46-17.7,12.42Z"/>
          </g>
          <g id="_7" data-name="7" class="cls-4">
            <path class="cls-18" d="M500.33,534.91c-5.68-4.2-14.55-6.95-24-7.16h-.49v-.21l-4.63.11-4.64-.11v.21h-.49c-9.44.2-18.28,3-24,7.16s-6.18,8.43-5.74,13.51c.34,3.83,69.29,4.92,69.63,1.08C506.51,544.43,506,539.12,500.33,534.91Z"/>
            <rect class="cls-19" x="458.49" y="523.11" width="26.09" height="28.41"/>
            <path class="cls-19" d="M502.65,474.42c-1.66,9.42,3.93,17.26,12.47,18.95a15.37,15.37,0,0,0,18.47-12.83c1.66-9.42-3.92-18.42-12.48-20.11S504.31,465,502.65,474.42Z"/>
            <path class="cls-19" d="M440.34,474.42c1.65,9.42-3.93,17.26-12.47,18.95a15.37,15.37,0,0,1-18.47-12.83c-1.66-9.42,3.92-18.42,12.47-20.11S438.68,465,440.34,474.42Z"/>
            <path class="cls-19" d="M514.88,415.61c-8.53-11.59-21.83-19.19-35.95-19.75l-.73,0v-.57l-6.95.28-7-.28v.57l-.73,0c-14.12.57-27.42,8.16-35.95,19.75s-9.27,23.22-8.63,37.21c.51,10.57,2,27.62,2.52,38.2,8.56,32,29.87,37.51,49.71,37.51s41.85-5.47,49.71-37.51c.52-10.57,2-24.66,2.51-35.22C524.15,441.81,523.42,427.21,514.88,415.61Z"/>
            <path class="cls-6" d="M448.94,472.43c0,3.89-2.66,7.05-5.95,7.05s-5.95-3.16-5.95-7.05,2.67-7.06,5.95-7.06S448.94,468.52,448.94,472.43Z"/>
            <path class="cls-19" d="M450.48,477.34c0,1.93-3.36,3.48-7.51,3.48s-7.5-1.56-7.5-3.48S450.48,475.42,450.48,477.34Z"/>
            <path class="cls-6" d="M503,472.43c0,3.89-2.66,7.05-5.94,7.05s-6-3.16-6-7.05,2.67-7.06,6-7.06S503,468.52,503,472.43Z"/>
            <path class="cls-6" d="M434.37,459.64a2,2,0,0,1-2-2,2,2,0,0,1,.54-1.35c2.67-2.81,7.63-3.59,11.37-3.39,1.94.1,6.7.65,8.89,3.51a2,2,0,0,1-3.15,2.42h0c-.63-.83-2.76-1.8-6-2-3.54-.19-6.86.68-8.28,2.16A2,2,0,0,1,434.37,459.64Z"/>
            <path class="cls-20" d="M466.86,496.44h-.14a2,2,0,0,1-1.83-2.12c.25-3.56.65-17.59.65-21.88a2,2,0,0,1,2.84-1.81,1.94,1.94,0,0,1,1.13,1.8h0c0,4.05-.39,18.2-.67,22.16A2,2,0,0,1,466.86,496.44Z"/>
            <path class="cls-6" d="M505.82,459.64a2,2,0,0,1-1.44-.62c-1.44-1.52-4.84-2.39-8.47-2.15-3.11.19-5.16,1.16-5.75,1.93a2,2,0,0,1-3.19-2.36c2.1-2.83,6.78-3.41,8.7-3.53,3.82-.24,8.86.52,11.6,3.38a2,2,0,0,1-.06,2.79h0A2,2,0,0,1,505.82,459.64Z"/>
            <path class="cls-6" d="M421.7,457.92c7.11,1.31,9.71-11,7-14.78,10.65,2.95,19-4.79,20.32-9.58,1.19,8.33,14.53,6.11,14.87-.89.33,6.18,17.84,8.65,24.47.34-.51,8.82,12.51,10.05,17.52,4.3-2,6.66,6.37,12.18,10.38,8.31-3.31,7.27,3,15.81,5.9,14.26-3.35,3.1-4.11,10.66-.45,14.05,4.49,4.17,7.24-3.06,6.61-6.95,8.42-4.25,7.58-19.61,1.36-19.59,8.4-2.36,6.47-19.4-.93-18.45,3.53-2.24,3.47-11.44-3.64-10.57,5-5.79.89-18.5-8.65-15.65,2.27-8.64-15.73-14.54-22.43-6.9,3.22-7.64-10-9-14.82-3.93,3.09-2.51,3.87-8.49-.38-9.54-5.91-1.45-11.48,3-12.88,8.81-2.06-9-14.13-7.49-13.28,1.35-4.48-6.53-14.89.74-14.62,9.64-5.22-6.25-17.78,1-15.47,10.27-8.42-.49-18.83,12.06-9.12,26.21-2.9-.66-6.41,3-6.41,8.74a10.23,10.23,0,0,0,5.26,8.37c-2.84,1.28-4.12,6.83-.9,12.78,2.63,4.85,7.1,6.17,10.35,4.86C427.47,471.08,424.09,461.39,421.7,457.92Z"/>
            <path class="cls-8" d="M453.81,504.5c6.63,13.49,31,8.74,32.72-.62Z"/>
            <path class="cls-20" d="M469.61,514.53h0c-8.06,0-14.35-3.39-17.26-9.3a1.67,1.67,0,0,1,.77-2.22,1.84,1.84,0,0,1,.69-.17l32.72-.61a1.65,1.65,0,0,1,1.65,1.65,2.64,2.64,0,0,1,0,.29C487,510.65,477.8,514.53,469.61,514.53Zm-12.8-8.43c3.76,4.58,10,5.13,12.8,5.13,6.32,0,12.25-2.44,14.49-5.65Z"/>
            <path class="cls-19" d="M504.73,477.34c0,1.93-3.35,3.48-7.5,3.48s-7.51-1.56-7.51-3.48S504.73,475.42,504.73,477.34Z"/>
            <path class="cls-18" d="M427.59,556.15h87.77c-4.95-4.58-11.2-9.45-17.54-11.22a2.46,2.46,0,0,1-.38-.14h0c-2.9-1-12.47-4.75-12.47-4.75l-12.84,10.54-13.82-10.73s-9.27,3.56-12.8,4.71h0l-1.48.59h0C437.38,547.66,431.92,552,427.59,556.15Z"/>
            <path class="cls-21" d="M471.72,554.43a2,2,0,0,1-.54-.07l-31.42-8c-.81-.21-1.23-.82-.93-1.38a1.86,1.86,0,0,1,2-.63l30.88,7.88,31.69-7.88a1.83,1.83,0,0,1,2,.64c.3.58-.12,1.16-.93,1.37l-32.23,8A2,2,0,0,1,471.72,554.43Z"/>
          </g>
          <g id="_8" data-name="8" class="cls-4">
            <path class="cls-14" d="M1476.45,556.2l-1.14-86.34c0-32.87-18.24-54.74-53.28-54.74-32.36,0-53.27,20.85-53.27,54.74l-1.14,86.34Z"/>
            <path class="cls-22" d="M1459.09,437.69c-8-11.32-16.18-11.67-29.39-12.23h-14.37c-13.21.55-21.41.9-29.39,12.23s-7.73,27.94-7.73,27.94-2.3,3.08,2,31.79,29.21,37.93,42.33,37.93,37.33-7.49,42.32-37.93c4.11-25,2-31.79,2-31.79S1467.07,449,1459.09,437.69Z"/>
            <rect class="cls-22" x="1414.38" y="532.22" width="15.99" height="19.75"/>
            <path class="cls-23" d="M1419.69,507.76h-.15a1.63,1.63,0,0,1-1.48-1.77c.22-2.47.56-12.07.57-15.13a1.69,1.69,0,0,1,1.32-1.69,1.65,1.65,0,0,1,2,1.61c0,2.83-.34,12.7-.58,15.5A1.64,1.64,0,0,1,1419.69,507.76Z"/>
            <path class="cls-24" d="M1403.38,502.42c0,3.13-3.67,5.67-8.2,5.67s-8.2-2.54-8.2-5.67,3.67-5.66,8.2-5.66S1403.38,499.28,1403.38,502.42Z"/>
            <path class="cls-24" d="M1458,502.42c0,3.13-3.67,5.67-8.2,5.67s-8.2-2.54-8.2-5.67,3.67-5.66,8.2-5.66S1458,499.28,1458,502.42Z"/>
            <path class="cls-14" d="M1460.11,473.12a662.4,662.4,0,0,0-75.1,0c-5-.09-6.86-.62-7.31-7.4l.27-24c18-31.38,74.91-29.63,88.66,1.41l.79,22.39C1467.26,472.76,1465.94,473,1460.11,473.12Z"/>
            <path class="cls-14" d="M1391.52,480.11a1.78,1.78,0,0,1-1.77-1.79,1.76,1.76,0,0,1,1.07-1.62c5.78-2.46,12.3-2.46,16.2,0a1.77,1.77,0,0,1-1.89,3c-2.38-1.5-7.44-2.06-12.92.27A1.85,1.85,0,0,1,1391.52,480.11Z"/>
            <path class="cls-14" d="M1437.23,480.12a1.77,1.77,0,0,1-1-3.22c3.08-2.17,12.7-2.82,16.62-.53a1.78,1.78,0,0,1-1.8,3.06c-2.68-1.58-10.67-1.11-12.77.37A1.79,1.79,0,0,1,1437.23,480.12Z"/>
            <path class="cls-14" d="M1406.88,492.24a1.63,1.63,0,0,1-1-.31c-3.69-2.67-8.52-3.08-13.61-1.17a1.77,1.77,0,0,1-1.25-3.32c6.23-2.35,12.23-1.78,16.93,1.59a1.78,1.78,0,0,1,0,2.84,1.82,1.82,0,0,1-1.15.37Z"/>
            <path class="cls-14" d="M1436.42,492.43a1.78,1.78,0,0,1-1-3.22c4.68-3.35,10.69-3.92,16.93-1.59a1.78,1.78,0,0,1-1.25,3.33c-5.08-1.91-9.91-1.5-13.59,1.15A1.75,1.75,0,0,1,1436.42,492.43Z"/>
            <path class="cls-14" d="M1467,485.19h-89.86a1.89,1.89,0,0,1-.19-3.76h90a1.89,1.89,0,0,1,0,3.76Z"/>
            <path class="cls-14" d="M1404.33,501.84c-3.94,0-8.59-.14-11.82-.23-1.53-.05-2.67-.09-3.16-.09a6.91,6.91,0,0,1-5.06-1.67c-2-2.05-2-5.47-1.89-11.13,0-1.18,0-2.37,0-3.72a1.82,1.82,0,0,1,1.44-1.82,1.76,1.76,0,0,1,2.09,1.73c0,1.41,0,2.69,0,3.88-.06,4.37-.1,7.54.88,8.52.14.16.61.62,2.52.62.47,0,1.67,0,3.24.08,4.54.14,13,.39,16.73.1,2.5-.2,2.77-.55,2.73-10.49v-3.17a1.88,1.88,0,0,1,3.76,0v3.12c0,9.37.06,13.65-6,14.12C1408.36,501.8,1406.44,501.84,1404.33,501.84Z"/>
            <path class="cls-14" d="M1440.43,502.32a47.26,47.26,0,0,1-6.07-.27c-6.95-1.14-6.88-5.43-6.81-13.23v-4.39a1.93,1.93,0,0,1,1.87-1.77,1.78,1.78,0,0,1,1.78,1.77c0,1.64,0,3.12,0,4.45-.14,8.44.11,9.07,3.79,9.68,2.37.39,11.12.15,15.32,0,1.37,0,2.4-.07,2.86-.07,3,0,3.29-.5,3.63-1.45.66-1.88.66-5.75.66-12.36l1.77.47H1461c0,6.75,0,10.62-.86,13.06-1.23,3.53-4.23,3.82-7,3.82-.45,0-1.44,0-2.77.07C1447,502.23,1443.4,502.32,1440.43,502.32Z"/>
            <path class="cls-23" d="M1422.21,522.28c-4.48-.17-9.49-1.52-12.34-4.56a1.72,1.72,0,0,1,2.52-2.35c2.38,2.54,7.84,4,13,3.37,3.44-.39,6.09-1.64,7.09-3.36a1.73,1.73,0,0,1,3.06,1.61l-.08.13c-1.6,2.73-5,4.52-9.68,5A24.73,24.73,0,0,1,1422.21,522.28Z"/>
            <path class="cls-25" d="M1450.48,556.21c-1.94-3.72-4.36-5.85-9.3-8.46,0,0-7-3.38-7.15-3.26a.55.55,0,0,0-.2.23c-1.43-1-3.29-2.6-3.29-2.6-.08.41-6.39,1.37-8,1.88-1.67-.52-8-1.48-8-1.88A25,25,0,0,1,1411,545c0-.19,0-.11-.19-.22s-7.21,3.22-7.22,3.14c-5,2.67-7.34,4.77-9.12,8.32Z"/>
          </g>
          <g id="_10" data-name="10" class="cls-4">
            <path class="cls-6" d="M1184.34,567.83c-2.34-2.8-1.61-8-13.16-11.19l-.19-.39a.34.34,0,0,0-.28-.19l-3.69-1.25v.48l-1.2-.63-12.23,2.13-12.25-2s-.57.27-1.21.55v-.51l-3.7,1.25a.35.35,0,0,0-.28.19l-.19.39c-12,3.45-11.1,8.33-13.24,11.18Z"/>
            <path class="cls-22" d="M1173.74,509.79c-1.08,6.15,2.56,11.28,8.15,12.38a10,10,0,0,0,12.08-8.38c1.1-6.15-2.59-12-8.16-13.14S1174.82,503.64,1173.74,509.79Z"/>
            <path class="cls-22" d="M1133,509.79c1.09,6.15-2.56,11.28-8.15,12.38a10,10,0,0,1-12.08-8.38c-1.1-6.15,2.56-12,8.15-13.14S1131.94,503.64,1133,509.79Z"/>
            <rect class="cls-22" x="1144.8" y="541.32" width="17.54" height="21.43"/>
            <path class="cls-22" d="M1182.54,471.19c-5.29-7.61-14.92-13.22-24-13.58l-.46,0v-.35l-4.49.17-4.48-.17v.35l-.47,0c-9.1.36-18.48,6.13-24,13.58-9.13,12.32-5,39.93-3.08,49.64,5.52,20.64,19.26,24.17,32,24.17s27-3.53,32-24.17C1187.58,512.18,1191.87,484.61,1182.54,471.19Z"/>
            <path class="cls-14" d="M1140.44,508.8a4.88,4.88,0,1,1-4.87-4.61A4.75,4.75,0,0,1,1140.44,508.8Z"/>
            <path class="cls-22" d="M1143.13,514.67c-.33,2.53-4.21,4.12-8.67,3.54s-7.82-3.08-7.5-5.61,4.21-4.11,8.67-3.53S1143.44,512.15,1143.13,514.67Z"/>
            <path class="cls-14" d="M1166.73,508.8a4.88,4.88,0,1,0,4.87-4.61A4.74,4.74,0,0,0,1166.73,508.8Z"/>
            <path class="cls-22" d="M1164,514.67c.32,2.53,4.2,4.12,8.67,3.54s7.82-3.08,7.49-5.61-4.21-4.11-8.67-3.53S1163.71,512.15,1164,514.67Z"/>
            <path class="cls-14" d="M1130.61,500.34a1.3,1.3,0,0,1-.95-2.19c2.22-2.34,8.73-3.79,12.55-1.15a1.29,1.29,0,0,1-1.47,2.13h0c-2.79-1.92-7.8-.66-9.2.8A1.27,1.27,0,0,1,1130.61,500.34Z"/>
            <path class="cls-14" d="M1177.09,500.45a1.33,1.33,0,0,1-.94-.39c-2-2.09-6.72-2-9.55.11a1.29,1.29,0,0,1-1.56-2.06c3.9-3,10.1-2.88,13,.16a1.3,1.3,0,0,1-.93,2.19Z"/>
            <path class="cls-23" d="M1151.48,523.39h-.1a1.25,1.25,0,0,1-1.2-1.3c.17-2.2.43-10.84.43-13.49a1.3,1.3,0,0,1,2.59,0c0,2.73-.26,11.37-.43,13.66A1.27,1.27,0,0,1,1151.48,523.39Z"/>
            <path class="cls-23" d="M1152.72,534.39c-.32,0-.64,0-.94,0-3.74-.19-6.78-1.39-8.36-3.31a1.29,1.29,0,1,1,2-1.64c1.08,1.31,3.57,2.22,6.49,2.37,3.59.18,7-.78,8.73-2.47a1.29,1.29,0,0,1,1.82,1.84C1160,533.55,1156,534.39,1152.72,534.39Z"/>
            <path class="cls-6" d="M1185,462.68c-6.47-7.67-16.73-11.56-30.53-11.56h0a91.82,91.82,0,0,0-12.72.95,30.72,30.72,0,0,0-19.19,12.17c-6.62,9.11-8.46,21.93-5.49,38.09a.82.82,0,0,0,.63.65.63.63,0,0,0,.19,0,.81.81,0,0,0,.66-.33,51.87,51.87,0,0,0,8.82-21.48,18.25,18.25,0,0,0,10.93,7.1.58.58,0,0,0,.19,0,.84.84,0,0,0,.78-.5c.2-.47.55-2.68-2.38-12.4,4.14,4.16,13,11.49,25.44,12.9h.07a.83.83,0,0,0,.81-1.12l-3.08-8.34a93.2,93.2,0,0,0,17.34,10.32,29.55,29.55,0,0,0,12.35,3,15.2,15.2,0,0,0,1.65-.09.82.82,0,0,0,.69-.68C1192.26,490.74,1194.92,474.46,1185,462.68Z"/>
            <path class="cls-6" d="M1163.14,544.14c-3,.78-6.19.06-6.44-2.18-.31-2.62-4.87-2.62-5.18,0-.26,2.24-3,2.84-6,2.34-1.76-.29-3.12-1.4-3.6-1.45-1.21-.14-1.14,1,0,2.21a11.76,11.76,0,0,0,3.18,2.42c5,2.67,13.16,2.57,18.14-.1,1-.53,4.11-2.67,4.13-3.45C1167.38,541.93,1164.31,543.84,1163.14,544.14Z"/>
            <path class="cls-6" d="M1143.58,530.67c3-.78,14.58-.65,17.62-.16,1.76.29,3.12,1.4,3.6,1.45,1.21.13,1.14-1,0-2.21a11.76,11.76,0,0,0-3.18-2.42c-5-2.68-13.16-2.57-18.14.1-1,.53-4.11,2.67-4.13,3.46C1139.35,532.9,1142.41,531,1143.58,530.67Z"/>
            <path class="cls-8" d="M1167,555.32c-.61-.31-1.2-.63-1.2-.63s-3.65-3.44-3.53-3.4-8.69,5.53-8.69,5.53l-8.7-5.53-3.54,3.51s-.57.27-1.21.55l0,2.34.28,10.13h26.36l.28-10.13Z"/>
            <path class="cls-26" d="M1144.37,565.93l-3.71-10.26a.67.67,0,0,1,1.25-.47h0l3.09,8.45,8-6.67a.67.67,0,0,1,.94.15.69.69,0,0,1-.07.89Z"/>
            <path class="cls-26" d="M1162.39,565.92,1153,558a.68.68,0,0,1,.87-1l8,6.68,3.09-8.35a.67.67,0,1,1,1.26.47h0Z"/>
            <path class="cls-6" d="M1120.62,503.83c.42-8.68.53-24.38,8.19-24.38,5.68,0,4.62-9.41,21.87-9.41,15.26,0,22,7,27.72,7,6.12,0,7.92,10.14,8,21.48,0,2.34.18,4.67.32,7,.08,1.37.18,2.73.25,4.11,0,.55.17,2,.9,1.9s.9-3.17,1-3.81a106.62,106.62,0,0,0,.73-13.72c0-8.41,2.44-24.6-12.78-34.69-9.35-6.21-28.7-6.82-39.47-3.31-7.5,2.45-14.69,8.83-17.37,16.25-2.93,8.16-2.86,14.53-1.89,30.69.1,1.75.31,3.51.55,5.24.14,1.17.34,2.33.59,3.47.62,2.47,1.47.71,1.44-.83C1120.68,508.5,1120.51,506.18,1120.62,503.83Z"/>
            <path class="cls-27" d="M1140.29,567.82l-.55-10,.39-2.34V555l-3.75,1.26a.35.35,0,0,0-.28.19l-.19.38-5.33,10.47a10,10,0,0,0,2.16.54Z"/>
            <path class="cls-27" d="M1167.05,557.69l-.24,10.13h7c.87-.26,1.73-.53,2.58-.83l-5.25-10.36-.19-.39a.35.35,0,0,0-.28-.18L1167,554.8v.49Z"/>
          </g>
          <g id="_18" data-name="18" class="cls-4">
            <path class="cls-17" d="M372.25,556.2c10.87-13.15,17-30.71,17-53.14l-3-144.57c0-57.9-50.53-120-119.67-120-74.87,0-119.66,62.09-119.66,120l-3,144.57c0,22.41,6.14,40,17,53.14Z"/>
            <rect class="cls-12" x="250.68" y="490.54" width="34.95" height="52.95"/>
            <path class="cls-12" d="M189.88,290.06c17.08-24.21,34.61-25,62.87-26.14h30.72c28.27,1.18,40.88,11.87,57.94,36.08s15.54,20.56,14.18,49.77c-1.06,22.08,12.19,6.59,3.05,68s-62.48,81.11-90.53,81.11-77.39-16.46-90.53-81.06,4.06-45.93,3-68C179.28,320.56,172.82,314.27,189.88,290.06Z"/>
            <path class="cls-13" d="M262,439.71h-.32a3.49,3.49,0,0,1-3.18-3.78h0c.48-5.25,1.21-25.8,1.22-32.35a3.6,3.6,0,0,1,2.82-3.59,3.49,3.49,0,0,1,4.17,3.43h0c0,6.06-.71,27.19-1.24,33.13A3.52,3.52,0,0,1,262,439.71Z"/>
            <path class="cls-17" d="M289.56,253.56c23.39,5.3,40.35,14.31,54.49,33.6,7.14,9.74,7.14,11.19.57,22.93-4.77,8.54-38.05,31.83-110,26.81-21.75-1.51-42.55,9.64-52.53,29-4,7.76-9.24,13.54-10.38,31.31-.93,14.47-14-20.52-15.36-34.16-2.65-27.09,9.8-52.95,25.9-73.57C208.83,255.43,245.65,243.55,289.56,253.56Z"/>
            <path class="cls-17" d="M362.81,395.31c7.9-18.91,6.79-122.85-24.12-93.49C334.92,356.85,359.56,357.23,362.81,395.31Z"/>
            <path class="cls-28" d="M227.15,424.71c0,6.7-7.86,12.12-17.55,12.12s-17.54-5.42-17.54-12.12,7.85-12.12,17.54-12.12S227.15,418,227.15,424.71Z"/>
            <path class="cls-28" d="M343.9,424.71c0,6.7-7.86,12.12-17.55,12.12s-17.53-5.42-17.53-12.12,7.84-12.12,17.53-12.12S343.9,418,343.9,424.71Z"/>
            <path class="cls-29" d="M202.08,378.2a3.79,3.79,0,0,1-1.49-7.28c12.38-5.3,26.3-5.3,34.65,0a3.8,3.8,0,1,1-4.05,6.42c-5.1-3.18-15.88-4.4-27.64.58A3.67,3.67,0,0,1,202.08,378.2Z"/>
            <path class="cls-29" d="M299.84,378.27a3.79,3.79,0,0,1-2.18-6.9c6.56-4.64,27.14-6.09,35.53-1.14a3.8,3.8,0,0,1-3.85,6.54c-5.74-3.37-22.82-2.37-27.31.8A3.76,3.76,0,0,1,299.84,378.27Z"/>
            <path class="cls-30" d="M235.08,404.58a3.8,3.8,0,0,1-2.21-.71c-7.88-5.66-18.21-6.53-29.07-2.45a3.8,3.8,0,0,1-2.67-7.11h0c13.31-5,26.16-3.8,36.17,3.4a3.79,3.79,0,0,1-2.22,6.87Z"/>
            <path class="cls-30" d="M298.11,404.58a3.79,3.79,0,0,1-2.21-6.87c10-7.18,22.85-8.4,36.17-3.4a3.8,3.8,0,0,1-2.67,7.11h0c-10.86-4.08-21.18-3.18-29.08,2.45A3.73,3.73,0,0,1,298.11,404.58Z"/>
            <path class="cls-8" d="M240.28,454.77c10,24.36,49.89,16.53,52.66-.23Z"/>
            <path class="cls-13" d="M266,473.17h0c-13.35,0-24-6.46-28.39-17.26a2.91,2.91,0,0,1,1.58-3.8,2,2,0,0,0,1.1-.75L293,452.42h0a1.43,1.43,0,0,1,2.22.29,2.86,2.86,0,0,1,.65,2.36C293.94,466.4,279.18,473.17,266,473.17Zm-20.87-15.26c5.88,8.61,16.26,9.65,20.86,9.65h0c9.93,0,19.27-4.23,22.75-9.85Z"/>
            <path class="cls-31" d="M334.34,556.2v-.13c-7.17-21-10.94-26-32-35.85l-13.58-6.06v.11c-2-1.58-17.29,21.66-20.92,22.76-3.62-1-19.19-24.13-21.44-22.63v-.14l-13.35,6.27c-20.37,9.68-24.16,15.07-31.12,35.54v.13Z"/>
            <path class="cls-8" d="M256.72,556.2h22.11l9.68-38.83.55-3.11c-2.06-1.6-3.79-3.08-3.79-3.08l-.3.41a20.94,20.94,0,0,1-34.12-.4h0s-2.28,1.72-4.54,3.18l1.14,4.64Z"/>
          </g>
          <g id="_27" data-name="27" class="cls-4">
            <path class="cls-32" d="M564,476.52c-1.81,32.31-7.11,67.38-9.23,80.6H766.16c-2.52-11.36-7.71-39.12-8.64-78.65-1-44.52,4.16-51.16-.23-90-6.64-58.4-45.35-95.26-96.59-95.26-45.9,0-89.39,28.48-96.54,95.26C560.32,424,566.33,435.73,564,476.52Z"/>
            <rect class="cls-33" x="645.71" y="492.91" width="31.67" height="41.34"/>
            <path class="cls-33" d="M710,339.37c-14.3-20.3-12-31.08-35.64-32.07H648.65c-23.69,1-15.43,2-29.74,22.27s-27,14.68-25.89,39.17c.53,11.61-13.84,7.29-13.68,24.63.09,10.27,1,23.75,3.88,42.85,7.65,51.46,46.56,68,78.28,68s67.3-13.79,78.29-68-5.85-38.47-5-57C736,354.76,724.35,359.66,710,339.37Z"/>
            <path class="cls-33" d="M673.77,545.75c12.72-4.24,23.45-11.37,26.18-25.71-4.68-2.63-24.47-8.66-24.47-8.66H648S623.2,520.83,619.07,523C616.6,542.15,654.63,550,673.77,545.75Z"/>
            <path class="cls-34" d="M656.42,455.08h-.27a2.92,2.92,0,0,1-2.64-3.17c.4-4.46,1-21.91,1-27.27a2.94,2.94,0,1,1,5.87-.32v.32c0,5.07-.6,22.78-1,27.76A2.92,2.92,0,0,1,656.42,455.08Z"/>
            <path class="cls-34" d="M659.73,480.61c-10.14,0-18.72-3.78-23.15-10.24a2.93,2.93,0,1,1,4.8-3.37c3.46,5.1,10.71,8,19.41,7.73,8.21-.24,15.69-3.36,18.2-7.58a2.94,2.94,0,0,1,4.7-.47,3,3,0,0,1,.23,3.64c-3.65,5.94-12.63,10-22.95,10.27Z"/>
            <path class="cls-34" d="M605.1,404.94a3.19,3.19,0,0,1-2.42-5.54c5.47-4.9,23-8.12,29.91-2.55a3.18,3.18,0,1,1-4,5h0c-4.22-3.39-18.15-.88-21.71,2.33A3.32,3.32,0,0,1,605.1,404.94Z"/>
            <path class="cls-34" d="M689,402.62a3.17,3.17,0,0,1-1.46-5.89c6.48-3.88,22.32-5.17,31.41,1.69a3.17,3.17,0,0,1-3.71,5.15l-.12-.09c-6.88-5.18-19.89-4-24.33-1.31A3.05,3.05,0,0,1,689,402.62Z"/>
            <path class="cls-35" d="M625.93,468.53a3.19,3.19,0,0,1-3.34,0,2.69,2.69,0,0,1-.61-3.75l.17-.21a43.13,43.13,0,0,1,9.9-10c1.39-.93,3.65-1.33,4.51,0s-.06,3.45-1.34,4.53a52.58,52.58,0,0,0-8.36,8.51A3.13,3.13,0,0,1,625.93,468.53Z"/>
            <path class="cls-35" d="M695.05,469.4a3.16,3.16,0,0,0,3.35,0,2.65,2.65,0,0,0,.67-3.67,3.11,3.11,0,0,0-.23-.28,43.33,43.33,0,0,0-9.9-10c-1.39-.93-3.66-1.32-4.51,0s.06,3.45,1.33,4.53a51.77,51.77,0,0,1,8.36,8.51A3.5,3.5,0,0,0,695.05,469.4Z"/>
            <path class="cls-32" d="M706.72,314.8c-23.88-13.48-45.53-18.47-72.49-10.42C619.5,308.77,579.69,328,575,369.76c-5.13,31.93,5.21,57.8,5.21,57.8,2.37-10.42.55-37.91,37.46-52.78,42.83-17.26,47.85-29.44,47.85-29.44a64,64,0,0,0,28,25.15c27.67,12.89,41.34,20.37,47.7,57.18,0,0,8-24.37,9.2-43.16h0C753.5,362.62,734.89,330.7,706.72,314.8Z"/>
            <path class="cls-6" d="M711.94,420.62c0,6.83-.76,11.36-10.41,11.36s-10.41-4.53-10.41-11.36,4.66-12.36,10.41-12.36S711.94,413.79,711.94,420.62Z"/>
            <path class="cls-6" d="M627.81,420.62c0,6.83-.77,11.36-10.41,11.36S607,427.45,607,420.62s4.67-12.36,10.41-12.36S627.81,413.79,627.81,420.62Z"/>
            <path class="cls-36" d="M667,390.51a6.16,6.16,0,1,1-6.16-6.16A6.16,6.16,0,0,1,667,390.51Z"/>
            <path class="cls-17" d="M739.9,557.12a12.38,12.38,0,0,0-.75-8.22c-2.43-5.22-5.28-7.65-10.7-9.5a6,6,0,0,1-3.87-4.19c-1-4.15-4.73-11.15-18-12.76-1.85-.23-5.47-3.29-6.76-4.63s-3.79-2.9-8.08-2.77a11.85,11.85,0,0,0-5.92,2.14c-7.61,5.91-29.22,22.75-50.7,39.93Z"/>
            <path class="cls-17" d="M731.11,557.14c-4.76-16-18.64-30.25-31.16-37.06-5.86,11.09-16.71,17.17-29.46,21.41-19.13,4.26-46.78-3.11-51.42-18.47-13.19,4.64-23.75,18.08-27.35,34.1Z"/>
            <path class="cls-37" d="M637.23,557.13l43.43-36s-37.21,21-55.61,35.18c-.33.26-.63.54-.95.81Z"/>
          </g>
          <g id="_22" data-name="22" class="cls-4">
            <path class="cls-6" d="M1322,422.09l-.57.6,0,.15a8.79,8.79,0,0,1-6.83,11.61h0l-.47,1a8.77,8.77,0,0,1-11.65,4.28,5.28,5.28,0,0,1-.53-.27l-1.15-.64-1.9,1.72a8.75,8.75,0,0,1-11.88-.11l-1.82-1.72-1.1.57a8.77,8.77,0,0,1-11.81-3.77c-.09-.18-.18-.36-.26-.54l-.43-1h0a8.78,8.78,0,0,1-7.49-9.89,3.68,3.68,0,0,1,.53-1.55v-.08l-.59-.41a9,9,0,0,1-.14-12.7c.2-.21.42-.41.64-.6l.28-.23h0a9,9,0,0,1,6.81-10.72,1.61,1.61,0,0,0,1.2-.74h0l.2,0a9,9,0,0,1,11.35-5.71c.22.08.45.16.66.25l.61.26.57-.63a9,9,0,0,1,12.69-.36l.37.36.57.63.6-.26a9,9,0,0,1,11.81,4.7c.11.24.2.49.29.75l.19.6h0a9,9,0,0,1,8.2,9.67,9.83,9.83,0,0,1-.19,1.21h0l.42.35a9,9,0,0,1,1.18,12.65A6.91,6.91,0,0,1,1322,422.09Z"/>
            <path class="cls-38" d="M1259.3,483.6c.84,6.76-3.06,12.8-8.7,13.5s-10.87-4.21-11.73-11,3.06-12.8,8.7-13.5S1258.46,476.84,1259.3,483.6Z"/>
            <path class="cls-38" d="M1326.61,483.6c-.83,6.76,3.06,12.8,8.7,13.5s10.87-4.21,11.73-11-3.06-12.8-8.7-13.5S1327.45,476.84,1326.61,483.6Z"/>
            <path class="cls-38" d="M1328.6,558.68c-3.78-9.47-7.75-11.51-25.63-19.54-3.15-1.14-7.88.08-10,.75-2.12-.67-6.86-1.88-10-.75-13.29,6-18.88,8.64-22.45,13.5C1281.41,561.35,1306.73,554.36,1328.6,558.68Z"/>
            <path class="cls-38" d="M1330.94,429.21c-8.29-11.76-16.8-12.12-30.52-12.69H1285.5c-13.73.57-22.24.93-30.52,12.69s-5.15,14.81-4.51,29c.5,10.72-5.91,3.19-1.48,33s30.32,39.38,44,39.38,38.16-8.19,44-39.38c5.86-31.5-2-22.31-1.48-33C1336.09,444,1339.23,441,1330.94,429.21Z"/>
            <rect class="cls-38" x="1283.04" y="524.65" width="20.02" height="30.89"/>
            <path class="cls-7" d="M1290,502.34h-.15a1.72,1.72,0,0,1-1.54-1.85c.23-2.58.57-12.69.57-15.79a1.72,1.72,0,0,1,3.4,0c0,2.95-.35,13.21-.61,16.1A1.72,1.72,0,0,1,1290,502.34Z"/>
            <path class="cls-7" d="M1292.28,515.59c-4.89,0-10.56-1.2-13.66-4.63a1.72,1.72,0,0,1,2.52-2.29c2.24,2.48,7.32,3.84,12.89,3.46,4.31-.29,8-1.61,9.11-3.28a1.72,1.72,0,0,1,2.8,1.92c-1.77,2.6-6.13,4.37-11.68,4.75C1293.62,515.57,1293,515.59,1292.28,515.59Z"/>
            <path class="cls-6" d="M1274.56,483.35c0,3.95-2.7,7.16-6,7.16s-6-3.21-6-7.16,2.71-7.16,6-7.16S1274.56,479.42,1274.56,483.35Z"/>
            <path class="cls-6" d="M1276.14,470.64a1.83,1.83,0,0,1-1.38-.63,7.53,7.53,0,0,0-5.64-2.38,9.57,9.57,0,0,0-6.68,2.43,1.84,1.84,0,0,1-2.67-2.53,13,13,0,0,1,9.41-3.59,11.18,11.18,0,0,1,8.33,3.64,1.83,1.83,0,0,1-.14,2.59,1.87,1.87,0,0,1-1.23.47Z"/>
            <path class="cls-6" d="M1311.27,470.43a1.87,1.87,0,0,1-1.14-.39,1.83,1.83,0,0,1-.32-2.57h0a10.43,10.43,0,0,1,7.62-3.44,11,11,0,0,1,8.59,3.31,1.84,1.84,0,1,1-2.67,2.54h0a7.36,7.36,0,0,0-5.72-2.17,7.05,7.05,0,0,0-4.92,2A1.81,1.81,0,0,1,1311.27,470.43Z"/>
            <path class="cls-6" d="M1323.34,483.35c0,3.95-2.7,7.16-6,7.16s-6-3.21-6-7.16,2.7-7.16,6-7.16S1323.34,479.42,1323.34,483.35Z"/>
            <path class="cls-39" d="M1273.09,499c0,3.25-3.82,5.89-8.52,5.89s-8.51-2.64-8.51-5.89,3.81-5.88,8.52-5.88S1273.09,495.72,1273.09,499Z"/>
            <path class="cls-39" d="M1329.78,499c0,3.25-3.81,5.89-8.52,5.89s-8.51-2.64-8.51-5.89,3.81-5.88,8.51-5.88S1329.78,495.72,1329.78,499Z"/>
            <path class="cls-6" d="M1262.92,419.54c13.1-8.79,33.45-9.64,48.52-4.67,8.23,2.72,28.17,9.91,30.32,37,2.86,19.67-4,31.94-4,31.94s3.73-46-45.35-46-43.74,48.6-43.74,48.6-4.49-6.87-5.15-18.46h0C1241,455,1241.59,433.83,1262.92,419.54Z"/>
            <path class="cls-40" d="M1254.88,508.3a6.91,6.91,0,0,1-5.8,3.47c-4,0-7.21-3.82-7.21-8.52s3.24-8.52,7.21-8.52a1.42,1.42,0,0,0,0-2.83c-5.53,0-10,5.09-10,11.35s4.51,11.35,10,11.35a9.51,9.51,0,0,0,7.41-3.72C1255.93,510.07,1255.4,509.17,1254.88,508.3Z"/>
            <path class="cls-40" d="M1331,508.3a6.92,6.92,0,0,0,5.8,3.47c4,0,7.22-3.82,7.22-8.52s-3.24-8.52-7.22-8.52a1.42,1.42,0,0,1-.18-2.83h.18c5.54,0,10,5.09,10,11.35s-4.5,11.35-10,11.35a9.56,9.56,0,0,1-7.41-3.72C1330,510.07,1330.52,509.17,1331,508.3Z"/>
            <path class="cls-41" d="M1329.89,560.11c-3.74-10.12-7-12.59-21.23-19.1a.72.72,0,0,0-.67,0,.9.9,0,0,0-.38.57c-3.66,10.3-24.65,10.8-28.43-.26l0-.16a.73.73,0,0,0-.39-.53.74.74,0,0,0-.65,0c-14.87,6.79-18.31,9.31-22.09,19.49Z"/>
          </g>
          <g id="_33" data-name="33" class="cls-4">
            <path class="cls-12" d="M860.84,478.36c-1.51,8.52,3.55,15.63,11.31,17.16a13.89,13.89,0,0,0,16.72-11.64c1.5-8.55-3.54-16.7-11.29-18.22S862.34,469.83,860.84,478.36Z"/>
            <path class="cls-12" d="M806.83,478.36c1.52,8.52-3.54,15.63-11.3,17.16a13.9,13.9,0,0,1-16.73-11.64c-1.5-8.55,3.54-16.7,11.3-18.22S805.33,469.83,806.83,478.36Z"/>
            <path class="cls-12" d="M872.47,423.58c-7.56-10.27-19.34-17-31.86-17.52,0,0-3.45-.32-6.87-.32s-6.74.32-6.74.32c-12.51.51-24.29,7.25-31.86,17.52s-8.57,23.21-8,35.62c.45,9.37,2.11,21.81,2.57,31.18,7.59,28.4,26.48,33.24,44.07,33.24s37.1-4.84,44.06-33.24c.46-9.37,2.12-21.81,2.57-31.18C881,446.79,880,433.85,872.47,423.58Z"/>
            <rect class="cls-12" x="822.38" y="518.16" width="22.78" height="28.34"/>
            <path class="cls-42" d="M831.22,492.35h-.09a1.63,1.63,0,0,1-1.55-1.07,1.39,1.39,0,0,1-.11-.58c.23-2.77.58-13.64.58-17a1.77,1.77,0,0,1,3.54,0c0,3.15-.34,14.12-.59,17.21A1.68,1.68,0,0,1,831.22,492.35Z"/>
            <path class="cls-8" d="M834.12,509c-4.13,0-8.77-1.2-11.5-4.18a1.9,1.9,0,0,1,0-2.49,1.47,1.47,0,0,1,2.08-.16l.16.16c2.28,2.49,17.59,1,18.45-.76a1.52,1.52,0,0,1,2-.8.8.8,0,0,1,.16.08,1.86,1.86,0,0,1,.65,2.39c-1.37,2.84-4.47,4.8-8.73,5.51A18.62,18.62,0,0,1,834.12,509Z"/>
            <path class="cls-6" d="M815.12,473.67c0,3.47-2.36,6.27-5.28,6.27s-5.28-2.8-5.28-6.27,2.36-6.27,5.28-6.27S815.12,470.21,815.12,473.67Z"/>
            <path class="cls-43" d="M802.45,462.16a1.72,1.72,0,0,1-1.21-.48,1.77,1.77,0,0,1-.06-2.49h0c3-3.18,11.86-5.14,17.05-1.56a1.77,1.77,0,0,1-2,2.89c-3.79-2.61-10.63-.89-12.5,1.1A1.73,1.73,0,0,1,802.45,462.16Z"/>
            <path class="cls-43" d="M863.63,463.5a1.75,1.75,0,0,1-1.27-.55c-2.7-2.84-9.11-2.76-13,.16a1.77,1.77,0,0,1-2.24-2.73l.12-.08c5.31-4,13.73-3.91,17.66.22a1.77,1.77,0,0,1-1.28,3Z"/>
            <path class="cls-6" d="M850.39,476.28a1.64,1.64,0,0,1-.65-.13,1.75,1.75,0,0,1-1-2.28h0a8.24,8.24,0,0,1,8.28-5.41,6.94,6.94,0,0,1,6.23,5.71,1.76,1.76,0,0,1-3.45.69,3.38,3.38,0,0,0-3.1-2.89,4.65,4.65,0,0,0-4.69,3.2A1.77,1.77,0,0,1,850.39,476.28Z"/>
            <path class="cls-42" d="M845.48,496.28A25.5,25.5,0,0,0,833.81,494c-2.73,0-7.37.15-11.68,2.33a14.19,14.19,0,0,0-6.07,5.91c-.46.84.26,1.8,1.34,1.8h32.84a1.3,1.3,0,0,0,1.34-1.8A14.2,14.2,0,0,0,845.48,496.28Z"/>
            <path class="cls-42" d="M840.94,516.93s-2.65-.84-3.06-2.48-2.53-2-4-2-3.65.39-4.05,2-3.06,2.48-3.06,2.48c-27.59,4.3-35.94-22.78-35.94-22.78,7.28,33.39,43,31.6,43,31.6s35.77,1.81,43.08-31.56C876.9,494.17,868.7,522,840.94,516.93Z"/>
            <path class="cls-42" d="M790.89,470.13c.54-11.48,1.46-37.73,10.62-41.58,11.25-4.73,12.18,11.06,31.7,11.06s22.11-14.23,32.9-11.64c7.71,1.85,9.9,20.16,10,35.15,0,3.09.24,6.18.41,9.27.11,1.81.24,3.61.33,5.42,0,.74.22,2.7,1.16,2.53s1.18-4.18,1.28-5a142.79,142.79,0,0,0,.95-18.14c0-11.13,3.16-32.52-16.56-45.85-12.14-8.2-37.18-9-51.12-4.37-9.71,3.23-19,11.64-22.5,21.48-3.8,10.78-3.7,19.2-2.45,40.55.14,2.32.4,4.64.72,6.93.18,1.54.43,3.08.76,4.59.79,3.27,1.9.94,1.87-1.09C791,476.3,790.74,473.23,790.89,470.13Z"/>
            <path class="cls-44" d="M877.32,556.12c-3.75-6.93-10.28-15.53-25.61-20.5-2.35-.82-4.45-1.52-6.4-2.13-6.18,9.67-19.4,7-23.06-.1-2.42.72-5.1,1.66-8.16,2.82-14.17,4.63-20.21,13.22-23.79,19.91Z"/>
          </g>
          <g id="_48" data-name="48" class="cls-4">
            <path class="cls-12" d="M96.87,470.63c-1.77,10,4.21,18.39,13.3,20.2s17.92-3.65,19.69-13.69-4.21-19.63-13.3-21.43S98.63,460.6,96.87,470.63Z"/>
            <path class="cls-12" d="M33.29,470.63c1.77,10-4.21,18.39-13.3,20.2S2.07,487.18.31,477.14s4.21-19.63,13.29-21.43S31.53,460.6,33.29,470.63Z"/>
            <path class="cls-12" d="M110.29,403.3c-8.85-12-22.64-19.9-37.29-20.48l-.75,0v-.6l-7.22.29-7.21-.29v.6l-.75,0c-14.65.6-28.44,8.47-37.29,20.48s-10,27.17-9.3,41.69c.52,11,2.46,28.65,3,39.62,8.89,33.23,31,38.9,51.56,38.9s43.41-5.67,51.56-38.9c.54-11,2.49-28.66,3-39.62C120.32,430.47,119.14,415.33,110.29,403.3Z"/>
            <rect class="cls-12" x="51.81" y="517.43" width="27.06" height="33.67"/>
            <path class="cls-13" d="M46.68,452.89a2.07,2.07,0,0,1-1.53-.6c-3.31-3.2-10.86-2.81-15.26.81a2.08,2.08,0,0,1-2.63-3.21c6.05-5,16-5.25,20.78-.6a2.07,2.07,0,0,1,0,2.93A2.14,2.14,0,0,1,46.68,452.89Z"/>
            <path class="cls-13" d="M61.73,490.37h-.15a2.07,2.07,0,0,1-1.92-2.19v0c.27-3.73.69-18.39.69-22.88a2.07,2.07,0,0,1,4.14-.22.81.81,0,0,1,0,.22c0,4.24-.39,19-.69,23.17A2.06,2.06,0,0,1,61.73,490.37Z"/>
            <path class="cls-44" d="M85.49,538.08a2.78,2.78,0,0,1-2.78,2.8H47.39a2.8,2.8,0,0,1-2.8-2.8h0V524.42a2.77,2.77,0,0,1,2.78-2.78h0s5,2.27,17.14,2.27,18.15-2.27,18.15-2.27a2.79,2.79,0,0,1,2.8,2.79Z"/>
            <path d="M64.64,546.35c-9.24,0-16.53-2.32-19.5-6.21a1.06,1.06,0,0,1,1.68-1.28c2.53,3.31,9.36,5.38,17.82,5.38,13.26,0,17.39-2.94,18.51-5.41a1.05,1.05,0,0,1,1.92.87C83,544.17,76.35,546.35,64.64,546.35Z"/>
            <path class="cls-32" d="M117.37,484.11a.76.76,0,0,0-.53-.23c-.48,0-.69.3-1.46,1.43-2.19,3.18-8.85,12.87-21.68,12.87-1.39,0-2.88-.69-5-1.65-4.33-2-10.88-5-23.71-5-9.86,0-16.1,2.43-21.12,4.38-3.26,1.28-5.84,2.28-8.51,2.28-11.54,0-18-9.25-20.48-12.73-.9-1.28-1.15-1.63-1.65-1.63a.82.82,0,0,0-.55.24,1,1,0,0,0-.22.77.33.33,0,0,0,0,.14c9.39,35.14,33,39.64,52.52,39.64,18.38,0,43.82-4.1,52.55-39.78A.89.89,0,0,0,117.37,484.11Z"/>
            <path class="cls-13" d="M65.38,506.65c-5.41,0-11.47-1.4-15-4.93a2.07,2.07,0,1,1,2.91-2.94h0c3,2.94,9.62,4.4,15.75,3.47,4.12-.61,7.25-2.25,8.37-4.36a2.08,2.08,0,0,1,3.74,1.81,1.09,1.09,0,0,1-.08.15c-1.8,3.35-5.85,5.65-11.42,6.5A30.12,30.12,0,0,1,65.38,506.65Z"/>
            <path class="cls-32" d="M11,460c.67-14,.85-39.24,13.18-39.24,9.14,0,11.62,2.09,39.37,2.09,24.55,0,31.68-2.78,40.88-2.78,9.85,0,12.29,13.16,12.48,31.42,0,3.75.3,7.52.52,11.27.13,2.2.28,4.4.4,6.62.05.9.27,3.29,1.45,3.06s1.45-5.09,1.58-6.13a173.18,173.18,0,0,0,1.21-22.07c0-13.53,3.91-39.58-20.57-55.82-15-10-46.18-11-63.51-5.32-12.09,3.94-23.66,14.16-27.94,26.13C5.34,422.37,5.46,432.63,7,458.61c.17,2.82.5,5.64.89,8.42a55.75,55.75,0,0,0,.95,5.59c1,4,2.36,1.13,2.31-1.34C11.1,467.53,10.84,463.79,11,460Z"/>
            <path class="cls-14" d="M44.09,465.16c0,4.07-2.78,7.38-6.22,7.38s-6.21-3.31-6.21-7.38,2.78-7.38,6.21-7.38S44.09,461.08,44.09,465.16Z"/>
            <path class="cls-13" d="M82.47,452.89a2.09,2.09,0,0,0,1.53-.6c3.3-3.2,10.86-2.81,15.26.81a2.08,2.08,0,0,0,2.63-3.21c-6-5-16-5.25-20.78-.6a2.08,2.08,0,0,0,0,2.94,2.06,2.06,0,0,0,1.4.62Z"/>
            <path class="cls-14" d="M85.1,465.16c0,4.07,2.79,7.38,6.22,7.38s6.22-3.31,6.22-7.38-2.79-7.38-6.22-7.38S85.1,461.08,85.1,465.16Z"/>
            <path class="cls-45" d="M119.72,458.51H10a2.2,2.2,0,0,1-2.2-1.73,2.12,2.12,0,0,1,2.13-2.48H119.64a2.2,2.2,0,0,1,2.21,1.72A2.13,2.13,0,0,1,119.72,458.51Z"/>
            <path class="cls-45" d="M90.88,483.85a17.19,17.19,0,0,1-13.18-5.41C70.52,470.77,71,457.77,71,457.22a2.16,2.16,0,0,1,2.2-2.14h.06a2.22,2.22,0,0,1,2.09,2.32h0c0,.12-.37,11.68,5.51,18a13,13,0,0,0,10,4c6.25,0,11.14-1.81,14.49-5.37,5.32-5.62,5.48-14.16,5.41-16.64a2.18,2.18,0,0,1,4.36-.15c.11,3.75-.3,13.23-6.62,19.9C104.29,481.59,98.36,483.85,90.88,483.85Z"/>
            <path class="cls-45" d="M37.8,483.85c-7.51,0-13.46-2.27-17.69-6.74-6.32-6.7-6.74-16.14-6.61-19.89a2.24,2.24,0,0,1,2.25-2.16,2.21,2.21,0,0,1,2.14,2.28v.06c-.08,2.47.09,11,5.41,16.62,3.38,3.57,8.28,5.38,14.56,5.38a13.1,13.1,0,0,0,10.08-4c5.89-6.29,5.52-17.83,5.51-17.94a2.22,2.22,0,0,1,2.09-2.33,2.18,2.18,0,0,1,2.27,2.08v.06c0,.55.46,13.53-6.72,21.21A17.5,17.5,0,0,1,37.8,483.85Z"/>
            <path class="cls-44" d="M116.27,560.12c-4.54-7.93-12.31-16.33-30-22.1-17.8-6.23-23.85-7.18-44.57.7-16.33,5.35-23.57,13.76-27.87,21.4Z"/>
          </g>
          <g id="_21" data-name="21" class="cls-4">
            <path class="cls-33" d="M1039.32,536.2c-1.31-.68-10.35-2-10.35-2l-18.72,5.22-18.74-4.93s-9,1.13-10.4,1.75c0,0-2.51,15.64-.13,16.09,7.12,1.31,26.31-.55,28.37-.55,2.44,0,8,2.3,10.38,2.18,7.42-.34,11.43-2.45,18.55-3.82C1040.37,549.77,1039.32,536.2,1039.32,536.2Z"/>
            <path class="cls-33" d="M1053.73,441.74c-2.42,13.7,5.7,25.12,18.15,27.57s24.46-5,26.86-18.67-5.71-26.79-18.15-29.26S1056.14,428,1053.73,441.74Z"/>
            <path class="cls-33" d="M967,441.74c2.41,13.7-5.71,25.12-18.15,27.57s-24.46-5-26.86-18.67,5.71-26.79,18.14-29.26S964.56,428,967,441.74Z"/>
            <path class="cls-33" d="M1073,349.46c-12.31-16.49-31.51-27.33-51.9-28.12l-1.06,0v-.79l-10,.39-10.05-.39v.79l-1.06,0c-20.38.79-39.59,11.63-51.91,28.12S933,386.76,934,406.67c.73,15.07,3.4,39.35,4.19,54.38,12.37,45.61,43.14,53.41,71.78,53.41s60.44-7.8,71.79-53.41c.75-15.07,3.45-39.35,4.19-54.38C1086.93,386.76,1085.3,366,1073,349.46Z"/>
            <rect class="cls-33" x="991.55" y="501.19" width="37.67" height="49.4"/>
            <path class="cls-6" d="M960.22,408.39a2.84,2.84,0,0,1-2.05-4.78c4.85-5.11,19.05-8.27,27.38-2.51a2.83,2.83,0,1,1-3,4.81l-.24-.16c-6.08-4.18-17.05-1.43-20.09,1.75A2.8,2.8,0,0,1,960.22,408.39Z"/>
            <path class="cls-6" d="M1061.87,411.73a2.85,2.85,0,0,1-2-.84c-4.32-4.54-14.66-4.42-20.85.26a2.83,2.83,0,0,1-4.4-3.32,3,3,0,0,1,1-1.19c8.52-6.45,22-6.27,28.37.35a2.83,2.83,0,0,1-2.06,4.78Z"/>
            <path class="cls-6" d="M939.83,423.86c.55-11-1.74-39.84,11.27-45,5.71-2.28,16.9.11,22.6.66a459.47,459.47,0,0,0,67.9,1.21c9.76-.63,23.86-3.19,28.47-2.56,12.5,1.67,10.94,24.72,11,35,.05,4.75,0,9.27-.06,14,0,2.78,0,5.56-.08,8.37,0,1.13.07,4.18,1.63,4,1.74-.2,2.38-6.28,2.64-7.53,2.06-9.86,3-20.66,5.72-30.24,4.4-15.74,7.74-39.1,2.06-52.14-1.61-3.73-10.81-15.24-20-14.54,9.16-18.09-9.06-27.63-23.87-28.23-23.91-1-43.63,4.46-66,12a105.52,105.52,0,0,0-32.54,17.32c-9.1,7-13.86,13-16.6,23.85-5.86,23.19-1.77,49.58,1.67,72.84a67.09,67.09,0,0,0,1.25,7c1.3,5,3.11,1.44,3-1.67C939.94,433.36,939.61,428.63,939.83,423.86Z"/>
            <path class="cls-46" d="M1005.49,469.38h-.2a2.82,2.82,0,0,1-2.6-3c.36-5.05.92-24.7.93-30.92a2.89,2.89,0,0,1,2.28-2.89,2.81,2.81,0,0,1,3.34,2.76h0c0,6.29-.56,26.15-.94,31.46A2.82,2.82,0,0,1,1005.49,469.38Z"/>
            <path class="cls-46" d="M1009.74,490c-6.7,0-13.4-1.59-17.47-5.57a2.81,2.81,0,1,1,4-4h0c3.68,3.63,13,5,21.64,3.08,8.24-1.79,14.12-5.86,16.14-11.14a2.81,2.81,0,0,1,5.26,2c-2.72,7.13-10.08,12.44-20.21,14.67A45.64,45.64,0,0,1,1009.74,490Z"/>
            <path class="cls-18" d="M1086.19,421.18c-.47-.36-11.45-9.37-38.94-9.94-14.24-.31-22.53,2.61-27.83,6.05-4,2.6-6.41,5.4-9.74,5.65-3.35-.25-5.74-3.05-9.75-5.65-5.29-3.44-13.57-6.36-27.81-6.05-27.49.57-38.51,9.58-39,9.94a3.4,3.4,0,0,0-1.2,3.45l1.67,8a3.18,3.18,0,0,0,2.9,2.51l4,.2a40.39,40.39,0,0,0,6.75,16.82c8.17,12.45,25.83,13,37.47,9.4A29.28,29.28,0,0,0,999,451.72c3.5-4.77,5-10,10.71-10.63,5.68.59,7.21,5.86,10.72,10.63a29.26,29.26,0,0,0,14.15,9.82c11.64,3.61,29.31,3,37.47-9.4a40.29,40.29,0,0,0,6.76-16.82l4-.2a3.16,3.16,0,0,0,2.89-2.51l1.67-8A3.36,3.36,0,0,0,1086.19,421.18Z"/>
            <path class="cls-21" d="M1002.34,435.28c1.51-5.86-2.17-12-7.58-14.37-4.9-2.16-10.72-3.64-19.74-3.45a95.18,95.18,0,0,0-16.92,1.63c-4.07.84-9.8,1.67-12,5.86a10.16,10.16,0,0,0-1.2,4.67,26.41,26.41,0,0,0,.64,4.93v.08c0,.09,1.73,8.47,6.49,14.47,6.26,7.9,18.74,11.26,31.82,7.3a24.88,24.88,0,0,0,11.62-7.78C1000.52,442.23,1001.81,437.41,1002.34,435.28Z"/>
            <path class="cls-21" d="M1017.27,435.28c-1.5-5.86,2.16-12,7.54-14.37,4.9-2.16,10.72-3.64,19.74-3.45a95.09,95.09,0,0,1,16.92,1.63c4.07.84,9.8,1.67,12,5.86a10.16,10.16,0,0,1,1.2,4.67,26.4,26.4,0,0,1-.63,4.93.11.11,0,0,1,0,.08s-1.72,8.47-6.49,14.47c-6.26,7.9-18.74,11.26-31.82,7.3a24.88,24.88,0,0,1-11.57-7.79C1019.08,442.23,1017.82,437.41,1017.27,435.28Z"/>
            <path class="cls-21" d="M1077.54,558.15c-3.2-9.52-17-14.32-29.22-18.73l-.41-.84a.72.72,0,0,0-.61-.39s-.65,10.67-1.49,19.93Z"/>
            <path class="cls-21" d="M974.58,558.11a127.73,127.73,0,0,1,3.35-21.56l-4.84,1.62a.69.69,0,0,0-.6.4l-.42.83c-12.19,4.41-23.91,10.21-28.86,18.72Z"/>
            <path class="cls-8" d="M975.5,558.12H1046a2.51,2.51,0,0,1,1-.62c-1.13-9.66-7.67-21-7.67-21-8.1,14.65-49.93,15.49-58.21.07,0,0-7.3,11-6.79,20.63A2.54,2.54,0,0,1,975.5,558.12Z"/>
            <path class="cls-18" d="M1039.33,541.67l-.38,16.45h18.82l-9.49-18.72-.41-.84a.69.69,0,0,0-.6-.4l-8-2.72v1Z"/>
            <path class="cls-18" d="M981.47,558.12l0-16.76v-6.21l-8.41,2.73a.7.7,0,0,0-.6.39l-.42.84-9.45,19Z"/>
          </g>
        </g>
      </g>
    </g>
  </g>
</svg>
