<svg id="Layer_1" data-name="Layer 1" xmlns="http://www.w3.org/2000/svg" width="315" height="306" viewBox="0 0 315 306">
  <defs>
    <style>
      .cls-1 {
        fill: #3c313f;
      }

      .cls-2 {
        fill: #331907;
      }

      .cls-3 {
        fill: #ffc78a;
      }

      .cls-4 {
        fill: #d88248;
      }

      .cls-5 {
        fill: #fff;
      }

      .cls-6 {
        fill: #7e2b99;
      }

      .cls-7 {
        fill: #a8571b;
      }

      .cls-8 {
        fill: #6b3305;
      }

      .cls-9 {
        fill: #3a1700;
      }

      .cls-10 {
        fill: #bc4719;
      }

      .cls-11 {
        fill: #ef9c56;
      }

      .cls-12 {
        fill: #ffbe88;
      }

      .cls-13 {
        fill: #bc3b9b;
      }

      .cls-14 {
        fill: #d37d42;
      }

      .cls-15 {
        fill: #a52d8c;
      }

      .cls-16 {
        fill: #bf006d;
      }

      .cls-17 {
        fill: #e28140;
      }

      .cls-18 {
        fill: #ba5a1a;
      }

      .cls-19 {
        fill: #e4674b;
      }

      .cls-20 {
        fill: #f25c33;
      }

      .cls-21 {
        fill: #e5935c;
      }

      .cls-22 {
        fill: #73e7ea;
      }

      .cls-23 {
        fill: #ffce99;
      }

      .cls-24 {
        fill: #cc9a75;
      }

      .cls-25 {
        fill: #a3795d;
      }

      .cls-26 {
        fill: #ffa05f;
      }

      .cls-27 {
        fill: #d66f29;
      }

      .cls-28 {
        fill: #ff9166;
      }

      .cls-29 {
        fill: #cc5453;
      }

      .cls-30 {
        fill: #874a13;
      }

      .cls-31 {
        fill: #00c5e5;
      }

      .cls-32 {
        fill: #0089ce;
      }

      .cls-33 {
        fill: #c15105;
      }

      .cls-34 {
        fill: #aa4500;
      }

      .cls-35 {
        fill: #4f2000;
      }

      .cls-36 {
        fill: #0093c6;
      }

      .cls-37 {
        fill: #bcb3a7;
      }

      .cls-38 {
        fill: #998f82;
      }

      .cls-39 {
        fill: #b0adb2;
      }

      .cls-40 {
        fill: #4cc125;
      }

      .cls-41 {
        fill: #e28f3b;
      }

      .cls-42 {
        fill: #f7aa4f;
      }

      .cls-43 {
        fill: #c9bfb3;
      }

      .cls-44 {
        fill: #0baa0b;
      }

      .cls-45 {
        fill: #c6c6c6;
      }

      .cls-46 {
        fill: #603822;
      }

      .cls-47 {
        fill: #7c360f;
      }

      .cls-48 {
        fill: #713391;
      }

      .cls-49 {
        fill: #aa214b;
      }

      .cls-50 {
        fill: #f25a8a;
      }

      .cls-51 {
        fill: #ffb08d;
      }

      .cls-52 {
        fill: #54280a;
      }

      .cls-53 {
        fill: #12dbdb;
      }

      .cls-54 {
        fill: #563217;
      }

      .cls-55 {
        fill: #c46c30;
      }

      .cls-56 {
        fill: #403c3d;
      }

      .cls-57 {
        fill: #131314;
      }

      .cls-58 {
        fill: #cc7032;
      }

      .cls-59 {
        fill: #3d1b04;
      }

      .cls-60 {
        fill: #e58f55;
      }

      .cls-61 {
        fill: #b9662e;
      }

      .cls-62 {
        fill: #6d4a2b;
      }

      .cls-63 {
        fill: #f4ece6;
      }

      .cls-64 {
        fill: #dd8644;
      }

      .cls-65 {
        fill: #c6524f;
      }

      .cls-66 {
        fill: #ffd110;
      }

      .cls-67 {
        fill: #7c522c;
      }

      .cls-68 {
        fill: #eae2da;
      }

      .cls-69 {
        fill: #b5a99e;
      }

      .cls-70 {
        fill: #844517;
      }

      .cls-71 {
        fill: #b54900;
      }

      .cls-72 {
        fill: #9e5e1e;
      }

      .cls-73 {
        fill: #321806;
      }
    </style>
  </defs>
  <g>
    <path class="cls-1" d="M147.49,51.37h25.6c-1.37-1.36-3.61-3.49-5.9-4.11l-.11,0c-.34-.12-13.48-.12-13.63-.07l-.39.15h0a16.13,16.13,0,0,0-5.57,4.07Z"/>
    <path class="cls-2" d="M178.26,21.27c0,8.77-8.1,14.7-17.88,14.7S143.7,29,143.7,20.41,150.59,5,160.38,5c4.39,0,7.32,4.28,11.26,5.36,4.82,1.31,6.62,6.08,6.62,10.93Z"/>
    <polygon class="cls-3" points="163.76 47.48 156.79 47.48 156.79 41.25 163.76 41.25 163.76 47.48 163.76 47.48"/>
    <path class="cls-3" d="M168.67,28.13a4.26,4.26,0,0,0,3.36,5.1,4.14,4.14,0,0,0,5-3.46,4.59,4.59,0,0,0-3.36-5.41,4.36,4.36,0,0,0-5,3.77Z"/>
    <path class="cls-3" d="M151.9,28.13a4.26,4.26,0,0,1-3.36,5.1,4.14,4.14,0,0,1-5-3.46,4.59,4.59,0,0,1,3.36-5.41,4.35,4.35,0,0,1,5,3.77Z"/>
    <path class="cls-3" d="M172.1,12.21a13,13,0,0,0-9.74-5.36h-.2V6.7l-1.88.07-1.89-.07v.15h-.19a13,13,0,0,0-9.75,5.36c-2.31,3.14-2.51,6.3-2.33,10.09.13,2.86.54,6.67.68,9.54,2.32,8.68,8.1,11,13.48,11s11.34-2.3,13.47-11c.15-2.87.55-5.87.69-8.74.18-3.79,0-7.75-2.34-10.89Z"/>
    <path class="cls-3" d="M167.08,47.22c-.77-.26-3.27-1.22-3.27-1.22a37.86,37.86,0,0,0-7,0s-2.44.91-3.37,1.2a9.88,9.88,0,0,0,6.82,2.14,10.13,10.13,0,0,0,6.81-2.07Z"/>
    <path class="cls-4" d="M159,34.08h0a.53.53,0,0,1-.49-.57c.07-1,.18-4.73.18-5.89a.53.53,0,0,1,.53-.53.53.53,0,0,1,.53.53c0,1.1-.1,4.9-.18,6a.53.53,0,0,1-.53.5Z"/>
    <path class="cls-2" d="M171.32,16.76a32.47,32.47,0,0,1-11.67,3.55C145.83,22,145.5,28,145.5,28s-3.89-2.37-2.32-10.39C145.43,6,160.9,1.33,168.3,6.34a16.55,16.55,0,0,1,5,5.09,17.24,17.24,0,0,1,2.78,9.68,18.44,18.44,0,0,1-3.13,8.76s.23-9.46-1.62-13.11Z"/>
    <path class="cls-2" d="M148.73,19a53.23,53.23,0,0,0-.87,10.91,18.48,18.48,0,0,1-3.12-8.76,13.64,13.64,0,0,1,.49-4.44c1.2.71,2.35,1.49,3.5,2.29Z"/>
    <path class="cls-2" d="M151,25.16a.55.55,0,0,1-.22-1.05,5.73,5.73,0,0,1,5,0,.54.54,0,0,1,.17.75c-.16.26-4.85.3-4.92.3Z"/>
    <path class="cls-2" d="M165.25,25.37a.53.53,0,0,1-.44-.23.54.54,0,0,1,.13-.76,6.55,6.55,0,0,1,5.1-.16.55.55,0,0,1,.19.75c-.15.26-4.87.4-5,.4Z"/>
    <path class="cls-2" d="M155.38,28.77a.52.52,0,0,1-.31-.1,4.34,4.34,0,0,0-4.17-.35.55.55,0,0,1-.7-.32.53.53,0,0,1,.32-.7,5.37,5.37,0,0,1,5.18.48.55.55,0,0,1,.13.76.56.56,0,0,1-.45.23Z"/>
    <path class="cls-2" d="M165.17,28.77a.53.53,0,0,1-.44-.23.54.54,0,0,1,.12-.76A5.4,5.4,0,0,1,170,27.3a.54.54,0,0,1,.32.7.56.56,0,0,1-.71.32,4.34,4.34,0,0,0-4.17.35.5.5,0,0,1-.31.1Z"/>
    <path class="cls-5" d="M155.46,36.3c1.38,3.37,8.52,2.28,8.9,0l-8.9,0Z"/>
    <path class="cls-4" d="M156.13,36.7c.81,1.19,3.06,1.33,3.69,1.33h0c1.37,0,3.47-.58,3.95-1.36l-7.65,0Zm3.7,2.14h0c-2.44-.1-4.12-.89-4.73-2.39a.4.4,0,0,1,.37-.55l8.9,0h0a.41.41,0,0,1,.4.47c-.26,1.57-2.73,2.49-4.93,2.51Z"/>
    <path class="cls-6" d="M102.16,299.43l-2.71-1.07v-3.8H93.66v3.8l-3.2,1.12c-2.85,1.33-3.76,2.17-4.67,4.38h21.15c-.93-2.27-1.83-3.08-4.78-4.43Z"/>
    <path class="cls-7" d="M86.62,282.65a3.31,3.31,0,0,1-2.52,3.9c-1.63.21-3.15-1.22-3.39-3.17s.88-3.71,2.52-3.91a3.31,3.31,0,0,1,3.39,3.18Z"/>
    <path class="cls-7" d="M106.11,282.65a3,3,0,1,0,3.39-3.18,3.3,3.3,0,0,0-3.39,3.18Z"/>
    <path class="cls-7" d="M107.36,266.88c-2.4-3.4-4.86-3.5-8.84-3.67H94.21c-4,.17-6.44.27-8.84,3.67s-2.87,4.29-2.66,8.4c.16,3.1-.35.92.93,9.56a13.15,13.15,0,0,0,12.72,11.4c4,0,10.88-2.32,12.73-11.4s.77-6.46.93-9.56c.21-4.11-.26-5-2.66-8.4Z"/>
    <path class="cls-8" d="M95.51,288.05h-.05a.52.52,0,0,1-.48-.58c.06-.74.17-3.67.17-4.56a.53.53,0,1,1,1.06,0c0,.85-.1,3.82-.17,4.66a.53.53,0,0,1-.53.48Z"/>
    <path class="cls-8" d="M96.17,292a5.49,5.49,0,0,1-4-1.36.54.54,0,0,1,0-.75.53.53,0,0,1,.75,0,4.85,4.85,0,0,0,3.7,1,3.77,3.77,0,0,0,2.61-.94.53.53,0,0,1,.74-.13.54.54,0,0,1,.14.74,4.55,4.55,0,0,1-3.41,1.39l-.58,0Z"/>
    <path class="cls-9" d="M91,282.57a1.77,1.77,0,1,1-1.75-2.07A1.93,1.93,0,0,1,91,282.57Z"/>
    <path class="cls-2" d="M91.58,279.37a.52.52,0,0,1-.4-.18,2.19,2.19,0,0,0-1.64-.69,2.8,2.8,0,0,0-1.93.7.52.52,0,0,1-.75,0,.53.53,0,0,1,0-.75,3.77,3.77,0,0,1,2.72-1A3.24,3.24,0,0,1,92,278.48a.54.54,0,0,1,0,.76.58.58,0,0,1-.35.13Z"/>
    <path class="cls-2" d="M101.51,279.31a.57.57,0,0,1-.33-.11.54.54,0,0,1-.09-.75,3.05,3.05,0,0,1,2.21-1,3.16,3.16,0,0,1,2.48,1,.53.53,0,0,1-.77.73,2.1,2.1,0,0,0-1.66-.62,2,2,0,0,0-1.42.59.55.55,0,0,1-.42.2Z"/>
    <path class="cls-9" d="M105.16,282.57a1.77,1.77,0,1,1-1.75-2.07,1.93,1.93,0,0,1,1.75,2.07Z"/>
    <path class="cls-10" d="M90.61,287.1c0,.94-1.1,1.7-2.46,1.7s-2.47-.76-2.47-1.7,1.11-1.71,2.47-1.71,2.46.77,2.46,1.71Z"/>
    <path class="cls-10" d="M107,287.1c0,.94-1.1,1.7-2.46,1.7s-2.47-.76-2.47-1.7,1.11-1.71,2.47-1.71,2.46.77,2.46,1.71Z"/>
    <path class="cls-11" d="M99.19,281.13a6.89,6.89,0,0,0,1.1,3.11,3.18,3.18,0,0,0,2.68,1.21,4.9,4.9,0,0,0,4.92-5,6.11,6.11,0,0,0-2.83-.4c-3.06,0-5.6.65-5.87,1.1Zm3.78,5.38a4.23,4.23,0,0,1-3.55-1.65,7.93,7.93,0,0,1-1.3-3.76c0-2.11,6.87-2.13,6.94-2.13,2.62,0,3.89.45,3.89,1.38a5.94,5.94,0,0,1-6,6.16Z"/>
    <path class="cls-11" d="M84.58,280.43a4.9,4.9,0,0,0,4.92,5h0a3.18,3.18,0,0,0,2.68-1.21,6.79,6.79,0,0,0,1.1-3.14c-.17-.43-2.66-1.1-5.73-1.1a6.25,6.25,0,0,0-3,.43Zm4.92,6.08h0a5.94,5.94,0,0,1-6-6.16c0-.35,0-1.41,4-1.41.28,0,6.8,0,6.8,2.16a7.82,7.82,0,0,1-1.3,3.76,4.23,4.23,0,0,1-3.55,1.65Z"/>
    <path class="cls-11" d="M93.9,282.26a.52.52,0,0,1-.44-.25.51.51,0,0,1,.15-.73c1-.63,4.33-.5,5.16-.15a.53.53,0,0,1,.28.7.54.54,0,0,1-.7.28,9.11,9.11,0,0,0-4.16.06.52.52,0,0,1-.29.09Z"/>
    <path class="cls-9" d="M81.33,275.4c0-6.48,1.71-10.2,6.89-13,7.13-3.91,19.16-2.86,23,6.94,3.12,8-2.27,14.69-2.27,14.69s.08-10.7-23.15-11.9c-1.91,5.35-2,13.15-2,13.15-1.38-1.6-2.5-7.24-2.5-9.84Z"/>
    <polygon class="cls-12" points="164.05 174.8 156.98 174.8 156.98 166.15 164.05 166.15 164.05 174.8 164.05 174.8"/>
    <path class="cls-13" d="M174.16,177.14c-.83-2.43-4.08-4.48-8.6-5.91l-1.51-.54a3.92,3.92,0,0,1-7.07,0l-1.56.61c-4.51,1.43-7.1,3.43-8.29,5.84Z"/>
    <path class="cls-12" d="M168.55,154.34a4.26,4.26,0,0,0,3.35,5.1,4.13,4.13,0,0,0,5-3.46,4.58,4.58,0,0,0-3.35-5.41,4.35,4.35,0,0,0-5,3.77Z"/>
    <path class="cls-12" d="M152.5,154.34a4.26,4.26,0,0,1-3.35,5.1,4.13,4.13,0,0,1-5-3.46,4.58,4.58,0,0,1,3.35-5.41,4.35,4.35,0,0,1,5,3.77Z"/>
    <path class="cls-12" d="M172,137.27a12.58,12.58,0,0,0-9.46-5.2h-.2v-.14l-1.83.07-1.84-.07v.14h-.19a12.58,12.58,0,0,0-9.47,5.2c-2.24,3.06-2.54,6.9-2.37,10.58.14,2.79.63,7.28.77,10.06,2.25,8.43,7.86,9.88,13.09,9.88s11-1.45,13.08-9.88c.14-2.78.63-7.27.77-10.06.17-3.68-.12-7.52-2.37-10.58Z"/>
    <path class="cls-9" d="M155,153a1.59,1.59,0,1,1-1.57-1.87A1.74,1.74,0,0,1,155,153Z"/>
    <path class="cls-9" d="M169.29,153a1.59,1.59,0,1,1-1.57-1.87,1.74,1.74,0,0,1,1.57,1.87Z"/>
    <path class="cls-9" d="M151.17,149.58a.54.54,0,0,1-.36-.14.53.53,0,0,1,0-.74,4.06,4.06,0,0,1,3-.9,3.4,3.4,0,0,1,2.35.93.52.52,0,0,1-.1.73.51.51,0,0,1-.73-.09,2.31,2.31,0,0,0-1.57-.52,3,3,0,0,0-2.19.57.51.51,0,0,1-.38.16Z"/>
    <path class="cls-14" d="M159.68,158.5h0a.49.49,0,0,1-.48-.52c.07-.89.17-4.37.17-5.43a.53.53,0,0,1,1,0c0,1-.1,4.51-.18,5.5a.51.51,0,0,1-.52.45Z"/>
    <path class="cls-14" d="M157,161a4.41,4.41,0,0,0,3.37,1.36,4.9,4.9,0,0,0,3.82-1.49L157,161Zm3.37,2.23h0a4.79,4.79,0,0,1-4.55-2.46.43.43,0,0,1,.39-.62l8.63-.17a.47.47,0,0,1,.34.16.45.45,0,0,1,.1.35c-.31,1.72-2.74,2.74-4.91,2.74Z"/>
    <path class="cls-9" d="M170,149.58a.52.52,0,0,1-.38-.16,3,3,0,0,0-2.23-.57,2.28,2.28,0,0,0-1.52.51.52.52,0,0,1-.84-.62,3.24,3.24,0,0,1,2.3-.93,4,4,0,0,1,3.05.89.52.52,0,0,1,0,.74.54.54,0,0,1-.36.14Z"/>
    <path class="cls-9" d="M153.83,162.3a25.59,25.59,0,0,1,3.87-.73,26.92,26.92,0,0,1,9.05.8,1.37,1.37,0,0,0-.08-1.59c-.75-.88-2.26-1.66-6.38-1.66-3.74,0-5.38.53-6.26,1.68a2.1,2.1,0,0,0-.2,1.5Z"/>
    <path class="cls-9" d="M173.78,152.79c-.78.45-.72-.66-.78,0a25.71,25.71,0,0,1-1.27,6.11,7.68,7.68,0,0,1-3,4.18c-2.47,1.82-6.32,2.38-6.9,2.11-.24-.11-.22-.6-.35-.79a1.43,1.43,0,0,0-1.52-.53,1.36,1.36,0,0,0-.85.63c-.15.25,0,.62-.27.73-.48.2-3.57-.09-6.28-2a9.92,9.92,0,0,1-3.63-4.77,26.37,26.37,0,0,1-1.15-5.26c-.22-2.77-1.1-1.73-1.12.41a23.73,23.73,0,0,0,1.5,7.56c1.77,4.07,5.47,7.48,12.63,7.46,6.72,0,10.34-3.61,11.85-7.61a21.87,21.87,0,0,0,1.23-4.59c.11-1.24.66-4.07-.1-3.64Z"/>
    <path class="cls-9" d="M147.72,150.68c.1-2-.27-6.4,2.41-7.55,1-.44,2.71-1.84,3.7-2.15,4.94-1.56,1.39-.14,7.93-1.2,3.65-.59,7.34,2,9.31,2.26,1.56.24,2.31,4.4,2.13,8,0,.87-.26,4-.47,5.74,0,.2.27.53.76.53s.56-1.23.77-2.76a58.38,58.38,0,0,0,.55-10.95c-.06-1.23.1-5.36-2.39-6.06-8-2.25-26.43-4.41-26.43,6.67,0,4.91.56,12.68,1.06,13s.85-.38.84-.85c0-.72-.21-3.81-.17-4.69Z"/>
    <path class="cls-9" d="M172.61,142.66a4.17,4.17,0,0,1-3,.72c-1.49-.23-1.54-1.36-.58-2.35-1.8,2.16-8.88,4.6-11.9,3.47a1.3,1.3,0,0,1-.57-2c-.43.42-4.27,3.21-6.55,2.07-1.07-.53,0-1.9,0-1.9-1.34,1.2-4.25,2.22-5.47.85s.36-3.28,1.59-4a1.31,1.31,0,0,1-1.45-.65c-.79-1.65,2.4-4.89,7.89-6.77,8-2.72,15.66-.64,18.52,1.21,1.42.91,3.28,2.53,3.66,4.34a4.56,4.56,0,0,1-2.13,5.07Z"/>
    <path class="cls-15" d="M160.6,175.1h-.11a6,6,0,0,1-5.3-3.32l.78-.35a5.19,5.19,0,0,0,4.54,2.85,5,5,0,0,0,4.55-2.8l.78.37a5.86,5.86,0,0,1-5.24,3.25Z"/>
    <path class="cls-16" d="M299.93,239.13c-1.18-3.47-1.81-4.33-5.29-6l-5.85,1.91-5.86-1.85c-3.39,1.61-4,2.52-5.18,5.91Z"/>
    <path class="cls-9" d="M272.2,214.21c-.18,11.62,7.71,14.87,16.61,14.87s16.9-2.14,16.61-14.87c-.06-2.3-.53-11.23-2.48-13-7.08-6.27-23.88-5.36-28.39.64-.78,1-2.32,11-2.35,12.32"/>
    <polygon class="cls-17" points="291.73 237.01 285.94 237.01 285.94 228.14 291.73 228.14 291.73 237.01 291.73 237.01"/>
    <path class="cls-17" d="M294.64,233.16l-2.91-1.1s-2.33,1-2.94,1.19c-.62-.19-2.85-1.19-2.85-1.19l-3,1.16c-3.41,1.62,5.91,5.35,5.91,5.35s9.3-3.76,5.8-5.41Z"/>
    <path class="cls-17" d="M279,216.33a3,3,0,1,1-3.39-3.17c1.63-.21,3.15,1.22,3.39,3.17Z"/>
    <path class="cls-17" d="M298.53,216.33c-.24,2,.88,3.71,2.52,3.91a3.63,3.63,0,0,0,.87-7.08c-1.63-.21-3.15,1.22-3.39,3.17Z"/>
    <path class="cls-17" d="M299.83,200.55c-2.4-3.4-4.86-3.51-8.83-3.67h-4.32c-4,.16-6.44.27-8.84,3.67s-1.49,4.29-1.3,8.39c.14,3.11-1.71.93-.43,9.56a13.15,13.15,0,0,0,12.73,11.4c3.94,0,10.88-2.31,12.72-11.4s-.57-6.45-.43-9.56c.19-4.1,1.1-5-1.3-8.39"/>
    <path class="cls-18" d="M288,221.68h0a.51.51,0,0,1-.45-.54c.07-.74.17-3.67.17-4.57a.49.49,0,0,1,1,0c0,.86-.1,3.83-.17,4.66a.49.49,0,0,1-.49.45Z"/>
    <path class="cls-18" d="M288.54,225.62h.1a4.59,4.59,0,0,0,3.92-1.91.49.49,0,0,0-.83-.52,3.74,3.74,0,0,1-3.1,1.44,3.54,3.54,0,0,1-2.77-.93.49.49,0,0,0-.68-.13.48.48,0,0,0-.13.68,4.33,4.33,0,0,0,3.49,1.37Z"/>
    <path class="cls-9" d="M283.51,216.24a1.77,1.77,0,1,1-1.74-2.07,1.93,1.93,0,0,1,1.74,2.07Z"/>
    <path class="cls-9" d="M284,212.91a.53.53,0,0,1-.4-.18,2.17,2.17,0,0,0-1.63-.69,2.72,2.72,0,0,0-1.94.7.53.53,0,0,1-.75,0,.53.53,0,0,1,0-.75,3.81,3.81,0,0,1,2.73-1,3.26,3.26,0,0,1,2.41,1.05.55.55,0,0,1-.05.76.58.58,0,0,1-.35.13Z"/>
    <path class="cls-9" d="M294.14,212.91a.57.57,0,0,1-.33-.11.54.54,0,0,1-.09-.75,3.05,3.05,0,0,1,2.21-1,3.18,3.18,0,0,1,2.48,1,.53.53,0,1,1-.77.73,2.16,2.16,0,0,0-1.66-.63,2,2,0,0,0-1.42.59.53.53,0,0,1-.42.21Z"/>
    <path class="cls-9" d="M297.63,216.24a1.77,1.77,0,1,1-1.75-2.07,1.93,1.93,0,0,1,1.75,2.07Z"/>
    <path class="cls-9" d="M304.93,207.36c-.56-7.06-4.83-11.47-10.36-13-8.11-2.2-19.44-.07-22.23,9.8A13.11,13.11,0,0,0,276,217.44c-.44-3.17,2.33-8.18,13.49-10,3.42-.56,7.36-1.43,9.35-3.45-.35,6.79,2.83,11.15,2.67,13.92,4.31-4.1,3.46-9.83,3.41-10.54Z"/>
    <path class="cls-19" d="M280.62,222.46c-1.36,0-2.47-.76-2.47-1.7s1.11-1.7,2.47-1.7,2.47.76,2.47,1.7-1.11,1.7-2.47,1.7"/>
    <path class="cls-19" d="M297,222.46c-1.36,0-2.46-.76-2.46-1.7s1.1-1.7,2.46-1.7,2.47.76,2.47,1.7-1.11,1.7-2.47,1.7"/>
    <path class="cls-20" d="M275.5,222.51h-.17a.74.74,0,0,1-.75-.75v-2a.74.74,0,0,1,.75-.74h.17a.75.75,0,0,1,.75.74v2a.75.75,0,0,1-.75.75Z"/>
    <path class="cls-20" d="M302.17,222.51h.18a.74.74,0,0,0,.74-.75v-2a.74.74,0,0,0-.74-.74h-.18a.74.74,0,0,0-.74.74v2a.74.74,0,0,0,.74.75Z"/>
    <polygon class="cls-3" points="35.23 238.71 29.44 238.71 29.44 229.76 35.23 229.76 35.23 238.71 35.23 238.71"/>
    <path class="cls-2" d="M50.54,216.3c0,10.65-12.95,13.58-18.42,13.58-6.06,0-18.42-2.93-18.42-13.58s6.79-21.4,18.42-21.4c13.26,0,18.42,10.74,18.42,21.4Z"/>
    <path class="cls-3" d="M43.33,202.17c-2.4-3.41-4.86-3.51-8.83-3.68H30.18c-4,.17-6.44.27-8.84,3.68s-1.49,4.29-1.3,8.39c.14,3.11-1.42.52-.43,9.56,1,8.68,8.78,11.4,12.73,11.4s11.17-2.26,12.72-11.4-.2-11.61-1.11-14.58c-.48-1.56,1.78,0-.62-3.37Z"/>
    <path class="cls-21" d="M31.48,223.3h0a.51.51,0,0,1-.45-.54c.07-.74.17-3.67.17-4.57a.49.49,0,0,1,1,0c0,.85-.1,3.82-.17,4.66a.5.5,0,0,1-.49.45Z"/>
    <path class="cls-21" d="M32.14,227.19a5.45,5.45,0,0,1-3.95-1.34.48.48,0,0,1,0-.69.49.49,0,0,1,.7,0,4.82,4.82,0,0,0,3.73,1,3.78,3.78,0,0,0,2.63-.95.5.5,0,1,1,.82.56,4.53,4.53,0,0,1-3.39,1.37l-.57,0Z"/>
    <path class="cls-9" d="M23.53,214.83a.54.54,0,0,1-.49-.32.54.54,0,0,1,.29-.7,5.54,5.54,0,0,1,4.85,0,.53.53,0,1,1-.56.9,4.52,4.52,0,0,0-3.88.08.52.52,0,0,1-.21,0Z"/>
    <path class="cls-9" d="M37.22,214.84a.54.54,0,0,1-.44-.23.53.53,0,0,1,.13-.74,6.39,6.39,0,0,1,5-.16.53.53,0,0,1,.19.73.54.54,0,0,1-.73.19,5.46,5.46,0,0,0-3.83.11.49.49,0,0,1-.3.1Z"/>
    <path class="cls-2" d="M41.62,205.54s-2.2,2.35-9,4C18.15,213.06,19,215.78,19,215.78s-3.68-2.26-1-10.24c3.65-10.71,20-10.94,24-5.86,8.46,10.8,3.14,19.7,3.14,19.7s0-7.58-3.56-13.84Z"/>
    <path class="cls-9" d="M27.57,218.16a.5.5,0,0,1-.31-.1,4.25,4.25,0,0,0-4.08-.35.53.53,0,0,1-.37-1,5.29,5.29,0,0,1,5.07.47.54.54,0,0,1-.31,1Z"/>
    <path class="cls-9" d="M37.13,218.16a.55.55,0,0,1-.43-.22.54.54,0,0,1,.12-.75,5.3,5.3,0,0,1,5.07-.47.53.53,0,1,1-.37,1,4.25,4.25,0,0,0-4.08.35.5.5,0,0,1-.31.1Z"/>
    <path class="cls-22" d="M42.94,239.13c-.94-2.32-1.83-3.13-4.81-4.5l-2.9-1.07s-2.33,1.19-2.94,1.37a30.64,30.64,0,0,1-2.85-1.37l-3,1.12c-2.88,1.34-3.78,2.19-4.7,4.45Z"/>
    <path class="cls-23" d="M40.6,280.15a4.38,4.38,0,0,0,3.45,5.24,4.24,4.24,0,0,0,5.11-3.55,4.7,4.7,0,0,0-3.45-5.56,4.47,4.47,0,0,0-5.11,3.87Z"/>
    <path class="cls-23" d="M24.1,280.15a4.38,4.38,0,0,1-3.45,5.24,4.25,4.25,0,0,1-5.12-3.55A4.71,4.71,0,0,1,19,276.28a4.47,4.47,0,0,1,5.11,3.87Z"/>
    <path class="cls-23" d="M44.15,263.41a13,13,0,0,0-9.73-5.35s-1.06-.09-2.1-.09-2.06.09-2.06.09a13,13,0,0,0-9.73,5.35c-2.31,3.14-2.62,7.1-2.44,10.89.14,2.86.65,6.66.79,9.52C21.2,292.5,27,294,32.34,294s11.33-1.48,13.46-10.16c.14-2.86.65-6.66.79-9.52.18-3.79-.13-7.75-2.44-10.89Z"/>
    <polygon class="cls-23" points="35.85 300.99 28.82 300.99 28.82 292.38 35.85 292.38 35.85 300.99 35.85 300.99"/>
    <path class="cls-24" d="M31.48,284.37h0a.51.51,0,0,1-.5-.5c.07-.85.18-4.17.18-5.19a.55.55,0,0,1,1.08,0c0,1-.11,4.31-.18,5.25a.52.52,0,0,1-.54.44Z"/>
    <path class="cls-5" d="M32.44,289.5a4.87,4.87,0,0,1-3.52-1.28.58.58,0,0,1,0-.76.44.44,0,0,1,.68,0c.7.77,5.38.32,5.64-.23a.47.47,0,0,1,.66-.22.59.59,0,0,1,.2.73,3.43,3.43,0,0,1-2.67,1.69,6.2,6.2,0,0,1-1,.08Z"/>
    <path class="cls-2" d="M26.63,278.72A1.78,1.78,0,0,1,25,280.63a1.94,1.94,0,0,1,0-3.83,1.79,1.79,0,0,1,1.61,1.92Z"/>
    <path class="cls-25" d="M22.76,275.2a.57.57,0,0,1-.37-.14.56.56,0,0,1,0-.77,4.68,4.68,0,0,1,5.21-.47.53.53,0,0,1,.14.75.54.54,0,0,1-.75.13,3.62,3.62,0,0,0-3.82.34.53.53,0,0,1-.39.16Z"/>
    <path class="cls-25" d="M41.45,275.61a.56.56,0,0,1-.39-.17c-.82-.86-2.79-.84-4,.05a.54.54,0,0,1-.76-.11.53.53,0,0,1,.11-.75c1.62-1.23,4.19-1.19,5.39.07a.53.53,0,0,1,0,.76.51.51,0,0,1-.37.15Z"/>
    <path class="cls-2" d="M37.41,279.51a.64.64,0,0,1-.2,0,.54.54,0,0,1-.3-.7,2.5,2.5,0,0,1,2.53-1.65,2.1,2.1,0,0,1,1.9,1.74.54.54,0,1,1-1.05.21,1,1,0,0,0-.95-.88,1.42,1.42,0,0,0-1.43,1,.54.54,0,0,1-.5.33Z"/>
    <path class="cls-24" d="M35.91,285.66a7.85,7.85,0,0,0-3.57-.71,7.85,7.85,0,0,0-3.57.71,4.35,4.35,0,0,0-1.86,1.81.4.4,0,0,0,.41.55h10a.4.4,0,0,0,.41-.55,4.35,4.35,0,0,0-1.86-1.81Z"/>
    <path class="cls-24" d="M34.52,291.93s-.81-.25-.93-.75-.78-.62-1.25-.62-1.11.12-1.24.62-.93.75-.93.75c-8.43,1.32-11-6.95-11-6.95,2.24,10.2,13.16,9.64,13.16,9.64s10.93.56,13.17-9.64c0,0-2.51,8.5-11,6.95Z"/>
    <path class="cls-24" d="M19.23,277.63c.16-3.5.44-11.52,3.24-12.7,3.44-1.44,3.72,3.38,9.69,3.38s6.75-4.34,10.05-3.55c2.36.56,3,6.16,3.07,10.74,0,.94.08,1.89.13,2.83,0,.55.07,1.1.1,1.66,0,.22.07.82.36.76s.35-1.27.39-1.53a44.61,44.61,0,0,0,.29-5.54c0-3.4,1-9.94-5.06-14-3.7-2.51-11.36-2.76-15.62-1.34A11.41,11.41,0,0,0,19,264.89c-1.16,3.3-1.13,5.87-.75,12.39,0,.71.13,1.42.22,2.12a12.78,12.78,0,0,0,.24,1.4c.24,1,.58.29.56-.33,0-1-.08-1.89,0-2.84Z"/>
    <path class="cls-1" d="M45.64,303.86a12.74,12.74,0,0,0-7.83-6.27c-.72-.25-1.36-.46-2-.64a4.17,4.17,0,0,1-7,0c-.74.22-1.56.51-2.49.87A11.9,11.9,0,0,0,19,303.86Z"/>
    <path class="cls-2" d="M113.63,33.11c-2.83,11.13-11.57,12.47-17.19,12.43-3.92,0-14.6.08-17.19-12.43a24.06,24.06,0,0,1-.68-6.95c0-9.29,5.19-19.58,17.87-19.58,13.73,0,17.87,10.23,17.87,19.48,0,4.76-.36,5.78-.68,7.05"/>
    <polygon class="cls-26" points="99.65 49.43 93.86 49.43 93.86 41.34 99.65 41.34 99.65 49.43 99.65 49.43"/>
    <path class="cls-26" d="M102.55,46.36l-2.9-1.1a23.73,23.73,0,0,1-3,1.84,21.78,21.78,0,0,1-2.84-1.84l-3,1.16c-1.72.81-.07,1,1.72,1.87s4.1,1.82,4.1,1.82A41.35,41.35,0,0,0,101,48.27c1.71-.92,3.34-1.08,1.59-1.91Z"/>
    <path class="cls-26" d="M107.75,13.75c-2.4-3.4-4.87-3.51-8.84-3.67H94.59c-4,.16-6.43.27-8.83,3.67s-1.49,4.29-1.3,8.39c.14,3.11-1.72.93-.43,9.56A13.15,13.15,0,0,0,96.75,43.1c3.94,0,10.88-2.31,12.73-11.4s-.58-6.45-.43-9.56c.19-4.1,1.1-5-1.3-8.39"/>
    <path class="cls-27" d="M95.89,34.88h0a.51.51,0,0,1-.45-.54c.07-.74.18-3.67.18-4.57a.49.49,0,1,1,1,0c0,.86-.1,3.83-.18,4.66a.48.48,0,0,1-.49.45Z"/>
    <path class="cls-9" d="M91.43,29.44a1.77,1.77,0,1,1-3.5,0,1.77,1.77,0,1,1,3.5,0Z"/>
    <path class="cls-9" d="M91.88,26.11a.55.55,0,0,1-.4-.18,2.13,2.13,0,0,0-1.63-.69,2.7,2.7,0,0,0-1.93.7.53.53,0,0,1-.75,0,.52.52,0,0,1,0-.75,3.77,3.77,0,0,1,2.72-1,3.24,3.24,0,0,1,2.41,1,.53.53,0,0,1,0,.75.56.56,0,0,1-.36.14Z"/>
    <path class="cls-9" d="M102.05,26.11a.54.54,0,0,1-.33-.12.53.53,0,0,1-.09-.74,3.07,3.07,0,0,1,2.21-1,3.17,3.17,0,0,1,2.49,1,.53.53,0,0,1,0,.75.53.53,0,0,1-.75,0,2.18,2.18,0,0,0-1.67-.63,2.07,2.07,0,0,0-1.42.59.51.51,0,0,1-.42.21Z"/>
    <path class="cls-9" d="M105.55,29.44a1.77,1.77,0,1,1-1.75-2.07,1.94,1.94,0,0,1,1.75,2.07Z"/>
    <path class="cls-28" d="M91,34c0,.94-1.1,1.7-2.46,1.7s-2.47-.76-2.47-1.7,1.1-1.7,2.47-1.7S91,33,91,34Z"/>
    <path class="cls-28" d="M107.41,34c0,.94-1.1,1.7-2.47,1.7s-2.46-.76-2.46-1.7,1.1-1.7,2.46-1.7,2.47.76,2.47,1.7Z"/>
    <path class="cls-5" d="M92.94,37.07c1.41,3.42,7,2.32,7.39,0l-7.39,0Z"/>
    <path class="cls-27" d="M93.62,37.48a3.54,3.54,0,0,0,2.93,1.35h0a3.91,3.91,0,0,0,3.19-1.38l-6.12,0Zm2.93,2.17h0a4.08,4.08,0,0,1-4-2.43.41.41,0,0,1,.37-.56l7.39,0h0a.41.41,0,0,1,.31.14.4.4,0,0,1,.09.33c-.26,1.59-2.33,2.55-4.18,2.55Z"/>
    <path class="cls-2" d="M105.12,10.6C101.2,8.12,95.55,7.87,91,9.28,88.57,10,80.73,13.73,79.94,21c-.86,5.55,1.38,11.73,1.38,11.73.52-2.64,1.8-6.25,8.67-9.2,9.62-4.12,11.62-8.35,11.62-8.35a32.48,32.48,0,0,1,7.62,18.61s4.22-1,4.33-8.67l-.32-.95c.51-3.8-1.75-9.53-8.12-13.56"/>
    <path class="cls-29" d="M96.74,25.19a.93.93,0,1,1,.92-.93.93.93,0,0,1-.92.93"/>
    <path class="cls-13" d="M107.5,51.37c-1-2.69-1.82-3.53-5-5,0,0-5.23,1.72-5.85,1.91l-5.85-1.85c-3,1.45-3.88,2.33-4.85,4.95Z"/>
    <polygon class="cls-30" points="35.87 49.59 28.8 49.59 28.8 40.93 35.87 40.93 35.87 49.59 35.87 49.59"/>
    <path class="cls-30" d="M43.73,12a11.62,11.62,0,0,0-9.32-4.7c-1.47-.06-2.89-.07-4.22,0A12,12,0,0,0,20.87,12c-3.79,5.12-2,13.29-2,18.77,0,9,8,12,13.27,12s13.76-3.11,13.76-12c0-5.46,1.74-13.2-2.13-18.77Z"/>
    <path class="cls-30" d="M40.39,28.23a4.46,4.46,0,0,0,3.51,5.34A4.32,4.32,0,0,0,49.09,30a4.78,4.78,0,0,0-3.51-5.66,4.54,4.54,0,0,0-5.19,3.93Z"/>
    <path class="cls-30" d="M23.46,28.24c.47,2.63-.32,4.81-2.7,5.28A4.27,4.27,0,0,1,15.61,30a4.74,4.74,0,0,1,3.48-5.61c2.38-.47,3.91,1.27,4.37,3.9Z"/>
    <path class="cls-2" d="M26.83,27.07A1.77,1.77,0,0,1,25.23,29a1.92,1.92,0,0,1,0-3.79,1.77,1.77,0,0,1,1.6,1.9Z"/>
    <path class="cls-2" d="M40.7,27.07a1.62,1.62,0,1,1-1.6-1.9,1.77,1.77,0,0,1,1.6,1.9Z"/>
    <path class="cls-8" d="M30.91,33.13h0a.51.51,0,0,1-.49-.53c.07-.91.18-4.46.18-5.54a.53.53,0,0,1,1.06,0c0,1-.1,4.6-.18,5.61a.52.52,0,0,1-.53.46Z"/>
    <path class="cls-2" d="M26.93,40.86a4.58,4.58,0,0,0,2.26,2.35,7.05,7.05,0,0,0,3.15.71,7.46,7.46,0,0,0,3.28-.84,4.62,4.62,0,0,0,2.17-2.43l.6-1.53c-.47.18-1.38-.18-1.62.43a1.57,1.57,0,0,1-1.93,1,2.21,2.21,0,0,1-1.36-2.16c0-.47-.67-.3-1.14-.32s-1.08-.14-1.15.32c-.13.88-.27,2.2-1.71,2.2A1.79,1.79,0,0,1,28,39.53c-.26-.59-1.16,0-1.71-.26l.69,1.59Z"/>
    <path class="cls-5" d="M27.63,36c1.78,3.63,8.34,2.35,8.79-.17L27.63,36Z"/>
    <path class="cls-8" d="M28.43,36.45a4.5,4.5,0,0,0,3.44,1.38,5,5,0,0,0,3.88-1.52l-7.32.14Zm3.44,2.26h0a4.88,4.88,0,0,1-4.64-2.49.44.44,0,0,1,.39-.64l8.79-.17a.44.44,0,0,1,.35.16.47.47,0,0,1,.1.36c-.32,1.74-2.79,2.78-5,2.78Z"/>
    <path class="cls-2" d="M38.37,35.45c-1.11-1.72-4.19-.92-5.69-1-.14,0-.55,0-.69,0-1.5.08-4.7-.69-5.79,1-1,1.58.1,4.27.58,5.13s2.3,1.57,1.25-1a4.39,4.39,0,0,1-.36-2.11c.13-1.26,1.24-1.29,3.65-1.16h2c2.38-.17,3.42-.13,3.55,1.33a4.57,4.57,0,0,1-.25,2.14c-.95,2.56,1,1.22,1.3.39s1.52-3.09.41-4.8Z"/>
    <path class="cls-2" d="M41.79,23.44a.61.61,0,0,0,.39-.13.43.43,0,0,0,0-.68A5,5,0,0,0,39,21.77a4,4,0,0,0-2.54.82.44.44,0,0,0,.09.68c.25.16,5.11.17,5.26.17Z"/>
    <path class="cls-2" d="M22.83,23.44a.61.61,0,0,1-.39-.13.43.43,0,0,1,0-.68,5,5,0,0,1,3.23-.86,4.05,4.05,0,0,1,2.55.82.44.44,0,0,1-.1.68c-.25.16-5.11.17-5.26.17Z"/>
    <path class="cls-31" d="M46.14,51.37c-1.28-1.64-3.61-3.72-8.76-5.35l-1.51-1-3.53,1.88L28.8,45l-1.56,1.09c-5.14,1.63-7.44,3.67-8.7,5.29Z"/>
    <path class="cls-32" d="M28.67,50.73l-1.5-4.17a.27.27,0,0,1,.16-.35.27.27,0,0,1,.35.17l1.24,3.42,3.24-2.71a.27.27,0,0,1,.35.42l-3.84,3.22Z"/>
    <path class="cls-32" d="M36,50.72l-3.83-3.21a.26.26,0,0,1,0-.38.28.28,0,0,1,.39,0l3.23,2.72L37,46.42a.27.27,0,1,1,.51.19L36,50.72Z"/>
    <path class="cls-33" d="M203.24,38.42a2.19,2.19,0,0,1,.09,2.42,3.82,3.82,0,0,0,.6,4.55,2.4,2.4,0,0,1,.69,2.11,4.6,4.6,0,0,0-.06.52,3.15,3.15,0,0,0,.74,3.35h37.86A4.74,4.74,0,0,0,244.68,48c0-.2,0-.41-.08-.61a2.15,2.15,0,0,1,.68-2,3.81,3.81,0,0,0,.29-5.06,1.1,1.1,0,0,1,.06-1.53,3.73,3.73,0,0,0,.29-4.9,1.87,1.87,0,0,1-.25-2,3.39,3.39,0,0,0-1-4.36,1.87,1.87,0,0,1-.84-2A3.68,3.68,0,0,0,242.75,22a1.76,1.76,0,0,1-.68-1.7,4.2,4.2,0,0,0-2.19-4.55,1.82,1.82,0,0,1-.92-1.53,4.17,4.17,0,0,0-4.13-4.11,1.71,1.71,0,0,1-1.44-.94c-1.07-2.11-2.3-2.63-3.81-2.59a2.81,2.81,0,0,0-1.45.4,1.71,1.71,0,0,1-2-.21,2.68,2.68,0,0,0-2.12-.6,2.44,2.44,0,0,0-1.35.6,1.68,1.68,0,0,1-1.83.23,2.87,2.87,0,0,0-.94-.26C218.28,6.54,217.05,7,216,9a2.27,2.27,0,0,1-1.78,1.13A4.15,4.15,0,0,0,210.29,14a2.26,2.26,0,0,1-1.1,1.81,4.2,4.2,0,0,0-2.05,4.29,2.22,2.22,0,0,1-.76,2,3.68,3.68,0,0,0-1,3.26,2.24,2.24,0,0,1-.85,2.24,3.39,3.39,0,0,0-1,4.18,2.35,2.35,0,0,1-.29,2.3,3.78,3.78,0,0,0,0,4.35Z"/>
    <path class="cls-23" d="M214.77,29.86c.24,1.95-.88,3.7-2.51,3.9a3.31,3.31,0,0,1-3.39-3.17,3,3,0,1,1,5.9-.73Z"/>
    <path class="cls-23" d="M234.21,29.86c-.24,1.95.88,3.7,2.51,3.9a3.31,3.31,0,0,0,3.39-3.17c.24-1.95-.88-3.7-2.51-3.9a3.31,3.31,0,0,0-3.39,3.17Z"/>
    <path class="cls-23" d="M234.53,17.75c-2.39-3.39-4.82-3.72-8.79-3.88l-3.51.54c-4,.17-5.47-.39-7.86,3s-2.29,1-2.1,5.1c.14,3.1-1.71.92-.43,9.54a13.12,13.12,0,0,0,12.7,11.37c3.93,0,10.85-2.31,12.69-11.37s-.57-6.44-.43-9.54c.19-4.1.13-1.36-2.27-4.76Z"/>
    <polygon class="cls-23" points="226.95 50.86 222.12 50.86 222.12 42.01 226.95 42.01 226.95 50.86 226.95 50.86"/>
    <path class="cls-21" d="M223.68,35.21h0a.49.49,0,0,1-.45-.53c.07-.74.17-3.67.17-4.56a.49.49,0,1,1,1,0c0,.85-.1,3.81-.17,4.65a.49.49,0,0,1-.49.44Z"/>
    <path class="cls-34" d="M215.34,26.12a.55.55,0,0,1-.43-.22.54.54,0,0,1,.11-.74c1-.73,4-1,5,0a.53.53,0,0,1,0,.75.53.53,0,0,1-.75,0c-.65-.64-3-.43-3.66,0a.51.51,0,0,1-.31.11Z"/>
    <path class="cls-34" d="M229.51,26.06a.54.54,0,0,1-.3-1,5.56,5.56,0,0,1,5.27,0,.54.54,0,0,1,.14.74.53.53,0,0,1-.74.15,4.48,4.48,0,0,0-4.08,0,.52.52,0,0,1-.29.09Z"/>
    <path class="cls-33" d="M214.19,23a4.86,4.86,0,0,0,4.42-3,1.32,1.32,0,0,1,1.59-.88,5.71,5.71,0,0,0,4.34-.64,1.32,1.32,0,0,1,1.85.39,4.86,4.86,0,0,0,4.86,1.93,1.26,1.26,0,0,1,1.44.82,3.56,3.56,0,0,0,3.05,2.53.84.84,0,0,1,.73.71c.15,1,.67,3.71,2.1,2.26,1-1,.28-4.19.14-5.36-.44-3.65-2.27-7.62-5.39-9.74-.2-.14-.4-.26-.61-.38-5-2.78-8.74.11-14.46.75-4.77.53-7.57,3.67-8.4,8.14a12.18,12.18,0,0,0-.06,4.34,5,5,0,0,0,1.35,2.58c1.28.87,1.77-1.38,1.78-3.1A1.33,1.33,0,0,1,214.19,23Z"/>
    <path class="cls-21" d="M224.17,39.33h.1a4.59,4.59,0,0,0,3.92-1.91.49.49,0,1,0-.83-.53,3.74,3.74,0,0,1-3.11,1.45,3.53,3.53,0,0,1-2.76-.93.5.5,0,0,0-.69-.13.48.48,0,0,0-.12.68,4.33,4.33,0,0,0,3.49,1.37Z"/>
    <path class="cls-35" d="M219.22,29.7a1.76,1.76,0,1,1-3.48,0,1.77,1.77,0,1,1,3.48,0Z"/>
    <path class="cls-35" d="M233.31,29.7a1.76,1.76,0,1,1-3.48,0,1.77,1.77,0,1,1,3.48,0Z"/>
    <path class="cls-31" d="M233.49,51.37c-.94-2.57-1.67-3.14-5.2-4.72l-1.37-.79-2.4,4.82-2.43-4.82s-1.13.68-1.17.69c-3.69,1.65-4.46,2.24-5.41,4.82Z"/>
    <path class="cls-36" d="M224.49,51.21a.33.33,0,0,1-.13,0,.25.25,0,0,1-.09-.35l1.44-2.53L228,49.37l-.35-2.55a.27.27,0,0,1,.23-.29.26.26,0,0,1,.29.22l.47,3.5L225.92,49l-1.2,2.1a.27.27,0,0,1-.23.14Z"/>
    <path class="cls-36" d="M224.75,51v-.07l-.17-.32-1.18-2.13,0-.07-2.34,1,.34-2.57a.26.26,0,1,0-.51-.07l-.47,3.48L223.14,49l1.09,2c.26.2.34.36.52-.06Z"/>
    <path class="cls-37" d="M296.2,45.91A10.94,10.94,0,0,0,290,44h-.13V44l-1.2,0-1.2,0V44h-.13a10.94,10.94,0,0,0-6.18,1.88,3.45,3.45,0,0,0-1.48,3.54c.09,1,17.87,1.29,18,.28a3.85,3.85,0,0,0-1.48-3.82Z"/>
    <polygon class="cls-12" points="292.21 50.55 285.19 50.55 285.19 42.44 292.21 42.44 292.21 50.55 292.21 50.55"/>
    <path class="cls-12" d="M297.15,29.23a4.3,4.3,0,0,0,3.38,5.14,4.17,4.17,0,0,0,5-3.48,4.63,4.63,0,0,0-3.38-5.45,4.39,4.39,0,0,0-5,3.79Z"/>
    <path class="cls-12" d="M280.27,29.23a4.3,4.3,0,0,1-3.38,5.14,4.17,4.17,0,0,1-5-3.48,4.62,4.62,0,0,1,3.38-5.45,4.39,4.39,0,0,1,5,3.79Z"/>
    <path class="cls-12" d="M300.61,13.21a13,13,0,0,0-9.82-5.4h-.19V7.65l-1.9.08-1.9-.08V7.8h-.19a13,13,0,0,0-9.82,5.4c-2.33,3.16-2.53,6.33-2.35,10.15.14,2.89.55,7.55.69,10.43C277.47,42.54,283.28,44,288.7,44s11.43-1.49,13.57-10.24c.14-2.88.55-6.73.69-9.61.18-3.82,0-7.81-2.35-11Z"/>
    <path class="cls-2" d="M283,28.69a1.63,1.63,0,1,1-1.61-1.91A1.79,1.79,0,0,1,283,28.69Z"/>
    <path class="cls-2" d="M297.26,28.69a1.63,1.63,0,1,1-1.61-1.91,1.79,1.79,0,0,1,1.61,1.91Z"/>
    <path class="cls-2" d="M279.06,25.23a.51.51,0,0,1-.37-.15.53.53,0,0,1,0-.76,4.16,4.16,0,0,1,3.08-.92,3.49,3.49,0,0,1,2.41,1,.54.54,0,1,1-.86.66,2.38,2.38,0,0,0-1.61-.54,3.12,3.12,0,0,0-2.24.59.56.56,0,0,1-.39.17Z"/>
    <path class="cls-14" d="M287.39,35.22h0a.54.54,0,0,1-.5-.57c.07-1,.18-4.77.18-5.93a.54.54,0,1,1,1.07,0c0,1.1-.1,4.93-.18,6a.53.53,0,0,1-.53.5Z"/>
    <path class="cls-2" d="M298,25.23a.56.56,0,0,1-.39-.17,3.1,3.1,0,0,0-2.29-.58,2.28,2.28,0,0,0-1.56.52.53.53,0,0,1-.75.11.54.54,0,0,1-.12-.75,3.39,3.39,0,0,1,2.36-1,4.23,4.23,0,0,1,3.14.92.54.54,0,0,1,0,.76.53.53,0,0,1-.37.15Z"/>
    <path class="cls-5" d="M283.92,37.38c1.79,3.66,8.41,2.37,8.86-.16l-8.86.16Z"/>
    <path class="cls-14" d="M284.72,37.82a4.55,4.55,0,0,0,3.47,1.39,5,5,0,0,0,3.92-1.53l-7.39.14Zm3.47,2.28h0a4.93,4.93,0,0,1-4.68-2.52.47.47,0,0,1,0-.43.45.45,0,0,1,.38-.21l8.86-.17a.4.4,0,0,1,.35.16.41.41,0,0,1,.1.37c-.31,1.75-2.8,2.8-5,2.8Z"/>
    <path class="cls-9" d="M302,25.83c-.11-2.2.68-4.83-2.23-6.08a7,7,0,0,0-3.47-.39c-4.08.4-7,2.39-14.16,1.24a15,15,0,0,1-6-2.17c-.44-.35-.55,3.17-.57,5.23,0,.95,0,1.85,0,2.8,0,.56,0,1.11,0,1.67,0,.23.05.8-.69.8-.55,0-.62-1.45-.64-1.71-.32-4.17-.47-3.5-.29-7.39.09-1.88.06-1.84.21-3.52a5,5,0,0,1-1.59-2.41,1.15,1.15,0,0,1,1.43-1.45l.1,0A8,8,0,0,1,272.5,9a1.15,1.15,0,0,1,1.58-1.26,4.53,4.53,0,0,0,2.16.3V8a1.15,1.15,0,0,1,1.46-1.63,8.45,8.45,0,0,0,2.2.64c3.79.64,10.15-4.23,19.2,2.47,3.17,2.35,4.35,6.64,4.35,10.76,0,5.34,0,.87,0,6.15,0,.48,0,2.14-.58,2.51s-.93-.18-.92-.69c0-.78.05-1.46,0-2.42Z"/>
    <path class="cls-2" d="M300.82,31a.58.58,0,0,1-.57.58h-8a.58.58,0,0,1-.58-.58V27.23a.57.57,0,0,1,.58-.57h8a.57.57,0,0,1,.57.57V31Zm-15.05,0a.58.58,0,0,1-.58.58h-8a.58.58,0,0,1-.57-.58V27.23a.57.57,0,0,1,.57-.57h8a.57.57,0,0,1,.58.57V31Zm14.48-5.52h-8a1.79,1.79,0,0,0-1.7,1.25h-3.62a1.79,1.79,0,0,0-1.7-1.25h-8a1.79,1.79,0,0,0-1.79,1.79V31a1.8,1.8,0,0,0,1.79,1.8h8A1.81,1.81,0,0,0,287,31V27.91h3.42V31a1.81,1.81,0,0,0,1.8,1.8h8A1.8,1.8,0,0,0,302,31V27.23a1.79,1.79,0,0,0-1.79-1.79Z"/>
    <path class="cls-37" d="M277.19,51.37h23a12.22,12.22,0,0,0-4.6-2.87l-.1,0h0c-.77-.26-3.27-1.21-3.27-1.21l-3.37,3-3.62-3s-2.43.91-3.36,1.21h0l-.39.14h0a13.39,13.39,0,0,0-4.3,2.82Z"/>
    <path class="cls-38" d="M288.77,51.3a.39.39,0,0,1-.15,0l-8.24-2.47a.32.32,0,0,1-.24-.43.44.44,0,0,1,.52-.2l8.11,2.44,8.31-2.44a.46.46,0,0,1,.53.2.33.33,0,0,1-.25.43l-8.46,2.47a.3.3,0,0,1-.13,0Z"/>
    <path class="cls-2" d="M304.92,114.46l-.34-28.68c0-9.86-5.46-16.42-16-16.42-9.7,0-16,6.25-16,16.42l-.33,28.68Z"/>
    <path class="cls-7" d="M299.8,76.16c-2.4-3.39-4.85-3.49-8.82-3.66h-4.3c-4,.17-6.43.27-8.82,3.66s-1.49,4.28-1.3,8.38c.14,3.1-1.71.93-.43,9.54a13.12,13.12,0,0,0,12.7,11.37c3.93,0,10.85-2.31,12.69-11.37s-.57-6.44-.42-9.54c.18-4.1,1.09-5-1.3-8.38Z"/>
    <path class="cls-7" d="M288.78,113.38c2-.68,2.71-2.37,3.1-4.79a3.74,3.74,0,0,1-.66-.75c0,.12-1.9,0-2.39.17-.5-.15-2.35-.07-2.36-.19a3.46,3.46,0,0,1-.54,1.11c0,2.28-.11,5.19,2.85,4.45Z"/>
    <polygon class="cls-7" points="291.24 111.93 286.42 111.93 286.42 104.48 291.24 104.48 291.24 111.93 291.24 111.93"/>
    <path class="cls-8" d="M288,97.25h0a.48.48,0,0,1-.44-.53c.06-.74.17-3.66.17-4.56a.49.49,0,0,1,1,0c0,.85-.1,3.82-.18,4.65a.49.49,0,0,1-.49.45Z"/>
    <path class="cls-2" d="M283.52,91.82a1.77,1.77,0,1,1-1.75-2.07,1.93,1.93,0,0,1,1.75,2.07Z"/>
    <path class="cls-2" d="M284,88.56a.55.55,0,0,1-.4-.18,2.12,2.12,0,0,0-1.63-.69,2.69,2.69,0,0,0-1.92.7.53.53,0,0,1-.75,0,.52.52,0,0,1,0-.75,3.76,3.76,0,0,1,2.71-1,3.26,3.26,0,0,1,2.41,1,.54.54,0,0,1-.05.75.52.52,0,0,1-.35.14Z"/>
    <path class="cls-2" d="M294.12,88.5a.52.52,0,0,1-.33-.12.53.53,0,0,1-.09-.74,3,3,0,0,1,2.2-1,3.18,3.18,0,0,1,2.48,1,.53.53,0,0,1,0,.75.54.54,0,0,1-.76,0,2.07,2.07,0,0,0-1.66-.62,2,2,0,0,0-1.42.58.49.49,0,0,1-.41.21Z"/>
    <path class="cls-2" d="M297.6,91.82a1.77,1.77,0,1,1-1.74-2.07,1.93,1.93,0,0,1,1.74,2.07Z"/>
    <path class="cls-39" d="M285.1,112.11a.29.29,0,0,1-.22-.11.27.27,0,0,1,.05-.38l1.88-1.47a.27.27,0,0,1,.33.43l-1.87,1.47a.27.27,0,0,1-.17.06Z"/>
    <path class="cls-39" d="M292.63,112.11a.27.27,0,0,1-.17-.06l-2-1.54a.28.28,0,1,1,.33-.44l2,1.55a.27.27,0,0,1,.06.38.29.29,0,0,1-.22.11Z"/>
    <path class="cls-2" d="M274.2,88.59A73,73,0,0,0,297.65,78a37.82,37.82,0,0,1,4.25,15.66s4.36-17.41-6.33-21.16-23.83,2-21.37,16.09Z"/>
    <path class="cls-5" d="M285,99.79c1.41,3.41,7,2.31,7.39,0l-7.39,0Z"/>
    <path class="cls-8" d="M285.68,100.19a3.51,3.51,0,0,0,2.93,1.35h0a3.88,3.88,0,0,0,3.19-1.38l-6.12,0Zm2.93,2.17h0a4.07,4.07,0,0,1-4-2.42.37.37,0,0,1,0-.38.4.4,0,0,1,.33-.18l7.39,0h0a.42.42,0,0,1,.31.15.39.39,0,0,1,.09.33c-.26,1.59-2.33,2.54-4.18,2.54Z"/>
    <path class="cls-40" d="M298.25,114.46l-.15-.55c-.9-2.73-1.41-3.59-3.67-4.78a31.48,31.48,0,0,0-3.27-1.32,15.67,15.67,0,0,1-2.44,5.19,15.92,15.92,0,0,1-2.25-5.18c0-.13-3.32,1.38-3.32,1.35-2.35,1.24-2.71,2.07-3.59,4.74,0,.13-.09.31-.15.53l.07,0Z"/>
    <path class="cls-23" d="M232.58,91.24A4.29,4.29,0,0,0,236,96.38a4.17,4.17,0,0,0,5-3.48,4.62,4.62,0,0,0-3.38-5.46,4.39,4.39,0,0,0-5,3.8Z"/>
    <path class="cls-23" d="M216.4,91.24A4.29,4.29,0,0,1,213,96.38a4.17,4.17,0,0,1-5-3.48,4.62,4.62,0,0,1,3.38-5.46,4.39,4.39,0,0,1,5,3.8Z"/>
    <path class="cls-23" d="M236.06,74a12.67,12.67,0,0,0-9.54-5.24h-.2v-.15l-1.85.08-1.84-.08v.15h-.19A12.67,12.67,0,0,0,212.91,74c-2.27,3.08-2.57,7-2.39,10.67.13,2.8.63,7.33.77,10.14,2.27,8.5,7.93,10.74,13.19,10.74s11.11-2.24,13.2-10.74c.14-2.81.63-7.34.77-10.14.18-3.71-.13-7.59-2.39-10.67Z"/>
    <polygon class="cls-23" points="227.93 111.26 221.04 111.26 221.04 103.22 227.93 103.22 227.93 111.26 227.93 111.26"/>
    <path class="cls-41" d="M214.52,87.61a.53.53,0,0,1-.39-.18.51.51,0,0,1,0-.74,6.22,6.22,0,0,1,5.59-.46A.53.53,0,0,1,220,87a.55.55,0,0,1-.73.19,5.36,5.36,0,0,0-4.34.33.54.54,0,0,1-.36.14Z"/>
    <path class="cls-41" d="M233.9,87.82a.51.51,0,0,1-.41-.2c-.53-.64-3.3-1-4.43-.49a.53.53,0,1,1-.4-1c1.35-.55,4.71-.35,5.64.81a.52.52,0,0,1-.07.74.54.54,0,0,1-.33.12Z"/>
    <path class="cls-21" d="M223.64,96.25h0a.53.53,0,0,1-.49-.56c.07-1,.18-4.68.18-5.82a.53.53,0,1,1,1.05,0c0,1.08-.1,4.84-.17,5.89a.53.53,0,0,1-.53.49Z"/>
    <path class="cls-21" d="M224.34,100.81a6.49,6.49,0,0,1-4.06-1.19.52.52,0,0,1-.07-.74.52.52,0,0,1,.74-.08,5.8,5.8,0,0,0,3.88.94,5.29,5.29,0,0,0,3.26-1,.52.52,0,1,1,.78.7,6,6,0,0,1-4,1.4l-.54,0Z"/>
    <path class="cls-42" d="M213,79.2a1.89,1.89,0,0,0,2.13,2.34c2-.06,3.07-1.25,4.07-2.27,0,0-1.85,2.92.6,3.5s4.8-2.63,4.8-2.63a1.45,1.45,0,0,0,.59,2.07c1.5.68,5,.15,8.87-4.95,3.61,4.57,3.9,12.48,3.93,13,0,.23.07.84.36.78s.37-1.29.41-1.55a45.42,45.42,0,0,0,.3-5.59c0-3.42,1-10-5.21-14.12-3.81-2.53-11.68-2.78-16.06-1.35a11.56,11.56,0,0,0-7.07,6.62c-1.2,3.32-1.17,5.91-.77,12.49,0,.71.12,1.43.22,2.13.07.47.13,1,.24,1.42.25,1,.6.28.59-.34,0-1-.34-8,2-11.59Z"/>
    <path class="cls-2" d="M218.67,90.51a1.6,1.6,0,1,1-1.58-1.88,1.75,1.75,0,0,1,1.58,1.88Z"/>
    <path class="cls-2" d="M232.66,90.51a1.6,1.6,0,1,1-1.58-1.88,1.74,1.74,0,0,1,1.58,1.88Z"/>
    <path class="cls-43" d="M237.79,114.46a3.82,3.82,0,0,0-.69-2.31c-1.83-2.77-9.14-4.78-9.1-4.76s-3.51,2.19-3.51,2.19L221,107.39s-7.28,2.1-9.09,4.76a3.41,3.41,0,0,0-.75,2.31Z"/>
    <path class="cls-2" d="M178.59,94.45c.75,10.09-12.52,12.15-18.21,12.15-6.31,0-19.3-1.55-18.2-12.15.13-1.25,1.21-3.45,1.21-8,0-9.08,5.56-17.92,17-17.92s17,8.78,17,17.82c0,4.66,1.11,6.83,1.21,8.11Z"/>
    <polygon class="cls-26" points="163.51 112.21 157.72 112.21 157.72 103.28 163.51 103.28 163.51 112.21 163.51 112.21"/>
    <path class="cls-26" d="M171.61,75.68c-2.4-3.4-4.87-3.51-8.84-3.67h-4.32c-4,.16-6.43.27-8.83,3.67s-1.49,4.29-1.3,8.4c.14,3.1-1.72.92-.43,9.56A13.15,13.15,0,0,0,160.61,105c3.95,0,10.88-2.32,12.73-11.4s-.57-6.46-.43-9.56c.19-4.11,1.1-5-1.3-8.4Z"/>
    <path class="cls-27" d="M159.76,96.81h0a.48.48,0,0,1-.44-.53c.06-.75.17-3.68.17-4.57a.49.49,0,1,1,1,0c0,.85-.1,3.82-.17,4.66a.5.5,0,0,1-.49.44Z"/>
    <path class="cls-9" d="M155.29,91.37a1.77,1.77,0,1,1-1.75-2.07,1.92,1.92,0,0,1,1.75,2.07Z"/>
    <path class="cls-9" d="M155.74,88a.51.51,0,0,1-.39-.18,2.23,2.23,0,0,0-1.64-.69,2.66,2.66,0,0,0-1.93.71.53.53,0,0,1-.75,0,.53.53,0,0,1,0-.76,3.8,3.8,0,0,1,2.72-1,3.2,3.2,0,0,1,2.41,1,.53.53,0,0,1,0,.75.53.53,0,0,1-.36.13Z"/>
    <path class="cls-9" d="M165.91,88a.48.48,0,0,1-.32-.11.52.52,0,0,1-.09-.75,3,3,0,0,1,2.2-1,3.15,3.15,0,0,1,2.49,1,.55.55,0,0,1,0,.76.53.53,0,0,1-.75,0,2.13,2.13,0,0,0-1.67-.63,2,2,0,0,0-1.42.59.53.53,0,0,1-.42.2Z"/>
    <path class="cls-9" d="M169.41,91.37a1.77,1.77,0,1,1-1.75-2.07,1.93,1.93,0,0,1,1.75,2.07Z"/>
    <path class="cls-28" d="M154.86,95.89c0,1-1.1,1.71-2.46,1.71s-2.47-.76-2.47-1.71,1.1-1.7,2.47-1.7,2.46.76,2.46,1.7Z"/>
    <path class="cls-28" d="M171.27,95.89c0,1-1.1,1.71-2.46,1.71s-2.47-.76-2.47-1.71,1.1-1.7,2.47-1.7,2.46.76,2.46,1.7Z"/>
    <path class="cls-2" d="M167.67,71.77c-4.23-2.06-10.55-1.82-14.83.24a13.33,13.33,0,0,0-7.23,13c-.08,5.89,3.06,11.68,3.06,11.68s0-3.94,9.62-8.2c7.19-3.17,8.22-8.34,8.22-8.34a10.06,10.06,0,0,0,3.67,5.38c4,3.28,3.59,6,3.59,6a8.69,8.69,0,0,0,1.61-5.73h0c.24-3.88-.83-10.73-7.71-14.08Z"/>
    <path class="cls-27" d="M160.09,100.67H160a4.55,4.55,0,0,1-3.88-2,.48.48,0,0,1,.17-.67.49.49,0,0,1,.67.16A3.74,3.74,0,0,0,160,99.68a3.55,3.55,0,0,0,2.79-.88.49.49,0,0,1,.69-.11.48.48,0,0,1,.11.68,4.34,4.34,0,0,1-3.52,1.3Z"/>
    <path class="cls-44" d="M171.77,114.46s0-.1-.05-.14c-1.19-3.52-2.54-4.65-6-6.3,0,0-4.5,2-5.12,2.18-.61-.18-5.11-2.14-5.11-2.14-3.41,1.63-4.78,2.82-5.95,6.26,0,0,0,.09,0,.14Z"/>
    <path class="cls-26" d="M165.68,108l-2.17-.83a22.59,22.59,0,0,1-2.95,1.84,20.78,20.78,0,0,1-2.84-1.84l-2.27.87,5.08,4,5.15-4Z"/>
    <path class="cls-2" d="M108.8,114.46c-1-1.14-.66-3.24-5.35-4.54l-.07-.16a.15.15,0,0,0-.12-.07l-1.5-.51v.19l-.48-.25-5,.87-5-.83-.49.23v-.21l-1.5.51a.12.12,0,0,0-.11.07l-.08.16c-4.88,1.4-4.51,3.38-5.38,4.54Z"/>
    <path class="cls-3" d="M104.51,90.84a4.19,4.19,0,0,0,3.31,5,4.07,4.07,0,0,0,4.9-3.4,4.52,4.52,0,0,0-3.31-5.33,4.29,4.29,0,0,0-4.9,3.71Z"/>
    <path class="cls-3" d="M88,90.84a4.19,4.19,0,0,1-3.3,5,4.06,4.06,0,0,1-4.9-3.4,4.51,4.51,0,0,1,3.3-5.33A4.28,4.28,0,0,1,88,90.84Z"/>
    <polygon class="cls-3" points="99.84 112.35 92.77 112.35 92.77 103.69 99.84 103.69 99.84 112.35 99.84 112.35"/>
    <path class="cls-3" d="M108.2,75a13.34,13.34,0,0,0-9.86-5.58h-.2v-.15l-1.84.08-1.85-.08v.15h-.19A13.77,13.77,0,0,0,84.41,75c-3.75,5.07-2.07,16.41-1.26,20.4,2.26,8.48,7.9,9.93,13.16,9.93s11.08-1.45,13.16-9.93c.81-3.56,2.57-14.89-1.27-20.4Z"/>
    <path class="cls-9" d="M91,90.44a2,2,0,1,1-2-1.88,1.93,1.93,0,0,1,2,1.88Z"/>
    <path class="cls-3" d="M92.08,92.82c-.13,1-1.71,1.67-3.52,1.44S85.38,93,85.51,92s1.71-1.67,3.53-1.44,3.17,1.25,3,2.28Z"/>
    <path class="cls-9" d="M101.66,90.44a2,2,0,1,0,2-1.88,1.93,1.93,0,0,0-2,1.88Z"/>
    <path class="cls-3" d="M100.57,92.82c.13,1,1.7,1.67,3.52,1.44s3.17-1.26,3-2.28-1.71-1.67-3.52-1.44-3.17,1.25-3,2.28Z"/>
    <path class="cls-9" d="M87,87a.54.54,0,0,1-.36-.14.53.53,0,0,1,0-.75,4.58,4.58,0,0,1,5.09-.47.53.53,0,1,1-.59.87,3.55,3.55,0,0,0-3.74.33A.55.55,0,0,1,87,87Z"/>
    <path class="cls-9" d="M105.87,87a.51.51,0,0,1-.38-.16c-.81-.85-2.73-.82-3.88.05a.53.53,0,0,1-.64-.84c1.59-1.2,4.1-1.17,5.28.06a.53.53,0,0,1,0,.75.5.5,0,0,1-.36.14Z"/>
    <path class="cls-4" d="M95.47,96.44h0a.51.51,0,0,1-.49-.53c.07-.89.17-4.4.17-5.47a.53.53,0,0,1,1.06,0c0,1.11-.11,4.61-.18,5.54a.51.51,0,0,1-.52.47Z"/>
    <path class="cls-4" d="M96,100.82h-.38a4.63,4.63,0,0,1-3.39-1.34.52.52,0,0,1,.07-.74.53.53,0,0,1,.74.07,3.82,3.82,0,0,0,2.63,1,5,5,0,0,0,3.55-1,.52.52,0,0,1,.74,0,.53.53,0,0,1,0,.74,5.82,5.82,0,0,1-4,1.31Z"/>
    <path class="cls-2" d="M109.07,71.68C106.45,68.57,102.28,67,96.68,67h0a37,37,0,0,0-5.17.39,12.48,12.48,0,0,0-7.79,4.94C81,76,80.29,81.22,81.49,87.78a.36.36,0,0,0,.26.27h.08a.33.33,0,0,0,.26-.13,21,21,0,0,0,3.58-8.72,7.48,7.48,0,0,0,4.44,2.88h.08a.35.35,0,0,0,.31-.21c.08-.19.22-1.09-1-5A17.88,17.88,0,0,0,99.86,82.1h0a.37.37,0,0,0,.27-.13.35.35,0,0,0,0-.33L99,78.25a37.58,37.58,0,0,0,7,4.2,12.1,12.1,0,0,0,5,1.22,6.47,6.47,0,0,0,.67,0,.36.36,0,0,0,.29-.28c0-.28,1.13-6.89-2.91-11.68Z"/>
    <path class="cls-2" d="M100.2,104.78c-1.21.32-2.51,0-2.61-.88a1.09,1.09,0,0,0-2.1,0c-.11.91-1.2,1.15-2.44.95a7.62,7.62,0,0,1-1.46-.59c-.49-.05-.46.42,0,.9a5,5,0,0,0,1.29,1,8.75,8.75,0,0,0,7.37,0c.39-.21,1.67-1.08,1.67-1.4,0-.81-1.22,0-1.7.08Z"/>
    <path class="cls-2" d="M92.26,99.32a32.86,32.86,0,0,1,7.15-.07,7.52,7.52,0,0,1,1.47.59c.49,0,.46-.42,0-.9a4.84,4.84,0,0,0-1.3-1,8.73,8.73,0,0,0-7.36,0c-.39.21-1.67,1.08-1.68,1.4,0,.81,1.23,0,1.7-.08Z"/>
    <path class="cls-5" d="M101.76,109.37l-.48-.25s-1.49-1.4-1.44-1.38S96.31,110,96.31,110l-3.54-2.25-1.44,1.42-.49.23v1l.11,4.12h10.72l.11-4.12v-1Z"/>
    <path class="cls-45" d="M92.58,113.63l-1.51-4.16a.29.29,0,0,1,.17-.36.28.28,0,0,1,.35.17l1.24,3.43L96.07,110a.26.26,0,0,1,.38,0,.28.28,0,0,1,0,.39l-3.84,3.21Z"/>
    <path class="cls-45" d="M99.9,113.63l-3.83-3.21a.27.27,0,1,1,.35-.42l3.23,2.71,1.26-3.39a.27.27,0,0,1,.35-.16.27.27,0,0,1,.16.35l-1.52,4.12Z"/>
    <path class="cls-2" d="M82.94,88.42c.17-3.53.22-9.9,3.33-9.9,2.3,0,1.88-3.82,8.88-3.82,6.19,0,8.93,2.85,11.25,2.85,2.49,0,3.22,4.11,3.27,8.72,0,1,.07,1.9.13,2.85,0,.55.07,1.11.1,1.66,0,.23.07.83.36.77s.37-1.28.4-1.54a41.5,41.5,0,0,0,.3-5.57c0-3.42,1-10-5.19-14.09-3.79-2.52-11.65-2.77-16-1.34a11.52,11.52,0,0,0-7,6.6c-1.19,3.31-1.16,5.9-.77,12.46,0,.71.12,1.42.22,2.12.07.47.13,1,.24,1.41.25,1,.6.29.59-.33,0-1-.09-1.9,0-2.85Z"/>
    <path class="cls-46" d="M90.93,114.46l-.1-4.12v-1.16l-1.5.51a.12.12,0,0,0-.11.07l-.08.16L87,114.18l.88.28Z"/>
    <path class="cls-46" d="M101.77,110.34l-.09,4.12h2.86l1-.34-2.13-4.2-.07-.16a.15.15,0,0,0-.12-.07l-1.5-.51v1.16Z"/>
    <path class="cls-47" d="M15.71,89.34c-.19,11.63,7.7,14.88,16.6,14.88s16.9-2.14,16.6-14.88c0-2.29-.53-11.23-2.47-13C39.36,70.11,22.56,71,18.05,77c-.78,1-2.32,11-2.34,12.32Z"/>
    <polygon class="cls-23" points="35.23 112.1 29.44 112.1 29.44 103.28 35.23 103.28 35.23 112.1 35.23 112.1"/>
    <path class="cls-23" d="M22.54,91.47A3.3,3.3,0,0,1,20,95.37a3.62,3.62,0,0,1-.88-7.08,3.31,3.31,0,0,1,3.39,3.18Z"/>
    <path class="cls-23" d="M42,91.47a3.31,3.31,0,0,0,2.52,3.9,3.62,3.62,0,0,0,.87-7.08A3.31,3.31,0,0,0,42,91.47Z"/>
    <path class="cls-23" d="M43.33,75.68c-2.4-3.4-4.86-3.51-8.83-3.67H30.18c-4,.16-6.44.27-8.84,3.67S19.85,80,20,84.08c.14,3.1-1.71.92-.43,9.56A13.15,13.15,0,0,0,32.34,105c3.94,0,10.88-2.32,12.72-11.4s-.57-6.46-.43-9.56c.19-4.11,1.1-5-1.3-8.4Z"/>
    <path class="cls-21" d="M31.48,96.81h0a.49.49,0,0,1-.45-.53c.07-.75.17-3.68.17-4.57a.49.49,0,0,1,1,0c0,.85-.1,3.82-.17,4.66a.49.49,0,0,1-.49.44Z"/>
    <path class="cls-21" d="M32,100.75h.1a4.58,4.58,0,0,0,3.92-1.9.5.5,0,0,0-.15-.68.49.49,0,0,0-.68.15,3.75,3.75,0,0,1-3.1,1.45,3.54,3.54,0,0,1-2.77-.94.49.49,0,0,0-.68-.13.49.49,0,0,0-.13.69A4.33,4.33,0,0,0,32,100.75Z"/>
    <path class="cls-47" d="M48.43,82.49c-.56-7-4.83-11.47-10.36-13-8.11-2.2-19.44-.07-22.23,9.8a13.11,13.11,0,0,0,3.67,13.25c-.44-3.17,2.33-8.17,13.49-10,3.42-.56,7.35-1.43,9.35-3.45C42,85.9,45.18,90.26,45,93c4.31-4.11,3.46-9.83,3.41-10.55Z"/>
    <path class="cls-47" d="M22.91,88.44a.52.52,0,0,1-.35-.14.56.56,0,0,1,0-.77,4.41,4.41,0,0,1,5.05-.48.55.55,0,0,1,.14.75.51.51,0,0,1-.73.14,3.43,3.43,0,0,0-3.71.34.51.51,0,0,1-.38.16Z"/>
    <path class="cls-47" d="M41.66,88.49a.53.53,0,0,1-.38-.17c-.8-.87-2.71-.84-3.85.05a.51.51,0,0,1-.73-.11.54.54,0,0,1,.1-.75c1.58-1.24,4.07-1.2,5.24.07a.55.55,0,0,1,0,.76.51.51,0,0,1-.36.15Z"/>
    <path class="cls-35" d="M27,92a1.92,1.92,0,0,1-1.74,2.06,2.1,2.1,0,0,1,0-4.13A1.92,1.92,0,0,1,27,92Z"/>
    <path class="cls-35" d="M41.09,92A1.77,1.77,0,1,1,39.34,90,1.92,1.92,0,0,1,41.09,92Z"/>
    <path class="cls-48" d="M43.49,114.46s0-.1,0-.14c-1.19-3.52-1.81-4.37-5.31-6,0,0-5.24,1.72-5.85,1.9-.62-.18-5.86-1.85-5.86-1.85-3.41,1.63-4,2.53-5.21,6a1,1,0,0,1,0,.14Z"/>
    <path class="cls-23" d="M38.14,108.3l-2.91-1.11s-2.33,1-2.94,1.19c-.62-.19-2.85-1.19-2.85-1.19l-3,1.16c-1.29.62-.75,1.65.41,2.7a8.17,8.17,0,0,0,11-.06c1.12-1,1.61-2.07.3-2.69Z"/>
    <path class="cls-23" d="M214.87,155a3,3,0,1,1-3.4-3.17,3.32,3.32,0,0,1,3.4,3.17Z"/>
    <path class="cls-23" d="M234.35,155a3,3,0,1,0,3.4-3.17,3.32,3.32,0,0,0-3.4,3.17Z"/>
    <path class="cls-23" d="M234.93,176.76c-1.1-2.74-2.25-3.34-7.42-5.66a5.21,5.21,0,0,0-2.9.22,5.21,5.21,0,0,0-2.9-.22c-3.84,1.73-5.47,2.5-6.49,3.91,6.05,2.52,13.94.69,19.71,1.75Z"/>
    <path class="cls-23" d="M235.61,139.26c-2.4-3.4-4.87-3.51-8.84-3.67h-4.32c-4,.16-6.43.27-8.83,3.67s-1.5,4.29-1.31,8.39c.15,3.11-1.71.93-.42,9.56a13.14,13.14,0,0,0,12.72,11.4c3.95,0,11-2.37,12.73-11.4s-.58-6.45-.43-9.56c.19-4.1,1.1-5-1.3-8.39Z"/>
    <polygon class="cls-23" points="227.51 175.8 221.71 175.8 221.71 166.85 227.51 166.85 227.51 175.8 227.51 175.8"/>
    <path class="cls-21" d="M223.75,160.39h0a.51.51,0,0,1-.45-.54c.07-.74.18-3.67.18-4.57a.49.49,0,1,1,1,0c0,.86-.1,3.83-.18,4.66a.48.48,0,0,1-.49.45Z"/>
    <path class="cls-9" d="M219.44,154.54a1.77,1.77,0,1,1-1.74-2.07,1.93,1.93,0,0,1,1.74,2.07Z"/>
    <path class="cls-9" d="M219.9,151.27a.53.53,0,0,1-.4-.18,2.17,2.17,0,0,0-1.63-.69,2.78,2.78,0,0,0-1.93.7.53.53,0,0,1-.76,0,.53.53,0,0,1,0-.75,3.79,3.79,0,0,1,2.73-1,3.23,3.23,0,0,1,2.41,1.06.54.54,0,0,1-.05.75.51.51,0,0,1-.35.13Z"/>
    <path class="cls-9" d="M229.31,151.21a.57.57,0,0,1-.33-.11.54.54,0,0,1-.09-.75,3.05,3.05,0,0,1,2.21-1,3.18,3.18,0,0,1,2.48,1,.53.53,0,0,1,0,.75.54.54,0,0,1-.76,0,2.12,2.12,0,0,0-1.66-.63,2,2,0,0,0-1.42.59.55.55,0,0,1-.42.2Z"/>
    <path class="cls-9" d="M232.8,154.54a1.77,1.77,0,1,1-1.74-2.07,1.93,1.93,0,0,1,1.74,2.07Z"/>
    <path class="cls-47" d="M233,136.05c-3.93-2.6-9.57-2.86-14.08-1.39-2.47.81-8.44,2.94-9.08,11a15.79,15.79,0,0,0,1.19,9.46s.3-5.23,10.58-8.1c6.74-1.88,9-4,9-4a14.54,14.54,0,0,0,3.61,5.88c3.83,4,3.48,7,3.48,7a11.87,11.87,0,0,0,1.54-5.46h0A13.7,13.7,0,0,0,233,136.05Z"/>
    <path class="cls-47" d="M233.23,134.18c0,4.68-3.51,5.46-7.83,5.46s-7.83-1.16-7.83-5.46c0-3,3.5-5.47,7.83-5.47s7.83,2.45,7.83,5.47Z"/>
    <path class="cls-5" d="M220.67,162.34c1.4,3.41,7,2.31,7.38,0l-7.38,0Z"/>
    <path class="cls-21" d="M221.35,162.74a3.49,3.49,0,0,0,2.92,1.35h0a3.88,3.88,0,0,0,3.19-1.38l-6.12,0Zm2.93,2.17h0a4.07,4.07,0,0,1-4-2.42.43.43,0,0,1,0-.38.42.42,0,0,1,.34-.18l7.38,0h0a.44.44,0,0,1,.32.15.43.43,0,0,1,.09.33c-.27,1.59-2.34,2.54-4.18,2.54Z"/>
    <path class="cls-49" d="M238.44,153.19H210.67a.53.53,0,0,1,0-1.06h27.77a.53.53,0,0,1,0,1.06Z"/>
    <path class="cls-49" d="M219.27,158.45c-1.18,0-2.57,0-3.54-.07l-.94,0a2.08,2.08,0,0,1-1.52-.5c-.6-.61-.59-1.63-.57-3.32,0-.36,0-.74,0-1.16a.54.54,0,0,1,1.07,0c0,.43,0,.81,0,1.17,0,1.32,0,2.27.26,2.57.05,0,.18.18.76.18l1,0c1.36,0,3.9.11,5,0,.76-.05.84-.16.82-3.15v-.95a.54.54,0,0,1,.53-.54.53.53,0,0,1,.53.54c0,.33,0,.65,0,.94,0,2.8,0,4.08-1.8,4.22-.42,0-1,0-1.62,0Z"/>
    <path class="cls-49" d="M230.07,158.6a13.6,13.6,0,0,1-1.83-.08c-2.08-.35-2.06-1.63-2-4,0-.39,0-.83,0-1.31a.54.54,0,1,1,1.07,0c0,.49,0,.93,0,1.33,0,2.53,0,2.72,1.14,2.9a43.25,43.25,0,0,0,4.59,0l.86,0c.9,0,1-.15,1.09-.43a18.82,18.82,0,0,0,.2-4h1.06a17.66,17.66,0,0,1-.26,4.36c-.37,1.06-1.27,1.15-2.09,1.15-.13,0-.43,0-.83,0-1,0-2.08,0-3,0Z"/>
    <path class="cls-1" d="M235.3,177.14c-1.08-2.93-2-3.65-6.14-5.53a.2.2,0,0,0-.2,0,.24.24,0,0,0-.11.16,9.48,9.48,0,0,1-1.56,2.3,3.31,3.31,0,0,1-5.09,0,9.54,9.54,0,0,1-1.58-2.37v0a.21.21,0,0,0-.11-.15.21.21,0,0,0-.19,0c-4.3,2-5.29,2.69-6.39,5.64Z"/>
    <path class="cls-50" d="M111.26,177.14a11.37,11.37,0,0,0,2.38-7.45l-.42-20.28c0-8.12-7.09-16.82-16.78-16.82a16.73,16.73,0,0,0-16.78,16.82l-.43,20.28a11.37,11.37,0,0,0,2.38,7.45Z"/>
    <polygon class="cls-23" points="99.06 175.37 94.24 175.37 94.24 167.92 99.06 167.92 99.06 175.37 99.06 175.37"/>
    <path class="cls-23" d="M85.69,139.77c2.39-3.4,4.85-3.5,8.81-3.67h4.31c4,.17,5.73,1.67,8.13,5.06s2.17,2.88,2,7c-.14,3.1,1.71.93.43,9.54a13.11,13.11,0,0,1-12.69,11.37c-3.94,0-10.86-2.31-12.7-11.37s.57-6.44.43-9.54c-.19-4.1-1.1-5,1.3-8.37Z"/>
    <path class="cls-21" d="M95.8,160.88h0a.48.48,0,0,1-.44-.53c.06-.74.17-3.67.17-4.56a.49.49,0,0,1,1,0c0,.85-.1,3.81-.18,4.65a.48.48,0,0,1-.48.44Z"/>
    <path class="cls-50" d="M99.67,134.71a12,12,0,0,1,7.64,4.71c1,1.37,1,1.57.08,3.22-.67,1.2-5.34,4.46-15.43,3.76a7.66,7.66,0,0,0-7.37,4.07,8.62,8.62,0,0,0-1.46,4.39c-.13,2-2-2.88-2.15-4.79-.37-3.8,1.37-7.42,3.63-10.32,3.73-4.78,8.9-6.44,15.06-5Z"/>
    <path class="cls-50" d="M109.94,154.59c1.1-2.65,1-17.23-3.39-13.11-.53,7.72,2.93,7.77,3.39,13.11Z"/>
    <path class="cls-51" d="M90.91,158.71c0,.94-1.1,1.7-2.46,1.7s-2.46-.76-2.46-1.7,1.1-1.7,2.46-1.7,2.46.76,2.46,1.7Z"/>
    <path class="cls-51" d="M107.28,158.71c0,.94-1.1,1.7-2.46,1.7s-2.46-.76-2.46-1.7,1.11-1.7,2.46-1.7,2.46.76,2.46,1.7Z"/>
    <path class="cls-14" d="M87.4,152.19a.52.52,0,0,1-.49-.32.53.53,0,0,1,.28-.7,5.56,5.56,0,0,1,4.86,0,.53.53,0,0,1-.57.9,4.5,4.5,0,0,0-3.87.08.52.52,0,0,1-.21,0Z"/>
    <path class="cls-14" d="M101.11,152.2a.53.53,0,0,1-.31-1,6.39,6.39,0,0,1,5-.16.53.53,0,0,1-.54.92,5.52,5.52,0,0,0-3.83.11.49.49,0,0,1-.3.1Z"/>
    <path class="cls-52" d="M92,155.89a.5.5,0,0,1-.31-.1,4.22,4.22,0,0,0-4.08-.34.54.54,0,0,1-.69-.32.53.53,0,0,1,.31-.68,5.32,5.32,0,0,1,5.08.47.54.54,0,0,1,.12.75.55.55,0,0,1-.43.22Z"/>
    <path class="cls-52" d="M100.86,155.89a.55.55,0,0,1-.43-.22.54.54,0,0,1,.12-.75,5.32,5.32,0,0,1,5.08-.47.53.53,0,0,1,.31.68.55.55,0,0,1-.69.32,4.25,4.25,0,0,0-4.08.34.5.5,0,0,1-.31.1Z"/>
    <path class="cls-5" d="M92.75,162.93c1.41,3.42,7,2.32,7.39,0l-7.39,0Z"/>
    <path class="cls-21" d="M93.43,163.34a3.51,3.51,0,0,0,2.93,1.35h0a3.91,3.91,0,0,0,3.19-1.38l-6.12,0Zm2.93,2.17h0a4.09,4.09,0,0,1-4-2.42.42.42,0,0,1,0-.39.4.4,0,0,1,.33-.18l7.39,0h0a.41.41,0,0,1,.31.14.41.41,0,0,1,.09.34c-.26,1.59-2.33,2.54-4.18,2.54Z"/>
    <path class="cls-53" d="M105.92,177.14v0c-1-2.94-1.52-3.65-4.44-5l-1.88-.85v0c-.28-.23-2.44,3.06-3,3.22-.51-.16-2.71-3.42-3-3.21h0l-1.87.88c-2.84,1.35-3.37,2.11-4.35,5v0Z"/>
    <path class="cls-5" d="M95.06,177.14h3.1l1.36-5.45.07-.43-.53-.44a.17.17,0,0,1,0,.06,2.93,2.93,0,0,1-4.78,0h0s-.32.24-.64.45l.16.66,1.3,5.21Z"/>
    <path class="cls-40" d="M19.37,177.14h26c-1-2.53-3.77-4.45-6.1-5.08l-.1,0c-.34-.13-13.48-.12-13.63-.07l-.39.15h0c-2.48.93-4.89,2.75-5.76,5Z"/>
    <path class="cls-2" d="M48.82,146.06c0,10.45-7.25,18.08-16.18,18.08s-16.19-7.63-16.19-18.08,6.06-17.21,16.19-17.21,16.18,6.76,16.18,17.21Z"/>
    <polygon class="cls-30" points="35.88 173.14 28.81 173.14 28.81 165.93 35.88 165.93 35.88 173.14 35.88 173.14"/>
    <path class="cls-30" d="M40.85,152.63a4.32,4.32,0,0,0,3.41,5.17,4.2,4.2,0,0,0,5-3.5,4.65,4.65,0,0,0-3.41-5.49,4.42,4.42,0,0,0-5,3.82Z"/>
    <path class="cls-30" d="M23.85,152.63a4.32,4.32,0,0,1-3.41,5.17,4.19,4.19,0,0,1-5-3.5,4.65,4.65,0,0,1,3.41-5.49,4.42,4.42,0,0,1,5,3.82Z"/>
    <path class="cls-30" d="M44.77,136a13.6,13.6,0,0,0-10.25-5.64h-.21v-.16l-2,.08-2-.08v.16h-.21A13.58,13.58,0,0,0,19.89,136c-2.43,3.3-1.76,6.62-1.58,10.61.13,3-.31,7.87-.16,10.89,2.45,9.13,8.52,10.7,14.18,10.7s11.93-1.57,14.17-10.7c.15-3-.29-7-.15-10,.18-4,.85-8.16-1.58-11.46Z"/>
    <path class="cls-30" d="M39.15,172c-.77-.27-3.27-1.22-3.27-1.22a37.86,37.86,0,0,0-7-.06s-2.44.92-3.37,1.21a9.87,9.87,0,0,0,6.82,2.14A10.13,10.13,0,0,0,39.15,172Z"/>
    <path class="cls-2" d="M26.8,152.14a1.88,1.88,0,0,1-1.7,2,2,2,0,0,1,0-4,1.87,1.87,0,0,1,1.7,2Z"/>
    <path class="cls-2" d="M41,152.14a1.72,1.72,0,1,1-1.7-2,1.88,1.88,0,0,1,1.7,2Z"/>
    <path class="cls-8" d="M30.89,157.78h0a.62.62,0,0,1-.53-.67c.08-1.15.26-3.4.26-4.78a.57.57,0,1,1,1.13,0c0,1.43-.18,3.68-.26,4.87a.59.59,0,0,1-.56.58Z"/>
    <path class="cls-54" d="M32.39,163.69a5.73,5.73,0,0,1-4-1.48.56.56,0,1,1,.79-.8,5.29,5.29,0,0,0,6.65,0,.56.56,0,1,1,.74.84,6.28,6.28,0,0,1-4.15,1.46Z"/>
    <path class="cls-2" d="M23,148.49a.83.83,0,0,1-.77-.56.91.91,0,0,1,.47-1.16,7.17,7.17,0,0,1,4.8-.22.89.89,0,0,1,.58,1.09.83.83,0,0,1-1,.62,5.68,5.68,0,0,0-3.76.17.8.8,0,0,1-.3.06Z"/>
    <path class="cls-2" d="M41.63,148.49a.83.83,0,0,0,.77-.56.91.91,0,0,0-.47-1.16,7.17,7.17,0,0,0-4.8-.22.89.89,0,0,0-.58,1.09.82.82,0,0,0,1,.62,5.71,5.71,0,0,1,3.77.17.8.8,0,0,0,.3.06Z"/>
    <path class="cls-2" d="M44.53,152.55v1.16c0,3-1.24,6.51-3.26,7.56-.77-2.48-3.18-2.77-5.8-2.94a55.61,55.61,0,0,0-6.33,0c-2.54.12-4.92.72-5.8,2.94-2.19-1.61-3.26-4.55-3.26-7.56v-5.9c0-2-.25-7.39,3.22-7.39,2.3,0,2.06.57,9,.57,6.18,0,7.54-.76,9.85-.76a2,2,0,0,1,.92.21c.92.46,1.42,1.22,1.42,6.39v5.72Zm-2.65-20.92c-3.78-2.72-11.61-3-16-1.45a11.93,11.93,0,0,0-7,7.11c-.13.4-.25.8-.36,1.19a10.42,10.42,0,0,0-.62,4.45c0,.94,0,1.13,0,2.32V156a27.42,27.42,0,0,0,.63,4.58c1.3,6.88,9.15,9.33,13.61,9.33h.27c.09,0,0,0,.05,0,4.46,0,11.79-2.2,13.62-9.33a16.81,16.81,0,0,0,.62-4.16v-8.79c.21-.58.36-.33.36-.86,0-3.68,1-10.76-5.18-15.17Z"/>
    <path class="cls-5" d="M36.33,160.75c0,1.14-2,2.06-4,2.06s-4-.92-4-2.06Z"/>
    <path class="cls-11" d="M294.14,173.08a16,16,0,0,0-1.95-.37l-3.51,1-3.52-.93a17.57,17.57,0,0,0-2,.34s-.48,2.93,0,3a34.7,34.7,0,0,0,5.32-.1c.46,0,1.5.43,1.95.41a21.49,21.49,0,0,0,3.48-.72c.39-.07.2-2.62.2-2.62Z"/>
    <path class="cls-11" d="M296.84,155.35a4.32,4.32,0,0,0,3.4,5.18,4.2,4.2,0,0,0,5.05-3.51,4.66,4.66,0,0,0-3.41-5.49,4.42,4.42,0,0,0-5,3.82Z"/>
    <path class="cls-11" d="M280.56,155.35a4.32,4.32,0,0,1-3.41,5.18,4.19,4.19,0,0,1-5-3.51,4.65,4.65,0,0,1,3.41-5.49,4.42,4.42,0,0,1,5,3.82Z"/>
    <path class="cls-11" d="M300.34,138a12.73,12.73,0,0,0-9.6-5.28h-.2v-.15l-1.86.08-1.86-.08v.15h-.19A12.72,12.72,0,0,0,277,138c-2.28,3.09-2.59,7-2.41,10.73.14,2.83.64,7.38.78,10.21,2.29,8.56,8,10,13.28,10s11.18-1.46,13.28-10c.14-2.83.64-7.38.78-10.21.18-3.73-.13-7.64-2.41-10.73Z"/>
    <polygon class="cls-11" points="292.22 175.83 285.15 175.83 285.15 166.57 292.22 166.57 292.22 175.83 292.22 175.83"/>
    <path class="cls-2" d="M279.29,149.09a.54.54,0,0,1-.37-.14.53.53,0,0,1,0-.75,4.62,4.62,0,0,1,5.14-.47.53.53,0,1,1-.61.87,3.55,3.55,0,0,0-3.76.33.54.54,0,0,1-.39.16Z"/>
    <path class="cls-2" d="M298.34,149.72a.54.54,0,0,1-.39-.16c-.81-.86-2.75-.83-3.91.05a.53.53,0,0,1-.64-.85c1.6-1.21,4.14-1.18,5.32.07a.53.53,0,0,1,0,.75.54.54,0,0,1-.36.14Z"/>
    <path class="cls-2" d="M275.46,152c.11-2.07-.32-7.48,2.12-8.45,1.07-.43,3.17,0,4.24.12a86.15,86.15,0,0,0,12.75.23c1.83-.12,4.48-.6,5.34-.48,2.34.32,2,4.63,2.07,6.56,0,.89,0,1.74,0,2.63,0,.52,0,1,0,1.57,0,.21,0,.78.3.75s.45-1.18.5-1.42c.38-1.85.57-3.88,1.07-5.68.83-3,1.45-7.33.39-9.78-.31-.7-2-2.86-3.75-2.73,1.72-3.39-1.7-5.18-4.48-5.3-4.49-.18-8.19.84-12.38,2.25a19.79,19.79,0,0,0-6.11,3.25,7.35,7.35,0,0,0-3.11,4.48c-1.1,4.35-.33,9.3.3,13.67.07.44.13.89.24,1.32.24.94.58.27.57-.32,0-.89-.08-1.78,0-2.67Z"/>
    <path class="cls-55" d="M287.79,160.52h0a.53.53,0,0,1-.49-.56c.07-1,.18-4.69.18-5.83a.52.52,0,0,1,.52-.53.53.53,0,0,1,.53.53c0,1.18-.11,4.91-.18,5.9a.52.52,0,0,1-.52.49Z"/>
    <path class="cls-55" d="M288.58,164.4a4.71,4.71,0,0,1-3.27-1,.53.53,0,0,1,0-.75.53.53,0,0,1,.75,0c.69.68,2.43.93,4.06.58a3.94,3.94,0,0,0,3-2.1.52.52,0,0,1,.68-.3.53.53,0,0,1,.31.68,5,5,0,0,1-3.8,2.75,8.94,8.94,0,0,1-1.75.18Z"/>
    <path class="cls-56" d="M302.93,151.49c-.09-.07-2.15-1.76-7.31-1.87a8.86,8.86,0,0,0-5.22,1.14c-.75.49-1.2,1-1.83,1.06s-1.07-.57-1.83-1.06a8.84,8.84,0,0,0-5.22-1.14c-5.16.11-7.22,1.8-7.31,1.87a.62.62,0,0,0-.22.64l.32,1.5a.58.58,0,0,0,.54.47l.76,0a7.6,7.6,0,0,0,1.26,3.16c1.54,2.33,4.85,2.44,7,1.76a5.49,5.49,0,0,0,2.65-1.84c.66-.9.95-1.89,2-2,1.07.11,1.36,1.1,2,2a5.53,5.53,0,0,0,2.66,1.84c2.18.68,5.5.57,7-1.76a7.61,7.61,0,0,0,1.27-3.16l.76,0a.58.58,0,0,0,.54-.47l.32-1.5a.65.65,0,0,0-.23-.64Z"/>
    <path class="cls-57" d="M287.15,154.14a2.42,2.42,0,0,0-1.42-2.7,8.3,8.3,0,0,0-3.71-.64,18.7,18.7,0,0,0-3.17.3c-.77.15-1.84.32-2.26,1.1a1.92,1.92,0,0,0-.23.88,5.65,5.65,0,0,0,.12.92v0a7.11,7.11,0,0,0,1.22,2.71c1.17,1.49,3.51,2.12,6,1.37a4.66,4.66,0,0,0,2.18-1.46,6.23,6.23,0,0,0,1.29-2.5Z"/>
    <path class="cls-57" d="M290,154.14a2.4,2.4,0,0,1,1.42-2.7,8.28,8.28,0,0,1,3.7-.64,18.81,18.81,0,0,1,3.18.3c.76.15,1.84.32,2.26,1.1a1.91,1.91,0,0,1,.22.88,4.07,4.07,0,0,1-.12.92v0a7.48,7.48,0,0,1-1.22,2.71,5.5,5.5,0,0,1-6,1.37,4.66,4.66,0,0,1-2.18-1.46,6.23,6.23,0,0,1-1.29-2.5Z"/>
    <path class="cls-57" d="M301.31,177.14c-.6-1.79-3.19-2.69-5.49-3.52l-.07-.15a.15.15,0,0,0-.12-.07s-.12,2-.28,3.74Z"/>
    <path class="cls-57" d="M282,177.14a23.54,23.54,0,0,1,.62-4l-.9.31a.12.12,0,0,0-.11.07l-.08.16c-2.29.82-4.49,1.91-5.41,3.51Z"/>
    <path class="cls-5" d="M282.16,177.14h13.22a.53.53,0,0,1,.2-.12,12.81,12.81,0,0,0-1.44-3.94c-1.52,2.75-9.37,2.91-10.93,0a7.73,7.73,0,0,0-1.27,3.87c.07,0,.14.08.22.17Z"/>
    <path class="cls-56" d="M294.14,174.05l-.07,3.09h3.54l-1.79-3.52-.07-.15a.15.15,0,0,0-.12-.07l-1.5-.51v1.16Z"/>
    <path class="cls-56" d="M283.27,177.14l-.07-3.09v-1.16l-1.5.51a.12.12,0,0,0-.11.07l-.08.16-1.78,3.51Z"/>
    <path class="cls-9" d="M79.37,202.4c-2.1,4.45-3.74,12.65,0,17.3,3.88,4.83.82,6.29-.2,5.61s-.25,3.31,2.13,3.4,2.63,1,1,1.54c1.78,2.71,7.7,3.52,9.65,1.14s6.8.35,6.8.35,6.8,1.14,9.81-.5c3.34-1.83,3.51-3.86,3.51-3.86s-3-.6-1.68-3.23,5.45-2.33,4.85-8.9c-.4-4.45-2.53-5.92-2.22-10,.4-5.46-3.67-12.42-10.73-13.66-7.6-1.32-17-.58-19,6.18a12.59,12.59,0,0,0-3.95,4.65"/>
    <polyline class="cls-26" points="99.87 234.32 93.14 234.32 93.14 226.08 99.87 226.08 99.87 234.32"/>
    <path class="cls-26" d="M104.41,214.37a4.18,4.18,0,0,0,3.3,5,4.06,4.06,0,0,0,4.89-3.4,4.5,4.5,0,0,0-3.3-5.32,4.28,4.28,0,0,0-4.89,3.7"/>
    <path class="cls-26" d="M88.61,214.37a4.18,4.18,0,0,1-3.3,5,4.06,4.06,0,0,1-4.89-3.4,4.5,4.5,0,0,1,3.3-5.32,4.27,4.27,0,0,1,4.89,3.7"/>
    <path class="cls-26" d="M107.81,197.57a12.39,12.39,0,0,0-9.32-5.12H98.3v-.15l-1.81.07-1.8-.07v.15h-.19a12.37,12.37,0,0,0-9.31,5.12c-2.21,3-2.51,6.79-2.33,10.42.13,2.74.61,7.16.75,9.9,2.22,8.3,7.74,9.72,12.88,9.72s10.85-1.42,12.89-9.72c.13-2.74.62-7.16.75-9.9.17-3.63-.12-7.41-2.33-10.42"/>
    <path class="cls-9" d="M91.09,213a1.57,1.57,0,1,1-1.55-1.83A1.72,1.72,0,0,1,91.09,213Z"/>
    <path class="cls-9" d="M101.92,213a1.57,1.57,0,1,0,1.54-1.83,1.71,1.71,0,0,0-1.54,1.83Z"/>
    <path class="cls-27" d="M95.68,219.27h0a.51.51,0,0,1-.47-.55c.06-.93.17-4.57.17-5.69a.52.52,0,0,1,1,0c0,1.16-.11,4.79-.18,5.76a.51.51,0,0,1-.51.48Z"/>
    <path class="cls-58" d="M95.4,223.51a4.61,4.61,0,0,1-3-1.57.52.52,0,0,1,.85-.59c.54.77,2.18,1.31,3.8,1.25a3.82,3.82,0,0,0,3.27-1.48.51.51,0,0,1,.7-.18.51.51,0,0,1,.18.71,4.8,4.8,0,0,1-4.12,2,8.4,8.4,0,0,1-1.71-.12"/>
    <path class="cls-9" d="M83.56,211.87c.16-3.46.62-8.18,3.19-9.7s5.68-1.69,9.54.52c5.16,2.95,7,2.34,9.19,2.34s3.68.22,3.73,4.73c0,.93.07,1.86.12,2.79,0,.54.07,1.09.1,1.63,0,.22.07.81.35.76s.35-1.26.39-1.52a45.12,45.12,0,0,0,.28-5.45c0-3.34,1-9.78-5-13.79-3.64-2.47-11.18-2.71-15.38-1.32a11.21,11.21,0,0,0-6.76,6.46c-1.15,3.25-1.12,5.78-.74,12.2,0,.7.12,1.39.21,2.08.07.46.13.94.23,1.38.24,1,.58.29.57-.32,0-.94-.08-1.86,0-2.79"/>
    <path class="cls-59" d="M93.14,227.63a13.34,13.34,0,0,1-1.64-.36,10.57,10.57,0,0,1-5.78-4,11.94,11.94,0,0,1-1.78-3.8h.17c1.89,5.31,5.35,7.27,9,7.9v.27m6.73,0v-.23c3.72-.62,7.26-2.58,9.06-7.9l.24,0a12,12,0,0,1-7.7,7.78,12.77,12.77,0,0,1-1.6.37"/>
    <path class="cls-60" d="M96.41,227.85a21.06,21.06,0,0,1-3.27-.22v-.27a22.77,22.77,0,0,0,6.73,0v.23a20.08,20.08,0,0,1-3.46.26"/>
    <path class="cls-60" d="M108.93,219.46c.17-.49.32-1,.46-1.57,0-.87.12-1.92.21-3a.19.19,0,0,0,.14.08h0c.15,0,.24-.33.29-.65a15.47,15.47,0,0,1-.9,5.15l-.24,0"/>
    <path class="cls-60" d="M84.11,219.46h-.17a4.35,4.35,0,0,1-.11-.46c-.22-1-.51-1.87-.63-2.83l-.12-1c.07.23.15.32.23.32s.09,0,.14-.11c.07.93.13,1.79.17,2.53.15.56.31,1.08.49,1.57"/>
    <path class="cls-60" d="M96.5,227.61a20,20,0,0,1-3.36-.25c-3.68-.63-7.14-2.59-9-7.9-.18-.49-.34-1-.49-1.57,0-.74-.1-1.6-.17-2.53a1.52,1.52,0,0,0,.15-.7l0-1a29.76,29.76,0,0,0,.61,3.13,7.12,7.12,0,0,0,1.89,3.41,4.45,4.45,0,0,0,3,1.11,5.91,5.91,0,0,0,2.12-.57,16.26,16.26,0,0,1,5.24-1.09l.85,0a10,10,0,0,1,5,1.27,3.14,3.14,0,0,0,1.23.41,5.21,5.21,0,0,0,4-1.79c1.25-1.24,1.9-4.09,1.84-5.76a1.5,1.5,0,0,1,0-.3c0,.24,0,.49,0,.74a1.4,1.4,0,0,0,.17.68c-.09,1.11-.17,2.16-.21,3-.14.55-.29,1.08-.46,1.57-1.8,5.32-5.34,7.28-9.06,7.9a20.2,20.2,0,0,1-3.37.25m-3.64-6.48a.47.47,0,0,0-.3.1.51.51,0,0,0-.13.71,4.61,4.61,0,0,0,3,1.57,8,8,0,0,0,1.44.13h.27a4.8,4.8,0,0,0,4.12-2,.51.51,0,0,0-.18-.71.48.48,0,0,0-.26-.07.5.5,0,0,0-.44.25,3.82,3.82,0,0,1-3.27,1.48h-.24a4.73,4.73,0,0,1-3.56-1.26.52.52,0,0,0-.42-.22"/>
    <path class="cls-61" d="M96.84,223.64a8,8,0,0,1-1.44-.13,4.61,4.61,0,0,1-3-1.57.51.51,0,0,1,.13-.71.47.47,0,0,1,.3-.1.52.52,0,0,1,.42.22,4.73,4.73,0,0,0,3.56,1.26h.24a3.82,3.82,0,0,0,3.27-1.48.5.5,0,0,1,.44-.25.48.48,0,0,1,.26.07.51.51,0,0,1,.18.71,4.8,4.8,0,0,1-4.12,2h-.27"/>
    <path class="cls-59" d="M83.31,215.47c-.08,0-.16-.09-.23-.32l-.09-.78a5.7,5.7,0,0,1-.06-1.24c0-.29.37-.95.32-1.18.13.57.22,1.13.32,1.69l0,1a1.52,1.52,0,0,1-.15.7c0,.07-.09.11-.14.11m26.43-.53a.19.19,0,0,1-.14-.08,1.4,1.4,0,0,1-.17-.68c0-.25,0-.5,0-.74a.74.74,0,0,1,.09-.33.43.43,0,0,1,.36-.22.32.32,0,0,1,.18.06,11.92,11.92,0,0,1,0,1.34c0,.32-.14.62-.29.65h0"/>
    <path class="cls-2" d="M87.2,210.15a.53.53,0,0,1-.49-.32.53.53,0,0,1,.28-.69,5.54,5.54,0,0,1,4.82,0,.53.53,0,0,1,.17.73c-.16.24-4.71.28-4.78.28Z"/>
    <path class="cls-2" d="M101.24,209.91a.52.52,0,0,1-.45-.37.53.53,0,0,1,.35-.66,5.53,5.53,0,0,1,4.8.53.52.52,0,0,1,.08.74c-.18.23-4.71-.23-4.78-.24Z"/>
    <path class="cls-62" d="M102,232c-.16,0-1.37-1-1.37-1a8.79,8.79,0,0,1-.59-.7s-3.52,2.18-3.52,2.18L93,230.35l-.76.72a16.65,16.65,0,0,1-1.75,1.12,14,14,0,0,0-8.09,6.94h28.22A14.62,14.62,0,0,0,102,232Z"/>
    <path class="cls-9" d="M100.08,236.14l-3.82-3.2a.27.27,0,0,1,0-.38.26.26,0,0,1,.38,0l3.22,2.69,1.25-3.37a.27.27,0,1,1,.51.19l-1.51,4.1Z"/>
    <path class="cls-9" d="M92.8,236.14,91.3,232a.27.27,0,0,1,.16-.35.27.27,0,0,1,.35.16l1.24,3.41,3.21-2.69a.27.27,0,1,1,.35.41l-3.81,3.2Z"/>
    <path class="cls-63" d="M144.23,225.64c-.31,5.41-1.19,11.28-1.55,13.49h35.37A69.8,69.8,0,0,1,176.61,226c-.18-7.45.69-8.56,0-15.06C175.46,201.14,169,195,160.4,195c-7.68,0-15,4.77-16.16,15.94-.63,5.94.37,7.9,0,14.73"/>
    <polygon class="cls-11" points="163.21 235.34 157.88 235.34 157.88 228.38 163.21 228.38 163.21 235.34 163.21 235.34"/>
    <path class="cls-11" d="M168.66,202.66c-2.39-3.39-2-5.2-6-5.37h-4.31c-4,.17-2.59.34-5,3.73s-4.52,2.46-4.33,6.56c.09,1.94-2.32,1.22-2.29,4.12a50.43,50.43,0,0,0,.65,7.17c1.28,8.61,7.79,11.37,13.1,11.37s11.26-2.3,13.11-11.37-1-6.44-.84-9.54c.19-4.09-1.75-3.27-4.15-6.67"/>
    <path class="cls-11" d="M162.59,237.23c2.13-.71,3.93-1.9,4.38-4.3a37.52,37.52,0,0,0-4.09-1.45h-4.6s-4.15,1.58-4.84,1.94c-.42,3.21,5.95,4.52,9.15,3.81Z"/>
    <path class="cls-58" d="M159.69,222h-.05a.48.48,0,0,1-.44-.53c.07-.75.17-3.67.17-4.56a.49.49,0,1,1,1,0c0,.85-.1,3.81-.17,4.64a.5.5,0,0,1-.49.45Z"/>
    <path class="cls-58" d="M160.24,226.26a4.58,4.58,0,0,1-3.88-1.73.49.49,0,0,1,.13-.68.49.49,0,0,1,.68.13,3.7,3.7,0,0,0,3.25,1.3,3.88,3.88,0,0,0,3.05-1.27.48.48,0,0,1,.67-.17.49.49,0,0,1,.17.67,4.68,4.68,0,0,1-3.86,1.75Z"/>
    <path class="cls-58" d="M151.1,213.62a.53.53,0,0,1-.45-.17.54.54,0,0,1,0-.75c.92-.82,3.85-1.36,5-.43a.53.53,0,1,1-.66.83c-.71-.57-3-.15-3.64.39a.48.48,0,0,1-.3.13Z"/>
    <path class="cls-58" d="M165.14,213.23a.5.5,0,0,1-.42-.25.52.52,0,0,1,.18-.73,5.52,5.52,0,0,1,5.26.28.54.54,0,0,1,.1.75.53.53,0,0,1-.74.1,4.54,4.54,0,0,0-4.08-.22.45.45,0,0,1-.3.07Z"/>
    <path class="cls-64" d="M154.29,224.35a.48.48,0,0,1-.26-.07.46.46,0,0,1-.08-.67,7.32,7.32,0,0,1,1.66-1.66.77.77,0,0,1,.44-.14.34.34,0,0,1,.31.14c.15.22,0,.58-.22.76a9,9,0,0,0-1.4,1.42.66.66,0,0,1-.15.14.64.64,0,0,1-.3.08"/>
    <path class="cls-64" d="M166.45,224.49a.64.64,0,0,1-.3-.08.66.66,0,0,1-.15-.14,9,9,0,0,0-1.4-1.42c-.22-.19-.37-.54-.23-.76a.35.35,0,0,1,.31-.15.88.88,0,0,1,.45.14,7.63,7.63,0,0,1,1.66,1.67.44.44,0,0,1-.08.66.42.42,0,0,1-.26.08"/>
    <path class="cls-63" d="M168.11,198.54c-4-2.26-7.62-3.1-12.14-1.75-2.46.74-9.12,4-9.91,10.94a20.12,20.12,0,0,0,.88,9.68c.39-1.75.09-6.35,6.26-8.84,7.17-2.88,8-4.92,8-4.92a10.72,10.72,0,0,0,4.69,4.21c4.63,2.15,6.92,3.41,8,9.56a35.51,35.51,0,0,0,1.54-7.22h0c.51-3.66-2.6-9-7.31-11.66"/>
    <path class="cls-2" d="M169,216.25c0,1.14-.12,1.9-1.74,1.9s-1.74-.76-1.74-1.9a1.77,1.77,0,1,1,3.48,0Z"/>
    <path class="cls-2" d="M154.9,216.25c0,1.14-.13,1.9-1.74,1.9s-1.74-.76-1.74-1.9a1.77,1.77,0,1,1,3.48,0Z"/>
    <path class="cls-65" d="M160.43,212.23a1,1,0,1,1,1-1,1,1,0,0,1-1,1"/>
    <path class="cls-50" d="M173.66,239.13a2,2,0,0,0-.13-1.37,2.68,2.68,0,0,0-1.79-1.6,1,1,0,0,1-.64-.69c-.18-.7-.8-1.87-3-2.14a3,3,0,0,1-1.13-.78,1.75,1.75,0,0,0-1.36-.46,2,2,0,0,0-1,.36c-1.27,1-4.89,3.81-8.48,6.68Z"/>
    <path class="cls-50" d="M172.19,239.13a11.42,11.42,0,0,0-5.22-6.2c-1,1.86-2.8,2.87-4.93,3.58-3.2.71-7.83-.52-8.6-3.09a7.73,7.73,0,0,0-4.58,5.71Z"/>
    <path class="cls-66" d="M156.48,239.13l7.26-6a103.68,103.68,0,0,0-9.3,5.89l-.16.13Z"/>
    <path class="cls-2" d="M219.28,226.78a.93.93,0,0,0-1.43-.18c-1.16,1.44-1.13,3.72-1.32,5.53-.05.53-.11,1.12-.11,1.73,0-.12-.06-.23-.08-.35a12.47,12.47,0,0,1,.16-4c.29-1.94,1.11-4.68-.05-6.47a.66.66,0,0,0-.71-.29l-.13,0a.48.48,0,0,0-.33.58c.1.65-.47-1.56-.64-.9s-.39,4.89-.58,5.61a19.79,19.79,0,0,0-.72,4c-.06,1.93.24,5.06,2.48,5.6a1.07,1.07,0,0,0,1.32-.84,2.6,2.6,0,0,0,.5.55.52.52,0,0,0,.85-.22,8.12,8.12,0,0,0,.29-2.21,32.3,32.3,0,0,1,.62-3.49c.3-1.53.89-3.32-.12-4.67Z"/>
    <path class="cls-2" d="M221.83,231.63a12.59,12.59,0,0,0-1.24-3.6c-.12-.19-.46-.26-.58,0a7,7,0,0,0-.5,3.92c.14,1.21.39,3.09,1.81,3.37a.86.86,0,0,0,1-.35c.58-1.13-.13-2.19-.44-3.32Z"/>
    <path class="cls-2" d="M235.1,227.3a75.85,75.85,0,0,1-2.67-9c-.1-.51.08-1,.41-.52a35.84,35.84,0,0,1,4.28,8.25c1.1,2.79,2.79,7.17,2,9-.19.44-.58.64-1.06,0-1.55-2-2.08-5-3-7.72Z"/>
    <path class="cls-2" d="M213.17,227.12A78.74,78.74,0,0,0,215.5,218c.08-.52-.12-1-.43-.51a35.78,35.78,0,0,0-4,8.4c-1,2.84-2.53,7.28-1.68,9.07.2.43.6.62,1,0,1.48-2.06,1.89-5,2.69-7.82Z"/>
    <path class="cls-2" d="M211.38,222.63a78.56,78.56,0,0,0,4.21-8.41c.19-.49.09-1-.31-.58a36,36,0,0,0-5.66,7.36c-1.58,2.55-3.5,7-2.83,8.85.15.44.54.67,1.05.08,1.67-1.91,2.16-4.73,3.54-7.3Z"/>
    <path class="cls-2" d="M236.53,223.27a77.46,77.46,0,0,1-5.6-7.55c-.28-.45-.26-.94.2-.64a35.87,35.87,0,0,1,6.85,6.28c2,2.24,4.65,6.27,4.32,8.22-.08.47-.41.75-1,.26-2-1.59-2.95-4.28-4.75-6.57Z"/>
    <path class="cls-2" d="M234.86,230.89c-.23-2,.6-6.11.25-8.13-.05-.31-1.34,1.7-1.48,2a12.74,12.74,0,0,0-1.28,6.53c0,.45,0,.95.07,1.46a5.27,5.27,0,0,1-.19-.68c-.3-1.32.31-6.6-.55-7.74,0-.12-.64,3.27-.58,3.14a.32.32,0,0,0-.43-.43c-.18.09-.34.18-.5.28a.41.41,0,0,0-.21.14,7.46,7.46,0,0,0-2.65,3.36c-.53,1.24-1.4,3.36-.15,4.42a.77.77,0,0,0,.9.12c1.12-.78,1-2.21,1.29-3.43,0-.14.08-.28.12-.42.09.65.2,1.27.29,1.81.27,1.66.81,3.85,2.76,4a.89.89,0,0,0,.87-.65v0a3.43,3.43,0,0,0,.68.83.91.91,0,0,0,1.49-.39c.53-1.9-.48-4.21-.7-6.14Z"/>
    <path class="cls-67" d="M232.42,216.74a4.25,4.25,0,0,0,3.34,5.08,4.12,4.12,0,0,0,5-3.44,4.57,4.57,0,0,0-3.34-5.39,4.34,4.34,0,0,0-5,3.75Z"/>
    <path class="cls-67" d="M216.45,216.74a4.25,4.25,0,0,1-3.34,5.08,4.12,4.12,0,0,1-5-3.44A4.56,4.56,0,0,1,211.5,213a4.34,4.34,0,0,1,4.95,3.75Z"/>
    <path class="cls-67" d="M235.86,200.54a12.49,12.49,0,0,0-9.42-5.18h-.19v-.14l-1.82.07-1.83-.07v.14h-.19a12.51,12.51,0,0,0-9.43,5.18c-2.23,3-2.53,6.87-2.36,10.53.14,2.77.63,6.46.77,9.23,2.24,8.4,7.83,9.83,13,9.83s11-1.43,13-9.83c.13-2.77.63-6.46.76-9.23.17-3.66-.12-7.49-2.36-10.53Z"/>
    <polygon class="cls-67" points="227.83 236.91 221.02 236.91 221.02 228.58 227.83 228.58 227.83 236.91 227.83 236.91"/>
    <path class="cls-2" d="M219,215.36a1.58,1.58,0,1,1-1.56-1.85,1.73,1.73,0,0,1,1.56,1.85Z"/>
    <path class="cls-2" d="M233.16,215.36a1.58,1.58,0,1,1-1.56-1.85,1.72,1.72,0,0,1,1.56,1.85Z"/>
    <path class="cls-2" d="M215.12,212.79a.5.5,0,0,1-.36-.14.53.53,0,0,1,0-.74,4.05,4.05,0,0,1,3-.89,3.38,3.38,0,0,1,2.34.93.52.52,0,0,1-.83.63,2.36,2.36,0,0,0-1.57-.52,3,3,0,0,0-2.17.57.51.51,0,0,1-.38.16Z"/>
    <path class="cls-54" d="M223.59,221.69h0a.52.52,0,0,1-.49-.55c.07-.94.18-4.63.18-5.75a.52.52,0,0,1,.52-.52.52.52,0,0,1,.52.52c0,1.06-.1,4.78-.18,5.82a.52.52,0,0,1-.52.48Z"/>
    <path class="cls-5" d="M228.38,224.11c-1.9,3.47-8.25,1.93-8.58-.55l8.58.55Z"/>
    <path class="cls-54" d="M220.43,224a4.89,4.89,0,0,0,3.73,1.66,4.43,4.43,0,0,0,3.42-1.19l-7.15-.47Zm-1.06-.42a.42.42,0,0,1,.11-.35.42.42,0,0,1,.35-.13l8.58.55a.43.43,0,0,1,.35.23.43.43,0,0,1,0,.41,4.77,4.77,0,0,1-4.64,2.24c-2.16-.1-4.52-1.23-4.75-2.95Z"/>
    <path class="cls-2" d="M233.89,212.79a.5.5,0,0,1-.37-.16,3.06,3.06,0,0,0-2.23-.56,2.23,2.23,0,0,0-1.51.5.52.52,0,1,1-.84-.62,3.25,3.25,0,0,1,2.29-.92,4,4,0,0,1,3,.88.52.52,0,0,1,0,.74.5.5,0,0,1-.36.14Z"/>
    <path class="cls-2" d="M240.29,210.19l-.15-.07a3.06,3.06,0,0,0,.83-3.22,2.4,2.4,0,0,0-1-1.3,1.2,1.2,0,0,0-.45-.16,3.26,3.26,0,0,0,.3-3.56,2.51,2.51,0,0,0-1.88-1.25,3,3,0,0,0-.14-2.43,3.52,3.52,0,0,0-2.94-1.8,4.59,4.59,0,0,0-5.22-2.39c-1.43-.9-3.9-1.49-5-.41-1.27-1.11-3.53-.28-4.57.4a3.84,3.84,0,0,0-4.37,1.51,3.58,3.58,0,0,0-3.09,2.61,2.84,2.84,0,0,0-2,2.94c0,.1,0,.19.07.29a2.57,2.57,0,0,0-1.24,1,3,3,0,0,0-.27,2.48l-.06.1a1.94,1.94,0,0,0,.29,2.29l.07.05a1.66,1.66,0,0,0-.92.62,1.78,1.78,0,0,0,.14,2.36,2.47,2.47,0,0,0,.71.46l-.1.05-.34.26a1.32,1.32,0,0,0-.36.55.92.92,0,0,0-.11.43.86.86,0,0,0,0,.45.89.89,0,0,0,.11.43,1,1,0,0,0,.22.38.89.89,0,0,0,.31.3.78.78,0,0,0,.37.22.85.85,0,0,0,.43.12,1.31,1.31,0,0,0,.68,0,2.35,2.35,0,0,0,.43-.19,1.55,1.55,0,0,0,.48-.44l.14-.17a1.61,1.61,0,0,0,.21-.79v0a2.06,2.06,0,0,0-.24-.87l-.27-.35-.26-.2a1.63,1.63,0,0,0,.8-.64,1.92,1.92,0,0,0-.35-2.15,2.59,2.59,0,0,0,1.23-.28,1.3,1.3,0,0,0,.66-1.15,4,4,0,0,0-.12-.62,1.1,1.1,0,0,0,1.49-.39,1.55,1.55,0,0,0,0-1.63c1.06.81,2.17,1.24,2.32-.22a3.12,3.12,0,0,0-.67-1.93c-.41-.6-.78-.91-1.22-1.5.14.2.79.13,1.64,1.27.53.71.71,1.8,1.54,1.91a1.41,1.41,0,0,0,1-.61c.78-1.72-.31-3-.45-4.68,0,.22.56,1.47.64,1.78a9.33,9.33,0,0,0,.81,2.09,1.17,1.17,0,0,0,1.9-.11,5.18,5.18,0,0,0,.33-2.44,27.13,27.13,0,0,1,.21-3c.5,1.54,0,3.29.4,4.88a1.31,1.31,0,0,0,2.29.24,5.68,5.68,0,0,0,.54-2.52,6.13,6.13,0,0,1,.61-2.5c-.08,1.63-.79,3.5.05,5.3a1.18,1.18,0,0,0,1.91.07,11.24,11.24,0,0,0,.66-2.23,3.18,3.18,0,0,1,1.4-1.79,4.76,4.76,0,0,0-.64,1,5.62,5.62,0,0,0-.51,1.35c-.26.85-.33,2.88,1.12,2.79.82,0,1.11-.88,1.61-1.42.68-.75,1-1.3,2-1.36-.39,0-1.34,1.19-1.57,1.53a3,3,0,0,0-.74,1.86c.07.65.81,1.34,1.48.85.88-.64,1.81-1.2,2.74-1.77-.62,1.24-2.2,2.09-2.35,3.53a1.24,1.24,0,0,0,.65,1.13,2.47,2.47,0,0,0,1.83,0,2.62,2.62,0,0,0-.81,1.14,1.3,1.3,0,0,0,.59,1.44,2.53,2.53,0,0,0,2,.21s-.51.28-.84.54a2.32,2.32,0,0,0-.75,1,1,1,0,0,0,.43,1,4.11,4.11,0,0,0,1.7.77,1.77,1.77,0,0,0,1.56-.2,1.75,1.75,0,0,0,.85-1.18,2.24,2.24,0,0,0,0-1.09,1.79,1.79,0,0,0-.72-1Z"/>
    <path class="cls-2" d="M228.25,229.64c-1.23.16-2.49,0-2.59-.87a1.08,1.08,0,0,0-2.08,0c-.11.89-1.19,1.14-2.41.94-.71-.12-1.55-.2-1.12.28s.45.74.93,1a8.68,8.68,0,0,0,7.29,0c.39-.21,1.88-1.55,0-1.31Z"/>
    <path class="cls-68" d="M237.65,239.13c-1.38-1.51-3.72-3.26-8.18-4.67l-1.51-1-3.54,1.88-3.53-1.88-1.56,1.09c-4.45,1.41-6.76,3.13-8.13,4.61Z"/>
    <path class="cls-69" d="M228.08,239.16,224.24,236a.27.27,0,0,1,.35-.42l3.24,2.72,1.26-3.39a.27.27,0,0,1,.35-.16.27.27,0,0,1,.16.35l-1.52,4.11Z"/>
    <path class="cls-69" d="M220.76,239.17,219.25,235a.28.28,0,0,1,.52-.18l1.24,3.42,3.23-2.71a.28.28,0,0,1,.39,0,.27.27,0,0,1,0,.38l-3.83,3.22Z"/>
    <path class="cls-70" d="M172.45,303.86c-1.28-1.07-3.07-3-5.49-3.88l-.07-.16a.15.15,0,0,0-.12-.07l-1.5-.51v.19l-.48-.25-5,.86-5-.82-.49.23v-.21l-1.5.51a.12.12,0,0,0-.11.07l-.08.16c-2.41.87-4.21,2.77-5.49,3.88Z"/>
    <polygon class="cls-23" points="163.24 302.15 156.45 302.15 156.45 293.83 163.24 293.83 163.24 302.15 163.24 302.15"/>
    <path class="cls-5" d="M158.62,303.86l-.89-1.65a.36.36,0,0,1,.09-.46l1.59-1.21a.34.34,0,0,1,.21-.24.32.32,0,0,1,.14,0h.11a.32.32,0,0,1,.14,0,.34.34,0,0,1,.21.24l1.59,1.21a.36.36,0,0,1,.09.46l-.89,1.65h4.19l.08-3.46v-1l-.48-.25s-1.49-1.4-1.44-1.38-3.53,2.24-3.53,2.24l-3.54-2.24-1.44,1.42-.49.23v.95l.08,3.46Z"/>
    <path class="cls-33" d="M179.21,271.71a.2.2,0,0,0-.15-.1s-.82-.05-2-1.6a9.72,9.72,0,0,1-.71-1.51,22.93,22.93,0,0,0-4.4-7.29c-2.85-2.86-7.2-4.31-12.93-4.31-10.72,0-12.79,6.58-13,7.37-.63.36-4.94,3.23-4.12,13.48a20.74,20.74,0,0,0,2.09,8.06c1.26,2.5,1.17,3.86.87,4.56a1.4,1.4,0,0,1-.84.84c-.38.12-.39.35-.37.44.07.51,1.36,1,2.31,1a2.14,2.14,0,0,0,1.09-.27,1.46,1.46,0,0,1-.64,1.4.3.3,0,0,0-.17.35c.12.39,1.13.5,1.72.5a5.54,5.54,0,0,0,2.38-.52,9.13,9.13,0,0,1-.59.89.16.16,0,0,0,0,.16.2.2,0,0,0,.11.11,3.13,3.13,0,0,0,.73.1,3.38,3.38,0,0,0,3.05-3.05,2.28,2.28,0,0,0,0-.74c4.38.28,12.36.82,12.7.88a2.84,2.84,0,0,1,.42.43,5.48,5.48,0,0,0,4.28,2.33,4.73,4.73,0,0,0,.83-.07c.93-.13,1.17-.22,1.25-.42s-.05-.34-.21-.54a2.54,2.54,0,0,1-.6-2.22,3.11,3.11,0,0,0,1,.19,2.07,2.07,0,0,0,1.34-.45.68.68,0,0,0,.32-.47c0-.18-.14-.29-.29-.42-.36-.3-1-.79-.45-2.66a14.64,14.64,0,0,0,2.28-4.18,18,18,0,0,0,.41-11l.32,0a2.28,2.28,0,0,0,1.92-1.17.2.2,0,0,0,0-.17Z"/>
    <path class="cls-23" d="M171.28,266.33a12.82,12.82,0,0,0-9.47-5.35h-.18v-.14l-1.76.07-1.77-.07V261h-.18a13.17,13.17,0,0,0-9.46,5.35c-3.6,4.86-2,15.74-1.22,19.57,2.18,8.13,7.59,9.52,12.63,9.52s10.62-1.39,12.62-9.52c.78-3.41,2.47-14.28-1.21-19.57Z"/>
    <path class="cls-9" d="M154.56,281.12a1.53,1.53,0,1,1-1.51-1.79,1.67,1.67,0,0,1,1.51,1.79Z"/>
    <path class="cls-9" d="M168.33,281.12a1.54,1.54,0,1,1-1.51-1.79,1.68,1.68,0,0,1,1.51,1.79Z"/>
    <path class="cls-71" d="M150.93,277.83a.49.49,0,0,1-.34-.14.51.51,0,0,1,0-.72,4.4,4.4,0,0,1,4.88-.45.51.51,0,0,1-.57.84,3.39,3.39,0,0,0-3.58.31.52.52,0,0,1-.37.16Z"/>
    <path class="cls-71" d="M169,277.87a.52.52,0,0,1-.37-.16,3.1,3.1,0,0,0-3.72.05.51.51,0,1,1-.61-.81c1.52-1.15,3.93-1.12,5.06.06a.51.51,0,0,1,0,.72.49.49,0,0,1-.34.14Z"/>
    <path class="cls-21" d="M159.06,287.25h0a.5.5,0,0,1-.46-.54c.06-.91.16-4.48.16-5.57a.5.5,0,0,1,.51-.5.5.5,0,0,1,.5.5c0,1.14-.1,4.7-.17,5.64a.5.5,0,0,1-.5.47Z"/>
    <path class="cls-21" d="M159.55,291.28h-.37a4.48,4.48,0,0,1-3.26-1.29.5.5,0,0,1,.78-.64,3.62,3.62,0,0,0,2.53.92,4.68,4.68,0,0,0,3.4-1,.5.5,0,0,1,.71,0,.5.5,0,0,1,0,.71,5.57,5.57,0,0,1-3.79,1.26Z"/>
    <path class="cls-33" d="M149.06,270.86a6.85,6.85,0,0,0,4.71,3.55s.33-.78-1.43-6.24c0,0,4.23,5.46,11.1,6.24l-1.68-4.54a33.17,33.17,0,0,0,7.9,4.92,10.52,10.52,0,0,0,5.46,1.16s3.24-18.8-20-15.52c0,0-13,1.75-9.69,19.92a20.57,20.57,0,0,0,3.62-9.49Z"/>
    <path class="cls-33" d="M163.6,294.88c-1.16.3-2.41,0-2.51-.85s-1.89-1-2,0-1.15,1.11-2.33.92a7.67,7.67,0,0,1-1.41-.57c-.47-.05-.44.4,0,.86a4.76,4.76,0,0,0,1.24.95,8.4,8.4,0,0,0,7.07-.05c.37-.2,1.6-1,1.61-1.34,0-.78-1.18,0-1.64.08Z"/>
    <path class="cls-72" d="M165.28,300.4l-.08,3.46h3.73L167,300l-.07-.16a.15.15,0,0,0-.12-.07l-1.5-.51v1.16Z"/>
    <path class="cls-72" d="M154.42,303.86l-.08-3.46v-1.16l-1.5.51a.12.12,0,0,0-.11.07l-.08.16-2,3.88Z"/>
    <path class="cls-70" d="M158.62,303.86H161l.89-1.65a.36.36,0,0,0-.09-.46l-1.59-1.21a.34.34,0,0,0-.21-.24.32.32,0,0,0-.14,0h-.11a.32.32,0,0,0-.14,0,.34.34,0,0,0-.21.24l-1.59,1.21a.36.36,0,0,0-.09.46l.89,1.65Z"/>
    <path class="cls-39" d="M164.77,299.22a.27.27,0,0,0-.35.16l-1.26,3.39-3.23-2.71,0,0-.05,0h-.15l0,0-.05,0,0,0-3.24,2.71-1.24-3.43a.28.28,0,0,0-.35-.17.28.28,0,0,0-.17.35l1.51,4.17,3.66-3.07,3.66,3.07,1.52-4.12a.27.27,0,0,0-.16-.35Z"/>
    <path class="cls-2" d="M231.77,261.63c0,3.24-3.2,5.87-7.15,5.87s-7.15-2.63-7.15-5.87,3.2-5.87,7.15-5.87,7.15,2.63,7.15,5.87Z"/>
    <path class="cls-26" d="M214.88,281.8a3,3,0,1,1-3.4-3.17c1.63-.21,3.15,1.22,3.4,3.17Z"/>
    <path class="cls-26" d="M234.36,281.8a3,3,0,1,0,3.4-3.17,3.32,3.32,0,0,0-3.4,3.17Z"/>
    <path class="cls-26" d="M234.94,303.53c-1.1-2.73-2.25-3.33-7.42-5.65a5.29,5.29,0,0,0-2.9.21,5.3,5.3,0,0,0-2.9-.21c-3.85,1.72-5.47,2.5-6.5,3.9,6.06,2.53,14.05.2,19.72,1.75Z"/>
    <path class="cls-26" d="M235.61,266c-2.4-3.41-4.86-3.51-8.83-3.68h-4.32c-4,.17-6.44.27-8.84,3.68s-1.49,4.28-1.3,8.39c.15,3.11-1.71.93-.43,9.56a13.15,13.15,0,0,0,12.73,11.4c3.94,0,11-2.37,12.72-11.4s-.57-6.45-.42-9.56c.18-4.11,1.09-5-1.31-8.39Z"/>
    <polygon class="cls-26" points="227.51 302.57 221.72 302.57 221.72 293.63 227.51 293.63 227.51 302.57 227.51 302.57"/>
    <path class="cls-27" d="M223.76,287.17h0a.51.51,0,0,1-.45-.54c.07-.74.17-3.67.17-4.57a.5.5,0,0,1,1,0c0,.85-.1,3.82-.18,4.66a.49.49,0,0,1-.49.45Z"/>
    <path class="cls-27" d="M224.42,291.06a5.47,5.47,0,0,1-3.95-1.34.49.49,0,0,1,.73-.66,4.85,4.85,0,0,0,3.73,1,3.81,3.81,0,0,0,2.64-.95.49.49,0,0,1,.68-.13.51.51,0,0,1,.13.69A4.53,4.53,0,0,1,225,291l-.58,0Z"/>
    <path class="cls-2" d="M219.29,281.73a1.77,1.77,0,1,1-1.74-2.07,1.93,1.93,0,0,1,1.74,2.07Z"/>
    <path class="cls-2" d="M219.75,278.05a.53.53,0,0,1-.4-.18,2.13,2.13,0,0,0-1.63-.69,2.78,2.78,0,0,0-1.93.7.55.55,0,0,1-.76,0,.53.53,0,0,1,0-.75,3.79,3.79,0,0,1,2.73-1,3.26,3.26,0,0,1,2.41,1.05.54.54,0,0,1-.05.75.52.52,0,0,1-.35.14Z"/>
    <path class="cls-2" d="M229.92,278a.54.54,0,0,1-.33-.12.53.53,0,0,1-.09-.74,3,3,0,0,1,2.21-1,3.15,3.15,0,0,1,2.48,1,.53.53,0,0,1,0,.75.54.54,0,0,1-.76,0,2.16,2.16,0,0,0-1.66-.63,2,2,0,0,0-1.42.59.53.53,0,0,1-.42.21Z"/>
    <path class="cls-2" d="M233.41,281.73a1.77,1.77,0,1,1-1.74-2.07,1.93,1.93,0,0,1,1.74,2.07Z"/>
    <path class="cls-2" d="M215.92,263.26c3.79-2.54,9.68-2.79,14-1.35,2.38.78,8.15,2.87,8.78,10.7a15.61,15.61,0,0,1-1.15,9.25s1.08-13.33-13.13-13.33S211.8,282.6,211.8,282.6a11.67,11.67,0,0,1-1.49-5.34h0c-.73-3.74-.56-9.86,5.61-14Z"/>
    <path class="cls-68" d="M235.29,303.86c-1.08-2.89-2-3.6-6.13-5.47a.21.21,0,0,0-.19,0,.29.29,0,0,0-.11.16c-1.06,3-7.14,3.13-8.23-.07v-.05a.21.21,0,0,0-.11-.15.25.25,0,0,0-.19,0c-4.28,2-5.28,2.69-6.37,5.59Z"/>
    <path class="cls-2" d="M302.68,303.86a13.1,13.1,0,0,0-6.76-5.2l-2.16-.79-5.06,2.51-4.92-2.51-2.08.8a13,13,0,0,0-6.75,5.19Z"/>
    <polygon class="cls-23" points="292.14 301.17 285.49 301.17 285.49 293.03 292.14 293.03 292.14 301.17 292.14 301.17"/>
    <path class="cls-5" d="M294,303.86l-.22-6s-1.48-1.39-1.42-1.37-3.52,2.23-3.52,2.23l-3.51-2.23-1.53,1.37-.16,6Z"/>
    <path class="cls-23" d="M296.55,281.49a4.14,4.14,0,0,0,3.27,4.95,4,4,0,0,0,4.83-3.35,4.47,4.47,0,0,0-3.27-5.27,4.24,4.24,0,0,0-4.83,3.67Z"/>
    <path class="cls-23" d="M281,281.49a4.14,4.14,0,0,1-3.26,4.95,4,4,0,0,1-4.84-3.35,4.47,4.47,0,0,1,3.27-5.27,4.24,4.24,0,0,1,4.83,3.67Z"/>
    <path class="cls-23" d="M300,265.21a12.27,12.27,0,0,0-9.2-5.39h-.19v-.14l-1.79.07-1.78-.07v.14h-.19c-3.62.14-7,2.43-9.2,5.39-3.63,4.91-2,15.87-1.22,19.73,2.19,8.21,7.31,9.61,12.38,9.61s10.38-1.4,12.39-9.61c.79-3.44,2.49-14.39-1.22-19.73Z"/>
    <path class="cls-39" d="M285.2,302.2l-1.46-4a.27.27,0,1,1,.5-.18l1.2,3.32,3.14-2.63a.27.27,0,0,1,.38,0,.26.26,0,0,1,0,.37l-3.72,3.12Z"/>
    <path class="cls-39" d="M292.3,302.2l-3.72-3.12a.27.27,0,0,1,0-.37.26.26,0,0,1,.37,0l3.15,2.63,1.21-3.28a.28.28,0,0,1,.35-.16.27.27,0,0,1,.15.34l-1.48,4Z"/>
    <path class="cls-9" d="M279.37,277.2a.54.54,0,0,1-.35-.14.52.52,0,0,1,0-.72,4.56,4.56,0,0,1,2.91-.87h0a3.7,3.7,0,0,1,2.57.82.51.51,0,0,1-.73.71,2.68,2.68,0,0,0-1.84-.51h0a3.76,3.76,0,0,0-2.17.55.52.52,0,0,1-.37.16Z"/>
    <path class="cls-9" d="M292.84,277.22a.51.51,0,0,1-.31-.91c1.53-1.16,4.46-1.13,5.59.05a.52.52,0,0,1,0,.72.51.51,0,0,1-.72,0c-.78-.82-3.12-.79-4.24.06a.49.49,0,0,1-.3.1Z"/>
    <path class="cls-21" d="M288,286.31h0a.52.52,0,0,1-.47-.55c.07-.92.17-4.52.17-5.61a.51.51,0,0,1,1,0c0,1.14-.1,4.73-.17,5.68a.51.51,0,0,1-.51.48Z"/>
    <path class="cls-21" d="M288.49,290.37h-.37a4.55,4.55,0,0,1-3.28-1.3.51.51,0,0,1,.07-.72.52.52,0,0,1,.71.07,3.65,3.65,0,0,0,2.55.93,4.74,4.74,0,0,0,3.43-1,.51.51,0,1,1,.71.72,5.59,5.59,0,0,1-3.82,1.27Z"/>
    <path class="cls-9" d="M276.24,277.55c.1-2-.27-6.26,2.35-7.38,1-.43,2.65-1.81,3.62-2.11,4.84-1.53,1.36-.14,7.76-1.17,3.56-.58,7.18,1.93,9.1,2.21,1.53.23,2.26,4.3,2.08,7.8a30.66,30.66,0,0,1-.24,3.22c0,.2-.21.84.27.84s.79-1,1-2.52a39.22,39.22,0,0,0,.56-8.81c-.06-1.21.1-5.24-2.34-5.93-7.83-2.2-25.85-4.31-25.85,6.52,0,4.81.73,10.51,1.22,10.84s.61-.12.6-.58c0-.71-.17-2.07-.12-2.93Z"/>
    <path class="cls-9" d="M295.25,279.1a2.66,2.66,0,0,1,2.38,1.09.5.5,0,0,1-.22.68.52.52,0,0,1-.69-.23,2,2,0,0,0-1.62-.52c-.26,0-1.12.11-1.35.73a.51.51,0,0,1-.65.3.52.52,0,0,1-.3-.66A2.39,2.39,0,0,1,295,279.1Z"/>
    <path class="cls-9" d="M281.88,278.9h.18a2.75,2.75,0,0,1,2.45,1.57.52.52,0,0,1-.26.67.51.51,0,0,1-.67-.27,1.77,1.77,0,0,0-1.57-.95,1.85,1.85,0,0,0-1.76.83.51.51,0,0,1-.89-.5,2.82,2.82,0,0,1,2.52-1.35Z"/>
    <path class="cls-73" d="M301.67,278.48H275.9a.51.51,0,1,1,0-1h25.77a.51.51,0,1,1,0,1Z"/>
    <path class="cls-73" d="M294.71,284.36a4.23,4.23,0,0,1-3.17-1.27c-1.73-1.81-1.62-4.86-1.62-5a.53.53,0,1,1,1.05,0s-.09,2.74,1.33,4.21a3.15,3.15,0,0,0,2.41.95,4.62,4.62,0,0,0,3.49-1.26,5.63,5.63,0,0,0,1.3-3.91.53.53,0,0,1,.51-.54.53.53,0,0,1,.54.51,6.56,6.56,0,0,1-1.59,4.67,5.66,5.66,0,0,1-4.25,1.58Z"/>
    <path class="cls-73" d="M282.28,284.36a5.68,5.68,0,0,1-4.26-1.58,6.58,6.58,0,0,1-1.59-4.67.53.53,0,0,1,.54-.51.53.53,0,0,1,.51.54,5.6,5.6,0,0,0,1.3,3.9,4.66,4.66,0,0,0,3.5,1.27,3.19,3.19,0,0,0,2.43-.95c1.42-1.48,1.33-4.19,1.32-4.21a.53.53,0,0,1,.51-.55.51.51,0,0,1,.54.5c0,.13.12,3.18-1.61,5a4.25,4.25,0,0,1-3.19,1.28Z"/>
    <path class="cls-9" d="M300.58,269.7a4.12,4.12,0,0,1-3,.71c-1.46-.23-1.5-1.33-.56-2.31-1.77,2.12-8.69,4.51-11.64,3.4a1.27,1.27,0,0,1-.56-2c-.42.41-4.18,3.13-6.41,2-1-.52,0-1.85,0-1.85-1.3,1.17-4.15,2.17-5.34.83s.34-3.21,1.55-3.95a1.26,1.26,0,0,1-1.41-.63c-.78-1.62,2.34-4.79,7.71-6.62,7.82-2.67,15.31-.63,18.12,1.18,1.37.89,3.2,2.48,3.57,4.25a4.46,4.46,0,0,1-2.08,4.95Z"/>
  </g>
</svg>
