<?xml version="1.0" encoding="utf-8"?>
<!-- Generator: Adobe Illustrator 25.2.0, SVG Export Plug-In . SVG Version: 6.00 Build 0)  -->
<svg version="1.1" id="Layer_1" xmlns="http://www.w3.org/2000/svg" xmlns:xlink="http://www.w3.org/1999/xlink" x="0px" y="0px"
	 viewBox="0 0 100 100" style="enable-background:new 0 0 100 100;" xml:space="preserve">
<style type="text/css">
	.st0{fill:#17E9FF;stroke:#43AFFF;stroke-miterlimit:10;}
	.st1{display:none;stroke:#000000;stroke-miterlimit:10;}
	.st2{stroke:#000000;stroke-miterlimit:10;}
</style>
<path class="st0" d="M67.7,71.3c0.2,0,0.4,0.1,0.4,0.2c0,0.2-0.2,0.1-0.3,0.1c-0.9,0-1.7-0.1-2.6-0.1c-1.7,0-3.5,0.2-5.2,0.2
	c-1.6-0.1-3.3,0.1-4.9-0.1c-1.8-0.2-3.6-0.2-5.3-0.4c-1.1-0.1-2.2-0.1-3.3-0.3c-0.5-0.1-1,0.3-1.5,0.3c-0.2,0-0.5,0.1-0.6-0.3
	c0-0.1-0.2-0.1-0.3-0.1c-1.3,0.1-2.5,0-3.8,0.2c-1.2,0.3-2.3,0-3.4,0c-1.5,0-3-0.3-4.5-0.2c-0.6,0-1.2,0-1.8,0
	c-0.5,0-1.1-0.2-1.6,0.1c-0.2,0.1-0.8-0.1-1.3-0.1c-0.1,0-0.3-0.1-0.4,0c-1,0.5-2.1,0.1-3.2,0.1c-0.9,0-1.1-0.6-1.5-1.3
	c-0.6-1.1-1.1-2.2-1.9-3.2c-1.5-1.9-2.4-4-3.4-6.1c-0.9-2-2.2-3.9-3.2-5.9c-1-1.9-1.9-3.9-2.8-5.9c-1-2.2-1.7-4.5-2.9-6.6
	c-0.2-0.3-0.2-0.6-0.4-1c-0.1-0.4,0.1-0.5,0.4-0.4c1.5,0.2,3,0,4.5-0.1c1.3,0,2.7,0.1,4,0.3c1.2,0.1,2.4,0.4,3.6,0.3
	c1.3-0.1,2.5,0.3,3.6,0.5c1.8,0.4,3.6,0.4,5.4,0.8c1.7,0.4,3.4,0.6,5.1,0.9c0.7,0.1,1.4,0.1,1.9-0.6c1-1.3,2.1-2.5,3.1-3.6
	s2.1-2.2,3.3-3.2c0.8-0.6,1.3-1.4,2.1-2c1.6-1.3,3-2.8,4.2-4.5c0.2-0.2,0.4-0.4,0.6-0.1c0.8,0.8,1.8,1.3,2.6,2s1.6,1.4,2.4,2
	c1.9,1.5,3.8,2.9,5.6,4.5c1.3,1.2,2.5,2.4,3.8,3.5c0.9,0.8,2,1.3,2.8,2.1c0.2,0.2,0.5,0,0.6-0.2c0.2-0.2,0.4-0.3,0.6-0.2
	c0.6,0.2,1.1,0,1.6-0.1c1.7-0.5,3.4-0.7,5.1-1.1c0.6-0.1,1.2-0.4,1.8-0.6c1.8-0.5,3.7-0.8,5.6-1c1-0.1,2.1-0.4,3.1-0.7
	c1-0.4,2-0.3,3-0.6c0.9-0.2,1.7-0.2,2.6-0.1c0.2,0,0.3,0,0.3,0.2s-0.1,0.3-0.2,0.3c-0.8,0.3-0.9,1.1-1.3,1.6
	c-0.1,0.2-0.2,0.5-0.3,0.7c-0.4,1.6-1.4,3-2.1,4.5c-0.4,0.8-0.8,1.7-1,2.6c-0.2,0.9-0.7,1.7-1.1,2.6c-1,2.3-2.2,4.6-3,6.9
	c-0.8,2.2-1.8,4.4-2.6,6.7c-0.4,1.3-1,2.6-1.5,3.9c-0.2,0.5-0.2,0.8,0.5,0.9c0.1,0,0.2,0,0.2,0.2S78.7,70,78.6,70
	c-0.8-0.3-0.8,0.3-1.1,0.7c-0.1,0.2-0.1,0.4-0.2,0.6s-0.1,0.4-0.4,0.4c-0.2-0.1-0.1-0.3-0.1-0.4c0.1-0.1,0.1-0.3-0.1-0.3
	s-0.5-0.1-0.5,0.2c-0.1,0.4-0.3,0.5-0.7,0.3c-0.4-0.2-0.6,0.3-0.9,0.4c-0.4,0.1-0.3-0.5-0.8-0.5c-1.5,0.1-3,0-4.5,0
	c-0.4,0-0.9,0-1.3-0.1C68.1,71.1,67.9,71.2,67.7,71.3z M68.4,47.7c0.2,0,0.4,0.1,0.6,0.1s0.4-0.1,0.5-0.3c0.1-0.1,0.1-0.2,0-0.3
	c-0.2-0.1-0.3-0.2-0.5,0C68.8,47.3,68.5,47.4,68.4,47.7c-0.5,0-0.8,0.5-1.4,0.4c0.3-0.2,0.6-0.4,0.8-0.7c-0.2-0.2-0.4-0.3-0.6-0.5
	s-0.3-0.2-0.4,0c-0.1,0.3-0.4,0.4-0.6,0.5c-0.6,0.5-0.8,0.5-1-0.3c0.3-0.1,0.4,0.4,0.7,0.1c0.4-0.4-0.4-0.5-0.2-0.9
	c0.1,0.1,0.2,0.1,0.2,0.1c0.2,0.2,0.4,0.3,0.6,0.1c0.3-0.2,0-0.4-0.1-0.6c-0.1-0.2-0.2-0.3-0.2-0.4c0.3-0.1,0.5,0.2,0.7,0.4
	c0.3,0.3,0.6,0,0.8-0.2c0.2-0.3-0.1-0.3-0.3-0.4c-0.5-0.4-0.8,0.1-1.1,0.2c-0.4,0.4-0.8,0.9-1.3,1.3c-0.2-0.3,0.3-0.7-0.1-0.9
	c-0.5-0.4-1.1-0.7-1.5-1.2c-0.3,0.4,0.3,0.5,0.2,0.8c-0.2,0.1-0.3,0-0.5-0.1c-0.3-0.3-0.6-0.5-0.9-0.9c-0.4-0.5-0.7-0.5-1,0
	c-0.1,0.2-0.3,0.4-0.6,0.5c0-0.3,0.1-0.5,0.1-0.7c0.5-0.1,0.8-0.4,0.5-0.9c-0.1-0.1-0.1-0.2-0.1-0.3c0-0.5-0.3-0.9-0.7-1.2
	c-0.3-0.2-0.6,0.3-0.8,0.5s-0.3,0.4-0.5,0.5c-0.3,0.2-0.1,0.3,0,0.4c-0.6-0.2-0.7,0.6-1.3,0.5c0.5-0.8,1.2-1.4,1.8-2
	c0.2-0.2,0.3-0.2,0-0.5c-0.9-0.8-2.1-1.2-2.9-2.2c-0.1-0.1-0.4-0.1-0.3-0.3c0.2-0.2,0.3,0.1,0.5,0.1c-0.1-0.2-0.2-0.4-0.3-0.5
	c-0.4-0.8-0.7-0.9-1.4-0.4c-0.2,0.1-0.3,0.3-0.5,0.4c-0.1,0.1-0.2,0.4-0.4,0.2c-0.1-0.2,0.1-0.3,0.2-0.4c0.4-0.4,1-0.6,0.7-1.4
	c-0.1-0.4-0.4-0.5-0.7-0.3s-0.6,0.4-0.9,0.7c-0.1-0.4,0.1-0.5,0.2-0.6c0.5-0.3,0.2-0.8,0-0.9c-0.5-0.2-0.8-0.6-1.5-0.6
	c0.9-0.6,0.3-1-0.1-1.4c-0.1-0.1-0.1-0.3-0.3-0.2s0,0.3,0,0.4c0.1,0.4,0.1,0.7,0,1.1c-0.1,0.5-0.5,1.2,0.3,1.8
	c0.3,0.2,0.7,1,0.2,1.5s-0.3,1.1-0.5,1.7c0.2-0.2,0.3-0.6,0.6-0.4c0.3,0.1,0.1,0.3,0.1,0.5c0,1.2-0.6,2.3-0.3,3.6
	c0,0.1,0,0.2-0.1,0.2c-0.6,0.5-0.5,1.1-0.1,1.6c0.1,0.1,0.2,0.3,0.1,0.4c-0.1,0.2-0.3,0.1-0.4,0c-0.2-0.1-0.1,0.1-0.2,0.1
	c0.2,0.2-0.6,0.8,0.2,0.8l0.1,0.2c-0.3,0.6,0.1,1.2,0.2,1.8c-0.3,0.1-0.3-0.3-0.5-0.3c-0.1,0.2,0,0.4,0.1,0.6
	c0.4,0.7,0.4,1.3,0.1,1.9c0,0,0,0.1,0,0.2c-0.1,0.7-0.2,1.4,0.2,2.1c0.3,0.8,0,1.7,0.3,2.6c0.1,0.2,0,0.2-0.3,0.2s-0.3-0.3-0.4-0.6
	c-0.1,0.6-0.1,1.1-0.2,1.6c0.1-0.1,0.2-0.1,0.3-0.1c0.9-0.4,1.7-0.9,2.7-1.2c1.7-0.6,3.4-1.2,5-2.2c0.2-0.1,0.4-0.3,0.6-0.2
	c0.5,0.2,0.8-0.1,1.2-0.2c0.8-0.4,1.5-0.8,2.2-1.2c1.8-1,3.7-1.8,5.3-3.2C68.7,48.2,68.8,48,68.4,47.7z M78.7,48.9
	c0.3-0.1,0.6-0.3,1.1-0.2c-0.8,0.2-1.2,0.7-1.8,0.7c-0.7,0.1-1.3,0.1-1.8,0.6c-0.1,0.1-0.1,0.1-0.2,0c-0.2-0.3-0.5-0.1-0.7,0
	c-0.8,0.4-1.7,0.7-2.6,1c-0.1,0-0.2,0.2-0.3,0c-0.1-0.2,0.1-0.2,0.2-0.3c0.3-0.4,0.6-0.8,0.8-1.4c-0.8,0.3-1.5,0.7-2.1,1.3
	c-0.1,0.1-0.3,0.3-0.4,0.1c-0.2-0.2,0-0.3,0.1-0.4c0.2-0.2,0.4-0.5,0.6-0.8c0.1-0.1,0.1-0.2-0.1-0.3c-0.1-0.1-0.2,0-0.2,0.1
	c-0.1,0.2-0.3,0.5-0.5,0.7c-0.5,0.5-0.7,1.3-1.3,1.7c0.2-0.6,0.7-1.1,0.9-1.9c-1.1,0.6-1.7,1.7-2.6,2.4c0.3-0.6,0.6-1.2,0.8-1.8
	c-0.7,0.3-0.8,1.2-1.5,1.5c-0.2-0.2,0.2-0.4,0-0.6c-0.2,0.2-0.5,0.3-0.5,0.7c0,0.5-0.6,0.4-0.8,0.8l-0.1-0.1c0-0.3-0.1-0.2-0.2-0.1
	c-0.3,0.2-0.6,0.4-0.8,0.6c-0.8,0.6-1.7,1.2-2.3,2.1c0.3-0.6-0.2-0.4-0.4-0.5c0.5-0.4,1-0.6,1.1-1.2c0-0.2,0.4-0.3,0.3-0.5
	c-0.2-0.2-0.4,0.1-0.6,0.1c-0.1,0-0.1,0.1-0.2,0.1c-0.6,0.2-0.8,1-1.6,1c-0.2,0-0.4,0.2-0.4,0.4c0,0.1-0.1,0.2,0.1,0.3
	c0.5,0.1,0.7,0.5,1.1,0.7c-0.2,0.2-0.4,0-0.5,0c-1.1-0.3-1.1-0.3-1.7,0.8c-0.2,0.3-0.7,0.4-0.9,0.3c-0.4,0-0.4-0.1-0.7,0.1
	c-0.3,0.2-0.7,0.5-1.2,0.6c0.2-0.6,1-0.6,1.1-1.3c-1,0.4-1.8,1.3-2.8,1.5L55,57.6c0.8-0.5,1.6-1,2.4-1.6c-0.4-0.1-0.5-0.1-0.8,0.1
	c-0.5,0.5-1.4,0.5-2,1.2c-0.1,0.1-0.4,0.2-0.5,0.5s-0.3,0.5-0.4,0.8c-0.1,0.2-0.1,0.3-0.4,0.1c-0.6-0.3-1.2-0.4-1.8-0.7
	c0.2,0.4,0.5,0.7,0.9,0.8c1.3,0.6,2.7,1.1,4,1.6c0.2,0.1,0.4,0.2,0.4-0.2c0-0.3,0.2-0.3,0.4-0.1c0.1,0.1,0.2,0.2,0.4,0.3
	c2,0.9,4,1.7,6,2.5c0.4,0.2,0.7,0.3,1.1,0.5c1.3,0.4,2.6,0.8,3.8,1.2c2.3,0.7,4.5,1.7,6.8,2.5c0.3,0.1,0.7,0.4,0.7-0.3
	c0-0.1,0-0.2,0.1-0.2s0.1,0.1,0.2,0.2c0,0.1,0,0.2,0.1,0.3c0.5-0.3,0.4-0.7,0.3-1.1c-0.1-0.6-0.3-1.2,0.2-1.7H77
	c0,0.2,0.1,0.3,0.1,0.5c0.1,0,0.1,0,0.2,0c-0.4-0.9,0.5-1.3,0.7-1.9c0.1-0.1,0.1-0.3,0.1-0.4c0-0.4,0.1-0.8,0.4-1.2
	c-0.4,0.1-0.5,0.5-1,0.5c1-0.8,1.2-1.9,1.5-3.1c0.2,0.4,0.1,0.7,0.1,1.1c0.7-0.8,1.2-1.7,1.3-2.7c-0.3-0.1-0.4,0.3-0.7,0.2
	c0.3-0.4,0.5-0.8,0.8-1.1c-0.5,0.4-0.8,1.1-1.5,1.5c0.1-0.4,0.3-0.6,0.5-0.9c0.3-0.4,0.6-0.9,0.9-1.3c0.3-0.5,0.3-1.2,1-1.4
	c0.1,0,0.3-0.2,0.4-0.4c0.4-0.5,0.8-1.1,1.2-1.6c0.2-0.3,0.4-0.7,0.2-1c-0.9,0.5-1.4,1.5-2.1,2.1c0.6-1.4,1.8-2.4,2.7-3.5
	c-0.3,0.2-0.5,0.4-0.8,0.6c-0.3,0.2-0.4,0.6-0.8,0.5c0.8-1.2,2.2-1.8,2.6-3.4c-0.5,0.3-0.7,0.6-1.1,0.7c0.1-0.3,0.3-0.5,0.5-0.7
	c0.7-0.5,1-1.1,1.1-1.9c0-0.2,0.1-0.3,0.3-0.4c0.6-0.3,0.8-0.8,0.9-1.3c-1.3-0.1-1.6,0.9-2.1,1.8c-0.1-0.5,0.2-0.8,0.4-1.3
	c-0.5-0.1-0.9,0.2-1.1,0.6c-0.3,0.4-0.5,0.8-0.7,1.2c-0.1,0.2-0.3,0.5-0.4,0.5c-0.8-0.2-1.2,0.3-1.6,0.9c0-0.4,0-0.6-0.4-0.5
	C79.6,47.5,79,48,78.7,48.9c-0.2,0-0.3-0.1-0.2-0.3c0.1-0.2,0.2-0.4,0.3-0.6c-1.6,0.3-1.7,0.5-1.8,1.3
	C77.6,49.3,78.1,48.9,78.7,48.9z M35.3,63.9c-0.4,0.1-0.5-0.1-0.2-0.3c0.4-0.2,0.7-0.4,1.1-0.6c2.8-1.2,5.6-2.3,8.3-3.4
	c0.2-0.1,0.4-0.2,0.5-0.4c-0.4-0.2-0.6,0.2-1,0.3c-0.1-0.3,0.3-0.5,0-0.9c-0.7-0.8-1.2-0.9-1.9-0.2c-0.1,0.1-0.1,0.1-0.2,0.2
	c-0.1,0.1-0.2,0.3-0.4,0.2s0-0.3,0.1-0.4c0.2-0.2,0.4-0.5,0.6-0.7c0.1-0.1,0.2-0.2,0-0.4C42,57.1,41,57,40.6,57.2
	c-0.3,0.2-0.6,0.5-1,0.6c0.1-0.3,0.4-0.5,0.5-0.7s0.5-0.2,0.2-0.5c-0.2-0.3-0.5-0.2-0.7-0.1c-0.3,0.2-0.5,0.6-1,0.6
	c0.2-0.4,0.5-0.5,0.7-0.8c0.1-0.1,0.3-0.2,0.3-0.3c0-0.2-0.2-0.3-0.4-0.3c-0.7,0.2-1.2-0.3-1.8-0.2c-0.2,0-0.5-0.1-0.3-0.3
	c0.4-0.6-0.2-0.7-0.5-0.8c-0.4-0.2-0.9-0.3-1.5-0.4c0.5,0.4,0.9,0.7,1.2,1.1c-0.8-0.2-1.3-0.7-1.9-1.2c-0.8-0.6-1.4-1.4-2.5-1.6
	c-0.1,0.6,0.7,0.7,0.9,1.3c-1.4-0.8-2.2-2.1-3.5-2.7c0.6,0.9,1.6,1.5,2.1,2.4c-1.2-0.7-1.9-2-3.3-2.5c0.2,0.2,0.5,0.5,0.7,0.8
	c-0.3,0.1-0.5-0.1-0.6-0.2c-1-0.7-2-1.5-2.9-2.4c-0.2-0.2-0.5-0.4-0.8-0.3c0,0.4,0.4,0.5,0.4,0.9c0,0.1,0,0.2-0.1,0.3
	s-0.2,0-0.2-0.1c-0.6-0.9-1.7-1.3-2.4-2.1c0.2,0.3,0.4,0.6,0.6,0.9c0.1,0.1,0.1,0.2,0,0.3s-0.2,0.1-0.2,0c-0.4-0.5-1.2-0.4-1.6-0.8
	c-0.7-0.7-1.4-1.3-2.1-2c-0.5-0.6-1.3-0.5-1.8-0.9v0.1c0.2,1.1,1.2,1.6,1.8,2.4c-0.6-0.2-1.2-0.5-1.5-0.9c-0.6-0.9-1.6-1.3-2.3-1.9
	c-0.2-0.1-0.3,0-0.3,0.2c-0.1,0.5-0.3,0.2-0.5,0.1c-0.2-0.2-0.2-0.5-0.4-0.6c-1-0.5-1.9-1-2.9-1.5h-0.1c0,0.4,0.2,0.7,0.5,0.9
	c0.5,0.3,1.1,0.6,1.6,0.9c0.3,0.2,0.6,0.4,0.8,0.8c-0.3-0.1-0.4-0.1-0.7-0.1c0,0.4,0,0.7,0,1c0,0.5,0.1,0.8,0.6,1.1
	c0.4,0.2,0.9,0.3,1.2,0.8c-0.5,0-0.8-0.4-1.3-0.3c0.7,0.2,0.6,0.7,0.6,1.2c0.1,0.6,0,1.2,0.7,1.6c0.2-0.3-0.1-0.7,0-1
	c0.1-0.2,0.1-0.5,0.4-0.4c0.2,0,0.1,0.3,0.1,0.4c0,0.1,0,0.2,0,0.4c0.1,0.8,0.5,1.5,0.5,2.3c0,0.5,0.1,1,0.8,1.1
	c0-0.3,0-0.5-0.1-0.7c-0.1-0.3-0.1-0.5-0.1-0.8c0-0.2,0.1-0.4,0.3-0.4c0.2,0,0.2,0.3,0.2,0.4c0,0.3,0,0.6,0.1,0.8
	c0.1,0.6,0,1.2,0.8,1.5c-0.1,0.3-0.4,0-0.5,0.2c0.1,0.5,0.4,0.7,0.7,1c0.3,0.2,0.5,0.4,0.8,0.6c0.1,0.1,0.3,0.2,0.1,0.4
	c-0.1,0.2-0.2,0-0.3-0.1c-0.3-0.2-0.6-0.4-1-0.6c0,1.2,0.2,1.8,0.9,2.1c0-0.1,0-0.1,0-0.2c-0.1-0.2,0-0.4,0.2-0.6
	c0.2-0.1,0.3,0.1,0.5,0.2c0.2,0.2,0.1,0.3,0,0.5c-0.3,0.6,0.4,1.5,1,1.6c0.2,0,0.6,0.8,0.6,1c-0.5,1.1-0.5,1.1,0.4,1.7
	c0.1,0.1,0.3,0.2,0.3,0.4c-0.4,0.2-0.6-0.2-0.9-0.2c-0.2,0.5,0.2,0.8,0.5,1s0.3-0.3,0.4-0.4c0.1,0,0.2-0.1,0.2-0.1
	c0.2-0.2,0.4-0.1,0.5,0.1c0.1,0.3-0.2,0.1-0.2,0.2c-0.2,0.1-0.2,0.2-0.2,0.4c0.1,0.7,0.7,0.9,1.1,1.1c0.7,0.3,1.3,0.9,2,1.4
	c0.1,0.1,0.2,0.3,0,0.5c-0.1,0.1-0.2,0-0.3-0.1c-0.6-1-1.7-1.2-2.7-1.8c0.4,0.7,0.7,1.5,1.6,1.7c0.3,0.1,0.2,0.1,0.2,0.3
	c0,0.6-0.1,0.9-0.7,0.5c-0.1,0.6,0.2,1.1,0.6,1.4s0.7,0.8,1.4,0.4c0.5-0.3,1.1-0.6,1.7-0.9c2.3-0.8,4.4-2,6.6-3.1
	C33.8,64.6,34.5,64.2,35.3,63.9z M34.2,50.6c0.4,0.4,0.8,0.8,1.3,1.1c1.6,0.9,3.3,1.5,4.9,2.3c1.7,0.8,3.4,1.8,5.2,2.5
	c1.1,0.4,2.1,1,3.3,1.1c0.4,0,0.7,0,0.8-0.5c0.2-1.7,0-3.4-0.4-5c-0.1-0.3-0.2-0.6,0-0.7c0.4-0.4,0.3-0.7,0.2-1.2
	c-0.4-1.4-0.8-2.8-1-4.2c-0.1-0.4-0.1-0.7,0.1-1.1c0.2-0.5,0.2-1.1,0.2-1.7c0-0.2-0.4-0.3-0.3-0.7c0.1-0.3,0.1-0.6-0.1-0.9
	c-0.1-0.3-0.2-0.8,0-0.9c0.8-0.2,0.2-0.6,0.2-0.9c-0.1-0.6-0.5-1.1-0.3-1.8c0.4,0.4,0.3,1,0.7,1.5c0.1-0.3,0.2-0.5,0.2-0.7
	c0.1-0.4-0.1-0.8-0.2-1.2c0-0.1-0.5,0.1-0.4-0.3c0.2-0.6,0.1-1.2-0.2-1.8c-0.1-0.2,0-0.5,0.2-0.4c0.7,0.3,0.4-0.3,0.4-0.5
	c0-0.3-0.1-0.7-0.3-1C48.6,34,48.1,34,48,34.4c-0.1,0.3-0.5,0.5-0.4,0.6c0.5,0.5,0,0.5-0.2,0.6c-1.2,0.4-2,1.4-2.7,2.3
	c0.4-0.1,0.7-0.3,1-0.5c0.1,0,0.3-0.3,0.5,0c0.1,0.2-0.1,0.3-0.3,0.4c-1,0.5-1.9,1.1-2.9,1.6c-0.2,0.1-0.3,0.2-0.4,0.4
	c0,0,0.1,0.1,0.1,0.2c0.3,0.1,0.4-0.1,0.5-0.2c0.2-0.1,0.3-0.4,0.6-0.2c-0.4,0.4-0.4,1-1.1,1.3c0.4,0.1,0.6,0.2,0.9,0.4
	c0.1,0,0.2,0.2,0.2,0.2c0,0.1-0.2,0.2-0.3,0.2c-0.2,0-0.4,0-0.6-0.1c-0.6-0.3-0.9-0.1-1.3,0.4c-0.1,0.2-0.2,0.4-0.6,0.3
	c0.2-0.2,0.4-0.4,0.6-0.7c-0.2,0-0.4,0-0.4,0.1c-0.2,0.2-0.7,0.2-0.5,0.6c0.1,0.4,0.6,0.3,0.9,0.2c0.3,0,0.4-0.4,0.7-0.3
	c0.1,0.3-0.5,0.6,0,0.9c0.1,0.1-0.2,0.2-0.3,0.1c-0.3-0.2-0.6-0.1-0.8,0.2c-0.1,0.1-0.2,0.2-0.3,0.1c0-0.2,0.3-0.3,0.3-0.6
	c-0.5,0.4-1.2,0.4-1.7,0.9c0,0,0,0.1,0.1,0.1c0.1,0.2,0.6,0.1,0.4,0.4c-0.1,0.2-0.4,0-0.6-0.1c-0.2-0.2-0.4-0.1-0.6,0.1
	c-0.3,0.3-0.5,0.6-0.9,0.8c-0.1-0.4,0.4-0.4,0.3-0.7c-0.3,0.2-0.6,0.3-0.9,0.5C37.2,45,37,45,37.1,45.2s0.3,0.2,0.4,0.1
	c0.4-0.2,0.8-0.2,1.2-0.4s0.9-0.5,1.5-0.4c-0.4,0.3-0.8,0.4-1.3,0.6c-0.4,0.2-0.9,0.3-0.4,0.9c-0.1,0-0.2,0-0.2,0
	c-0.7-0.2-1.4-0.4-1.7,0.6c0,0.1-0.2,0.1-0.3,0s-0.3-0.1-0.4,0c-0.7,0.5-1.6,0.8-2,1.8c0.3-0.6,1.3-0.2,1.2-1.1c0,0,0.1,0,0.2,0
	c0.5,0.1,0.9-0.1,1.3-0.3c0.1,0,0.2-0.1,0.3,0c0,0.1,0,0.2,0,0.2c-0.4,0.3-0.1,0.3,0.1,0.3c0.3,0,0.4,0.2,0.4,0.3
	c0,0.3-0.3,0-0.4,0.1c-0.4,0.1-0.7,0.5-1,0.8s0.1,0.3,0.2,0.5c0.1,0.2,0,0.3-0.2,0.3s-0.4,0.2-0.7,0.1c-0.2-0.1-0.4,0.1-0.4,0.3
	c-0.1,0.2,0.1,0.2,0.3,0.3s0.5,0.3,0.7,0.3c0.2,0.1,0.5,0.3,0.7-0.1c0.1-0.1,0.2-0.4,0.4-0.3c0.3,0.1,0,0.3-0.1,0.4
	c-0.1,0.3,0.1,0.2,0.2,0.3c0.2,0.1,0.5,0.1,0.4,0.5C36.3,51.5,35.4,50.6,34.2,50.6z M36.9,65.5c-0.6,0-1.9,1-2,1.3
	c0.1,0.2,0.4-0.1,0.5,0.2c-0.6,0.5-1.3,0.8-2,1.1c0.5,0.1,1,0.1,1.5,0c0.4-0.1,0.6,0,0.6,0.4s0.2,0.3,0.5,0.2
	c0.8-0.6,1.9-0.7,2.7-1.2c0.1-0.1,0.3-0.1,0.3,0.1c0.1,0.2-0.1,0.3-0.2,0.3c-0.8,0.2-1.4,0.6-2.1,1c0.7-0.1,1.4,0.2,2,0.3
	c0.7,0.2,1-0.1,1.6-0.3c-0.3-0.1-0.5-0.2-0.7-0.2c-0.1,0-0.2-0.1-0.1-0.2l0.1-0.1c0.7,0.2,1.5,0.3,2.3,0c0,0.3-0.4,0.2-0.3,0.5
	c0.1,0.2,0.3,0.1,0.5,0.1c0.5-0.2,1-0.5,1.4-0.5c1.1-0.2,2.2-0.6,3.3-0.6c0.1,0,0.3-0.1,0.3,0c0.1,0.3-0.2,0.2-0.3,0.2
	c-0.7,0.2-1.4,0.4-2.2,0.6c0.6,0.1,1.1,0.3,1.5,0.5c0.5,0.3,1.1-0.1,1.2-0.2c0.2-0.8,0.8-0.4,1.1-0.4c0.6,0,1.1,0.1,1.7-0.2
	c-0.1-0.2-0.4-0.1-0.3-0.4c0.2,0,0.4,0,0.6,0c1.2,0.3,2.3,0.7,3.4,1.1c0.5,0.2,0.9,0.2,1.4,0c0.3-0.1,0.6-0.3,1-0.1
	c-0.3,0.4-0.7,0.3-1.1,0.5c0.6,0.4,1.3,0.4,2,0.1c0,0.3-0.4,0.3-0.3,0.5c1.7,0.1,2,0.1,2.6-0.3c-1.1-0.9-2.6-0.9-4-1.4
	c0.3-0.1,0.4-0.2,0.7-0.2c0.9,0.1,1.8,0.4,2.6,0.7c0.8,0.3,1.4,1,2.3,0.8c0,0,0.1,0,0.1,0.1c0.2,0.4,0.3,0.5,0.6,0.4
	c0.4-0.1,0.7-0.2,1.1,0c0.1,0,0.2,0,0.2-0.1s-0.1-0.2-0.2-0.2c-0.3-0.2-0.7-0.3-1-0.7c1,0,1.7,0.8,2.7,0.4c0-0.1-0.4-0.1-0.2-0.4
	c0.8,0.3,1.5-0.1,2.2-0.3c0.5-0.2,0.9-0.2,1.4,0c0.6,0.2,1.3,0.5,2,0.1c-0.2-0.2-0.4-0.2-0.6-0.2c-0.7-0.2-1.5-0.3-2.1-0.9
	c-0.3-0.4-0.7-0.6-1.1-0.7c-0.6-0.1-0.8-0.3-0.4-1c-0.6,0.3-1.1,0.2-1.7,0.3c-0.2,0-0.3,0.1-0.5,0.2c-0.1,0-0.3,0.1-0.3,0
	c0-0.9-1.3-1-1.2-1.9l-0.1-0.1c-0.5-0.1-0.9-0.6-1.5-0.1c-0.3,0.3-0.8,0.3-1.2,0c-0.3-0.2-0.6-0.4-0.3-0.8c0.1-0.1-0.1-0.2-0.2-0.2
	c-0.4,0.1-0.8-0.1-1.2,0c-0.5,0.2-1.1,0.6-1.5-0.3c-0.1-0.1-0.3,0-0.4,0c-0.2,0.1-0.4,0.4-0.5,0c-0.1-0.3,0.2-0.4,0.4-0.4
	c0.1,0,0.2-0.1,0.2-0.3c-0.5,0.2-1.2-0.6-1.7,0.2c0,0-0.2,0-0.2-0.1c-0.2-0.2-0.3-0.3-0.5-0.5c-0.5-0.8-0.9-0.9-1.8-0.7
	c-0.1,0-0.3,0.1-0.4,0.1c-0.2,0.1-0.4,0-0.5-0.2c-0.2-0.9-0.8-1.2-1.6-1.1c-0.1,0-0.2,0-0.3,0c0.2-0.5,0.8-0.1,1.1-0.5
	c-0.9-0.7-1.7,0-2.6,0.1c-0.5,0.1-1.1,0-1.1,0.8L46,60.8c-0.5,0-0.9,0.5-1.5,0.5c-0.2,0-0.5-0.1-0.6,0.2c0,0.2,0.1,0.4,0.4,0.5
	c-0.4,0-0.7,0.2-1.1,0.2c-0.5,0-1.1,0-1.5,0.5c-0.2,0.3-0.4,0.5-0.8,0.5c-0.4,0.1-0.8,0.3-1,0.7c-0.2,0.5-0.4,0.7-1,0.5
	c-0.4-0.1-0.8,0-1,0.3c-0.2,0.4,0.4,0.1,0.4,0.4c0,0,0,0.1,0,0.2c-0.6-0.1-1.1,0.1-1.5,0.6c-0.2,0.2-0.4,0.7-0.7,0.5
	C36.3,66.1,36.9,65.8,36.9,65.5z M77.9,42.9c-0.4-0.1-0.7,0-1,0.3c-0.2,0.2-0.6,0.7-0.8,0.5c-0.3-0.3-0.5,0-0.7,0
	c-0.7,0.2-1.3,0.9-2.1,0.4c-0.4,0.4-1,0.4-1.5,0.5c-0.2,0-0.4,0.4-0.6,0.6c-0.1,0.1-0.1,0.1-0.2,0.1s-0.1-0.2-0.1-0.3
	c0.2-0.3,0-0.4-0.2-0.5c-0.4-0.1-0.5,0.2-0.6,0.4c-0.2,0.2,0,0.4,0.1,0.5c0.4,0.3,0.8,0.7,1.3,1c0.8,0.5,0.8,0.5,1.6,0.1
	c0.3-0.2,0.5-0.3,0.8-0.4c0.6,0,1.1-0.5,1.6-0.7c0.9-0.5,1.8-0.9,2.7-1.3c0.3-0.2,0.8,0.1,1-0.2c0.2-0.5,0.5-0.5,0.9-0.6
	c0.2,0,0.3-0.2,0.3-0.4s-0.1-0.3-0.3-0.3c-0.5-0.2-0.9-0.2-1.3,0.3c-0.3,0.4-0.5,0.9-1.1,1.1C77.5,43.5,78,43.3,77.9,42.9z
	 M32.2,46.7c-0.5,0.2-1,0.4-1.4,0.6c-0.2,0.1-0.3,0.2-0.4,0s0.1-0.3,0.2-0.3c0.5-0.3,1.1-0.5,1.6-0.8c0.1,0,0.2-0.1,0.2-0.2
	c-0.1-0.2-0.2-0.2-0.3-0.1c-0.2,0.1-0.4,0.3-0.6,0.5c-0.4,0.3-0.7-0.1-1.1,0c0-0.4,0.4-0.4,0.6-0.6c0,0,0.1-0.1,0.2-0.1
	c0.3-0.2,0.3-0.3,0-0.5c-0.6-0.4-0.7-0.3-0.9,0.3c-0.1,0.2-0.1,0.5-0.1,0.7c0,0.1,0,0.3-0.2,0.3c-0.1,0-0.1-0.1-0.2-0.2
	c-0.1-0.1-0.1-0.3,0-0.4c0.2-0.5-0.2-0.5-0.5-0.4c-0.2,0-0.5,0.2-0.6,0.4c-0.1,0.1-0.1,0.3-0.2,0.2c-0.1,0-0.2-0.1-0.2-0.3
	s0-0.3,0-0.5c0-0.3-0.1-0.6-0.4-0.6c-0.3-0.1-0.6,0-0.7,0.4c-0.1,0.2,0,0.3-0.3,0.2C26.4,45,26,45.2,26,45.5
	c0.2,0.4,0.5,0.9,0.9,1.1c0.5,0.2,1.1,0.1,1.5,0.7h0.2c0.2-0.1,0.3-0.3,0.5-0.1s-0.3,0.3-0.2,0.5c0.6,0.1,0.5-0.2,0.4-0.6
	c-0.1-0.2-0.2-0.4,0.1-0.5c0.2-0.1,0.3,0.1,0.4,0.3c0.1,0.8,0.7,1.2,1,1.9C31.5,48.2,31.7,47.4,32.2,46.7z M14.3,42.2
	c0.9,0.3,1.8,0.7,2.8,0.7c0.5,0,1-0.1,1.2,0.5c0.1,0.1,0.3,0.3,0.5,0.2c0.6-0.3,1.3,0.5,1.9-0.1c0,0,0.2,0,0.2,0.1
	c0.1,0.4,0.8,0.2,0.6,0.8l0.1,0.1c0.5-0.3,0.7,0.1,0.9,0.4c0.5,0.5,1.1,0.7,1.8,0.3c0.2-0.1,0.3,0,0.4,0.1c0.5,0.6,0.6,0.6,1-0.1
	c0.1-0.2,0.3-0.4,0.5-0.4c0.2-0.1,0.4-0.2,0.5-0.3s0.1-0.2,0-0.3s-0.2-0.1-0.3,0c-0.4,0.7-0.8,0.2-1.1,0c-0.3-0.1-0.5-0.2-0.7,0.2
	c-0.1,0.3-0.4,0.2-0.4,0c-0.1-0.5-0.3-0.3-0.6-0.2c-0.1,0-0.3,0.1-0.4,0s0-0.2,0-0.2c0.1-0.1,0.2-0.1,0.2-0.2c0,0-0.1-0.1-0.2-0.1
	S23,43.8,23,43.9c0,0.3,0,0.6-0.1,0.9c-0.4-0.1-0.2-0.6-0.5-0.8c-0.6-0.5-1.6-0.1-2-0.8h-0.2c-0.6,0.1-1.2,0.2-1.6-0.3
	c-0.1-0.1-0.2-0.1-0.2-0.1c-0.5,0.5-0.9-0.7-1.5-0.1c-0.1,0.1-0.2-0.4-0.5-0.5c-0.5-0.2-0.2,0.6-0.4,0.4c-0.3-0.2-0.7,0.1-1-0.2
	C14.9,42.1,14.6,42.1,14.3,42.2z M73,50.7c0.4-0.1,0.5-0.2,0.7-0.3c0.7-0.2,1.3-0.5,1.4-1.3c0.1-0.7,0.5-1.2,0.9-1.7
	c0.1-0.2,0.3-0.3,0.5-0.2c0.3,0.1-0.2,0.3,0,0.5c0.4-0.3,0.8-0.3,1.1-0.7c0.1-0.1,0.2-0.2,0.1-0.3s-0.2,0-0.3,0.1
	c-0.2,0.1-0.5,0.4-0.6,0.2c-0.3-0.6-0.5-0.2-0.8,0c-0.4,0.3-0.8,0.6-1.2,1c-0.2,0.1-0.4,0.2-0.4,0.5s0.4-0.1,0.5,0.3
	C74,48.9,73.7,49.9,73,50.7z M51.6,69.5c1,0.6,1.3,0.6,2.2-0.2c-0.8-0.3-1.5-0.5-2.3-0.8c-0.6-0.2-1.1-0.2-1.6,0.2
	c0.6,0.5,1.2,0.4,1.9,0.2C51.9,69.3,51.6,69.3,51.6,69.5z M52,70.1c-0.6-0.3-1.1-0.5-1.7-0.2C50.2,70,50,70,49.9,69.8
	c-0.1-0.6-0.5-0.8-1-0.7c-0.7,0.2-1.3,0.5-2,0.7C48.6,69.6,50.2,70.4,52,70.1z M75.3,49.8c1-0.2,1.7-0.9,1.8-1.9
	C76,48,75.7,48.9,75.3,49.8z M42.7,69.3c0.7,0.5,1.2-0.2,1.8-0.2c0.1,0.1-0.2,0.2,0.1,0.4c0.6,0.3,0.9,0.1,1.4-0.2
	C44.8,68.8,43.8,68.5,42.7,69.3z M74.2,48.1c-1,0.3-1.9,1-2.1,1.7C72.8,49.2,73.9,49.2,74.2,48.1z M80.9,42.7
	c0.9,0.2,1.5-0.4,2.1-0.8c0.3-0.2-0.1-0.4-0.1-0.4c-0.3,0.1-0.8,0-0.9,0.4c0,0.1-0.1,0.3-0.2,0.3C81.3,41.9,81.2,42.4,80.9,42.7z
	 M34.6,48.3c0.9,0.6,1.1,0.5,1.9-0.6C35.7,47.4,35.3,48,34.6,48.3z M81.7,46.6c1-0.1,1.2-0.3,1.5-1.4C82.3,45.3,82.1,45.4,81.7,46.6
	z M81.6,45.8c-0.7,0.3-1.5,0.5-1.8,1.4C80.7,46.9,81.4,46.8,81.6,45.8z M34,52.9c0.5,1,1.5,0.9,2.3,1.2C35.7,53.3,34.9,52.9,34,52.9
	z M69.9,68.2c0.4-0.8,0.3-1-0.3-0.9c-0.5,0.1-1,0.3-1.7,0.2c0.4,0.5,1,0.6,1.1,0.5C69.5,67.4,69.7,67.8,69.9,68.2z M79.6,46.7
	c-0.7,0.4-1.6,0.4-2.1,1.4C78.3,47.7,79.3,47.7,79.6,46.7z M20.3,46.5c0.2,0.8,0.7,1.4,1.5,1.7C21.1,47.7,21.3,46.6,20.3,46.5z
	 M19,59.3c0.2,0.6,0,1.2,0.4,1.6c0.1,0.1,0.2,0.2,0.3,0.1c0.1-0.1,0-0.2,0-0.3C20.1,60.1,19.6,59.8,19,59.3z M68.6,46.7
	c-0.2-0.3-0.4-0.6-0.7-0.6c-0.2,0-0.6,0.2-0.5,0.4c0.1,0.3,0.4,0.6,0.7,0.6C68.3,47.1,68.6,46.9,68.6,46.7z M65,70.1
	c1.1-0.1,2.3-0.1,3.3-0.7C67.1,69.4,66.1,69.9,65,70.1z M37.1,69.5c-0.4-0.1-0.8-0.1-1.2-0.2c-0.2,0-0.5,0.1-0.5,0.3
	c0,0.1,0.2,0.3,0.4,0.3C36.3,69.9,36.7,69.9,37.1,69.5z M53.8,70c1.1,0.1,1.4,0.1,1.9-0.1C54.5,69.5,54.4,69.5,53.8,70z M62.8,44.2
	c-0.1-0.4-0.4-0.7-0.7-0.9c0,0-0.4,0.1-0.4,0.3c0,0.1,0.8,0.8,0.9,0.8C62.7,44.5,62.7,44.4,62.8,44.2z M48.9,31.4
	c-0.2,0.3-0.4,0.6-0.6,0.8c0.1,0.2,0.6-0.5,0.4,0.2c0,0.2,0.2,0.2,0.3,0.2s0.2-0.1,0.2-0.2C49.1,32.1,49.2,31.7,48.9,31.4z M65.8,45
	c0.3-0.1,0.5-0.2,0.5-0.5c0-0.2-0.2-0.4-0.4-0.4c-0.2,0-0.5,0.1-0.5,0.3C65.3,44.8,65.6,44.9,65.8,45z M34.2,67.4
	c-1.1-0.3-1.5-0.2-1.6,0.6C33.1,67.8,33.6,67.7,34.2,67.4z M85,40.6c-0.2,0.2-0.5,0-0.5,0.3c0.1,0.5-0.3,0.3-0.5,0.3
	c-0.1,0-0.3-0.1-0.4,0c0.1,0.2,0.2,0.5,0.3,0.5C84.4,41.5,85,41.4,85,40.6z M62.7,42.8c-0.1,0.1-0.4,0.2-0.3,0.4
	c0.1,0.2,0.3,0.6,0.6,0.7c0.1,0,0.3-0.2,0.2-0.4C63.2,43.1,63.1,42.8,62.7,42.8z M39.6,62.3c-1.5,0.4-2.2,0.7-2.5,1.1
	C38,63,38.8,62.6,39.6,62.3z M44.2,58.1c0.2,0.1,0.2,0.4,0.5,0.4c0.1,0,0.3,0,0.3-0.1c-0.3-0.6,0.5-0.4,0.5-0.8
	C44.9,57.3,44.7,58.1,44.2,58.1z M86.8,42.8c-0.5,0.2-1,0.3-1.2,0.8C86.2,43.7,86.6,43.4,86.8,42.8z M51.7,40.3
	c-0.1,0.5-0.5,1.1,0,1.7C51.8,41.4,51.9,40.9,51.7,40.3z M41.9,39.2c0.6,0,1-0.3,1.3-0.8C42.5,38.3,42.3,38.9,41.9,39.2z M52.4,58.3
	c0.7-0.1,1.1-0.5,1.5-0.9C53.5,57.7,52.7,57.5,52.4,58.3z M66,65.7c-0.7-0.1-1.3-0.4-2.1-0.3C64.7,65.4,65.3,65.9,66,65.7z
	 M34.9,52.6c-0.5-0.4-1.1-0.7-1.7-0.7C33.7,52.3,34.3,52.6,34.9,52.6z M49.1,44.1c-0.2,0.7-0.6,1.3-0.2,1.9
	C49,45.4,49.3,44.8,49.1,44.1z M38,54.4c-0.3-0.6-0.8-0.6-1.3-0.8C36.9,54.2,37.3,54.4,38,54.4z M49.6,47.6c-0.3,0.5-0.2,1,0.1,1.7
	C50,48.6,49.6,48.1,49.6,47.6z M40.6,40.8c-0.5,0.2-0.9,0.4-1.4,1C40,41.7,40.2,41.1,40.6,40.8z M41.2,69.2c-0.4-0.2-0.7,0.2-1,0.2
	c-0.1,0-0.3,0-0.3,0.2c0,0.1,0.1,0.1,0.2,0.2c0.1,0.1,0.4,0.1,0.4,0C40.6,69.5,40.9,69.4,41.2,69.2z M45.8,58.7c0.5,0,0.8,0,1.2-0.2
	c0.1-0.1,0.3-0.1,0.2-0.3s-0.2-0.1-0.3-0.1C46.5,58.3,46.1,58.3,45.8,58.7z M78.2,42.3c0.2,0,0.4-0.1,0.4-0.3s-0.1-0.3-0.3-0.3
	c-0.3,0-0.5,0.2-0.6,0.4C77.7,42.3,78,42.3,78.2,42.3z M38.8,43.2c0.5-0.1,0.8-0.5,1.2-1C39.3,42.4,39.1,42.9,38.8,43.2z M44.3,37
	c-0.4,0.2-0.6,0.5-0.9,0.8c-0.1,0.1-0.1,0.2,0,0.3s0.2,0,0.2,0C43.9,37.8,44.3,37.5,44.3,37z M34.4,49.3c-0.1-0.1-0.3-0.2-0.4-0.2
	c-0.3,0-0.4,0.1-0.5,0.3c0,0.1-0.1,0.1,0,0.2c0.2,0.2,0.3,0,0.5,0C34.1,49.5,34.2,49.4,34.4,49.3z M41.8,56.5
	c0.6,0.5,0.9,0.5,1.5,0.2C42.8,56.9,42.4,56.3,41.8,56.5z M61.4,42.3c-0.2-0.4-0.3-0.7-0.5-1c-0.1-0.1-0.2-0.3-0.4-0.1
	c-0.1,0.1,0,0.2,0,0.3C60.7,41.8,60.9,42,61.4,42.3z M49.5,45.3c-0.3,0.6-0.3,1.2-0.3,1.8C49.1,46.5,49.7,46,49.5,45.3z M55.4,56.9
	c0.4-0.2,0.9-0.4,1.4-0.7C56,55.9,55.7,56.6,55.4,56.9z M82.2,54.1c-0.2,0.4-0.7,0.7-0.8,1.2C81.6,54.9,82.3,54.8,82.2,54.1z
	 M64.1,43.4c0.3,0.2,0.4,0.6,0.8,0.6l0.1-0.2C64.8,43.5,64.6,43.2,64.1,43.4z M51.3,60.3c-0.1,0-0.2,0.1-0.1,0.2
	c0.2,0.2,0.1,0.5,0.4,0.5c0.1,0,0.3-0.1,0.2-0.3C51.7,60.5,51.6,60.3,51.3,60.3z M63.4,52.6c0.6,0,0.9-0.2,1.3-0.7
	C64.2,52.2,63.8,52.4,63.4,52.6z M29,50.5c-0.3-0.4-0.5-0.7-1-0.5C28.2,50.2,28.5,50.4,29,50.5z M70.2,69.6c0.4,0.2,0.8,0.2,1.1-0.1
	C71,69.4,70.6,69.3,70.2,69.6z M26.6,49.6c0.2,0.3,0.5,0.5,0.8,0.6c0.1,0,0.2-0.1,0.1-0.2C27.3,49.7,27,49.5,26.6,49.6z M33.1,45.4
	c-0.2,0-0.3,0.1-0.3,0.3c0,0.1,0.1,0.3,0.2,0.3c0.2,0,0.3-0.2,0.4-0.4C33.4,45.4,33.2,45.4,33.1,45.4z M41.1,69.8
	c0.4,0.1,0.8,0.2,1.2-0.2C41.8,69.4,41.5,69.6,41.1,69.8z M59.4,55.5c-0.4,0.1-0.7,0.4-0.9,0.8C59.1,56.2,59.3,55.9,59.4,55.5z
	 M51.4,38.3c0-0.3,0.2-0.7-0.1-1.2C51,37.6,51.4,38,51.4,38.3z M58.6,39.5c0.1,0.2,0.1,0.2,0.1,0.3c0,0.3,0.1,0.4,0.4,0.5
	c0.1,0.1,0.2,0,0.2-0.1c0.1-0.3-0.2-0.4-0.4-0.5C58.8,39.7,58.7,39.6,58.6,39.5z M64.9,44.8c0,0.3,0.2,0.5,0.4,0.7
	c0.1-0.1,0.2-0.2,0.2-0.2C65.5,45,65.1,45,64.9,44.8z M61.1,42.3c0.1,0.5,0.2,0.7,0.5,0.9c0,0,0.1-0.1,0.2-0.2
	C61.7,42.6,61.3,42.6,61.1,42.3z M26,43.3c0.3,0.3,0.6,0.4,0.9,0.3c0,0,0-0.1,0-0.2C26.7,43.2,26.4,43.2,26,43.3z"/>
<path class="st1" d="M74.4,71.8c-0.9,0.1-1.7,0.2-2.6,0.1c-1-0.1-2.1-0.1-3.1-0.1c-0.2,0-0.4,0.1-0.4-0.1c0-0.3,0.3-0.2,0.4-0.2
	C70.7,71.6,72.6,71.5,74.4,71.8z"/>
<path class="st2" d="M82.2,48.3c0.2,0.8-0.1,1.3-0.2,1.9C82.2,49.6,81.8,49,82.2,48.3z"/>
</svg>
