<svg xmlns="http://www.w3.org/2000/svg" viewBox="0 0 704.11 548.83"><defs><style>.cls-1{fill:#efb44b;}.cls-2{fill:#fce754;}.cls-3{fill:#66201e;}</style></defs><g id="Layer_2" data-name="Layer 2"><g id="Layer_3_Message" data-name="Layer 3 Message"><path class="cls-1" d="M660.76,180.85c12.45,10,14,11.24,19.5,16.92,26.94,27.73,28.4,79.24-6.44,113.36-33.89,33.23-76.38,35.43-106.31,12.22-8-6.21-20.45-17.89-26.12-31.16Z"/><path class="cls-2" d="M663,182.69c27.68,25.38,27.58,73.72-6.8,107.36-33.44,32.87-75.36,35-104.81,12.06-25.28-19.6-28.11-71.11,4.43-104.8S637.47,159.45,663,182.69Z"/><path class="cls-3" d="M595,321.26a74.55,74.55,0,0,1-46-16c-11.83-9.17-19.4-25-20.73-43.45A88.1,88.1,0,0,1,553,194.62c32.69-34,84.35-40.89,112.65-14.8a66.89,66.89,0,0,1,21.16,48.85c.41,23-9.76,46.4-27.86,64.19C639.77,311.65,617.05,321.26,595,321.26Zm27-149.33A90.48,90.48,0,0,0,558.44,200a80.47,80.47,0,0,0-22.63,61.35c1.18,16.23,7.67,30.06,17.9,37.91,29.39,22.77,69.52,18.05,99.87-11.76,16.61-16.31,25.94-37.68,25.56-58.56a59.38,59.38,0,0,0-18.69-43.46h0C650.35,176.35,636.65,172,622,172Z"/><path class="cls-1" d="M593.61,291.73c-29.7,1.26-38.34-23.16-39.19-33.51a61,61,0,0,1,17-45.78c13.19-13.73,31.34-21.93,48.57-21.93,10.22,0,19.22,3,25.1,8.36a39.26,39.26,0,0,1,12.12,28.73c.25,15.34-6.86,31.31-19.51,43.76C624.08,284.7,608.87,291.73,593.61,291.73Z"/><path class="cls-2" d="M598,294.44c-27.73,1.18-35.79-21.62-36.58-31.28a56.88,56.88,0,0,1,15.88-42.74C589.65,207.64,606.57,200,622.59,200A34.42,34.42,0,0,1,646,207.76a36.62,36.62,0,0,1,11.33,26.84c.25,14.34-6.39,29.25-18.2,40.9C626.48,287.87,612.19,294.44,598,294.44Z"/><path class="cls-3" d="M591.38,295.62c-31.16,0-40-26.61-40.89-37.12a64.78,64.78,0,0,1,18.25-48.72c13.9-14.46,33.07-23,51.25-23,11.27,0,21.11,3.32,27.71,9.38a43,43,0,0,1,13.36,31.49c.29,16.41-7.23,33.38-20.65,46.55-14.26,14-30.39,21.44-46.62,21.47Zm28.48-101.28c-16.13,0-33.23,7.67-45.73,20.76a57,57,0,0,0-16,42.84c.64,8.72,8.26,31.06,35.2,30h.15c14.21,0,28.5-6.67,41.33-19.27,11.92-11.71,18.61-26.64,18.36-40.9a35.43,35.43,0,0,0-10.87-26C637.27,197,629.27,194.34,619.86,194.34Z"/><path class="cls-3" d="M611.88,342.57a75.45,75.45,0,0,1-46.7-16.2c-6-4.68-20.73-17.2-27.3-32.69a3.84,3.84,0,1,1,6.94-3.27c0,.09.08.18.12.27,6,14.22,20.63,26.26,24.95,29.63,29.8,23,70.5,18.3,101.27-11.94,27.48-27,36.61-76.81,6.37-107.94a153.87,153.87,0,0,0-18.08-15.75l-1.07-.87a3.83,3.83,0,1,1,4.43-6.26,3.68,3.68,0,0,1,.38.31l1.07.87A161.23,161.23,0,0,1,683,195.08a78.48,78.48,0,0,1,21,57,90.2,90.2,0,0,1-27.53,61.73C657.21,332.84,634.2,342.57,611.88,342.57Z"/><path class="cls-1" d="M264.61,127.7c4.81,3.88,5.4,4.34,7.53,6.53,10.41,10.72,11,30.62-2.49,43.8-13.09,12.84-29.51,13.69-41.07,4.73-3.1-2.4-7.9-6.92-10.1-12Z"/><path class="cls-2" d="M265.45,128.41c10.7,9.8,10.66,28.48-2.62,41.48-12.92,12.7-29.12,13.51-40.5,4.66-9.76-7.58-10.86-27.48,1.71-40.49S255.61,119.43,265.45,128.41Z"/><path class="cls-3" d="M239.2,182a28.79,28.79,0,0,1-17.77-6.19c-4.58-3.54-7.5-9.66-8-16.79A34,34,0,0,1,223,133c12.63-13.15,32.59-15.8,43.52-5.72a25.85,25.85,0,0,1,8.18,18.87c.16,8.89-3.77,17.93-10.77,24.8C256.5,178.23,247.72,182,239.2,182Zm10.42-57.7a35,35,0,0,0-24.55,10.86,31.1,31.1,0,0,0-8.74,23.71c.45,6.27,3,11.61,6.91,14.64,11.36,8.8,26.87,7,38.59-4.54,6.42-6.3,10-14.56,9.88-22.63a23,23,0,0,0-7.22-16.79h0c-3.9-3.54-9.2-5.24-14.87-5.24Z"/><path class="cls-1" d="M238.66,170.54c-11.48.48-14.81-8.95-15.14-12.95a23.56,23.56,0,0,1,6.57-17.69c5.09-5.3,12.11-8.47,18.76-8.47,4,0,7.43,1.14,9.7,3.23a15.13,15.13,0,0,1,4.68,11.1c.1,5.92-2.64,12.1-7.53,16.91C250.43,167.82,244.56,170.54,238.66,170.54Z"/><path class="cls-2" d="M240.37,171.59c-10.72.45-13.83-8.36-14.13-12.09A22,22,0,0,1,232.37,143c4.76-4.93,11.3-7.9,17.49-7.9a13.37,13.37,0,0,1,9.06,3,14.16,14.16,0,0,1,4.37,10.38c.1,5.54-2.47,11.29-7,15.8C251.36,169.05,245.84,171.59,240.37,171.59Z"/><path class="cls-3" d="M237.8,172c-12,0-15.47-10.28-15.8-14.34a25,25,0,0,1,7.05-18.82c5.37-5.59,12.78-8.89,19.8-8.89,4.36,0,8.16,1.28,10.71,3.62a16.6,16.6,0,0,1,5.16,12.17c.11,6.34-2.79,12.9-8,18-5.51,5.43-11.74,8.29-18,8.3Zm11-39.13a25.15,25.15,0,0,0-17.67,8A22.06,22.06,0,0,0,225,157.48c.25,3.37,3.19,12,13.6,11.58h.06c5.49,0,11-2.58,16-7.45,4.6-4.52,7.19-10.29,7.09-15.8a13.69,13.69,0,0,0-4.2-10C255.53,133.92,252.44,132.91,248.8,132.91Z"/><path class="cls-3" d="M245.72,190.18a29.17,29.17,0,0,1-18-6.26c-2.33-1.81-8-6.65-10.55-12.63a1.48,1.48,0,0,1,2.68-1.26s0,.07.05.1c2.33,5.49,8,10.15,9.64,11.45,11.51,8.89,27.23,7.07,39.13-4.61,10.61-10.43,14.14-29.68,2.45-41.71a58.48,58.48,0,0,0-7-6.08l-.41-.34a1.48,1.48,0,1,1,1.71-2.42l.14.12.42.34a62.17,62.17,0,0,1,7.25,6.32,30.34,30.34,0,0,1,8.12,22,34.9,34.9,0,0,1-10.64,23.85C263.23,186.42,254.34,190.18,245.72,190.18Z"/><path class="cls-1" d="M51.26,282.37c4.81,3.88,5.4,4.35,7.54,6.54,10.41,10.71,11,30.61-2.49,43.8-13.1,12.84-29.51,13.69-41.08,4.72-3.1-2.4-7.9-6.91-10.09-12Z"/><path class="cls-2" d="M52.11,283.08c10.7,9.81,10.66,28.48-2.63,41.48C36.57,337.26,20.37,338.07,9,329.22c-9.77-7.57-10.86-27.47,1.71-40.49S42.26,274.1,52.11,283.08Z"/><path class="cls-3" d="M25.86,336.62a28.83,28.83,0,0,1-17.78-6.18c-4.57-3.55-7.49-9.66-8-16.79a34.07,34.07,0,0,1,9.56-26c12.64-13.14,32.6-15.8,43.53-5.72a25.88,25.88,0,0,1,8.18,18.88c.15,8.89-3.78,17.92-10.77,24.8C43.15,332.91,34.37,336.62,25.86,336.62Zm10.42-57.7a35,35,0,0,0-24.55,10.87A31,31,0,0,0,3,313.49c.45,6.27,3,11.61,6.91,14.65,11.36,8.8,26.86,7,38.59-4.55,6.42-6.3,10-14.55,9.87-22.62a22.89,22.89,0,0,0-7.22-16.79h0c-3.9-3.55-9.19-5.25-14.86-5.25Z"/><path class="cls-1" d="M25.32,325.21c-11.48.49-14.82-8.94-15.14-12.94a23.5,23.5,0,0,1,6.56-17.69c5.1-5.31,12.11-8.48,18.77-8.48,4,0,7.43,1.15,9.7,3.23a15.2,15.2,0,0,1,4.68,11.1c.1,5.93-2.65,12.1-7.54,16.91C37.09,322.5,31.21,325.21,25.32,325.21Z"/><path class="cls-2" d="M27,326.26c-10.72.45-13.83-8.36-14.14-12.09A22,22,0,0,1,19,297.66c4.76-4.94,11.29-7.9,17.49-7.9a13.3,13.3,0,0,1,9,3A14.15,14.15,0,0,1,50,303.14c.1,5.54-2.47,11.3-7,15.8C38,323.72,32.5,326.26,27,326.26Z"/><path class="cls-3" d="M24.46,326.71c-12,0-15.47-10.28-15.8-14.34a25,25,0,0,1,7.05-18.82c5.37-5.59,12.78-8.89,19.8-8.89,4.35,0,8.16,1.28,10.71,3.63a16.65,16.65,0,0,1,5.16,12.16c.11,6.34-2.79,12.9-8,18-5.51,5.42-11.74,8.28-18,8.29Zm11-39.13c-6.23,0-12.84,3-17.67,8a22,22,0,0,0-6.16,16.56c.25,3.36,3.19,12,13.6,11.57h.06c5.49,0,11-2.58,16-7.45,4.6-4.52,7.19-10.29,7.09-15.8a13.69,13.69,0,0,0-4.2-10C42.19,288.59,39.09,287.58,35.46,287.58Z"/><path class="cls-3" d="M32.38,344.86a29.26,29.26,0,0,1-18.05-6.26C12,336.79,6.32,332,3.79,326a1.48,1.48,0,0,1,2.68-1.26s0,.07,0,.11c2.33,5.49,8,10.14,9.64,11.44,11.52,8.89,27.24,7.08,39.13-4.61C65.9,321.21,69.42,302,57.74,289.93a61.18,61.18,0,0,0-7-6.08l-.42-.33a1.5,1.5,0,0,1-.35-2.07,1.47,1.47,0,0,1,2.06-.35l.15.11.42.34a63,63,0,0,1,7.24,6.32,30.33,30.33,0,0,1,8.12,22,34.89,34.89,0,0,1-10.63,23.86C49.89,341.09,41,344.86,32.38,344.86Z"/><path class="cls-1" d="M532.26,432.37c4.81,3.88,5.4,4.35,7.54,6.54,10.41,10.71,11,30.61-2.49,43.8-13.1,12.84-29.51,13.69-41.08,4.72-3.1-2.4-7.9-6.91-10.09-12Z"/><path class="cls-2" d="M533.11,433.08c10.7,9.81,10.66,28.48-2.63,41.48-12.91,12.7-29.11,13.51-40.49,4.66-9.77-7.57-10.86-27.47,1.71-40.49S523.26,424.1,533.11,433.08Z"/><path class="cls-3" d="M506.86,486.62a28.83,28.83,0,0,1-17.78-6.18c-4.57-3.55-7.49-9.66-8-16.79a34.07,34.07,0,0,1,9.56-26c12.64-13.14,32.6-15.8,43.53-5.72a25.88,25.88,0,0,1,8.18,18.88c.15,8.89-3.78,17.92-10.77,24.8C524.15,482.91,515.37,486.62,506.86,486.62Zm10.42-57.7a35,35,0,0,0-24.55,10.87,31,31,0,0,0-8.74,23.7c.45,6.27,3,11.61,6.91,14.65,11.36,8.8,26.86,7,38.59-4.55,6.42-6.3,10-14.55,9.87-22.62a22.89,22.89,0,0,0-7.22-16.79h0c-3.9-3.55-9.19-5.25-14.86-5.25Z"/><path class="cls-1" d="M506.32,475.21c-11.48.49-14.82-8.94-15.14-12.94a23.5,23.5,0,0,1,6.56-17.69c5.1-5.31,12.11-8.48,18.77-8.48,4,0,7.43,1.15,9.7,3.23a15.2,15.2,0,0,1,4.68,11.1c.1,5.93-2.65,12.1-7.54,16.91C518.09,472.5,512.21,475.21,506.32,475.21Z"/><path class="cls-2" d="M508,476.26c-10.72.45-13.83-8.36-14.14-12.09A22,22,0,0,1,500,447.66c4.76-4.94,11.29-7.9,17.49-7.9a13.3,13.3,0,0,1,9.05,3A14.15,14.15,0,0,1,531,453.14c.1,5.54-2.47,11.3-7,15.8C519,473.72,513.5,476.26,508,476.26Z"/><path class="cls-3" d="M505.46,476.71c-12,0-15.47-10.28-15.8-14.34a25,25,0,0,1,7-18.82c5.37-5.59,12.78-8.89,19.8-8.89,4.35,0,8.16,1.28,10.71,3.63a16.65,16.65,0,0,1,5.16,12.16c.11,6.34-2.79,12.9-8,18-5.51,5.42-11.74,8.28-18,8.29Zm11-39.13c-6.23,0-12.84,3-17.67,8a22,22,0,0,0-6.16,16.56c.25,3.36,3.19,12,13.6,11.57h.06c5.49,0,11-2.58,16-7.45,4.6-4.52,7.19-10.29,7.09-15.8a13.69,13.69,0,0,0-4.2-10C523.19,438.59,520.09,437.58,516.46,437.58Z"/><path class="cls-3" d="M513.38,494.86a29.26,29.26,0,0,1-18.05-6.26c-2.33-1.81-8-6.65-10.54-12.64a1.48,1.48,0,1,1,2.68-1.26s0,.07,0,.11c2.33,5.49,8,10.14,9.64,11.44,11.52,8.89,27.24,7.08,39.13-4.61,10.62-10.43,14.14-29.68,2.46-41.71a61.18,61.18,0,0,0-7-6.08l-.42-.33a1.5,1.5,0,0,1-.35-2.07,1.47,1.47,0,0,1,2.06-.35l.15.11.42.34a63,63,0,0,1,7.24,6.32,30.33,30.33,0,0,1,8.12,22,34.89,34.89,0,0,1-10.63,23.86C530.89,491.09,522,494.86,513.38,494.86Z"/><path class="cls-1" d="M628.11,6.53c4.81,3.88,5.4,4.34,7.53,6.54,10.41,10.71,11,30.61-2.49,43.8-13.09,12.84-29.51,13.69-41.07,4.72-3.1-2.4-7.9-6.91-10.1-12Z"/><path class="cls-2" d="M629,7.24c10.69,9.81,10.65,28.48-2.63,41.48-12.92,12.7-29.12,13.51-40.49,4.66-9.77-7.57-10.87-27.47,1.7-40.49S619.11-1.74,629,7.24Z"/><path class="cls-3" d="M602.7,60.78a28.78,28.78,0,0,1-17.77-6.18c-4.58-3.55-7.5-9.66-8-16.79a34,34,0,0,1,9.56-26C599.11-1.29,619.07-3.95,630,6.13A25.88,25.88,0,0,1,638.18,25c.16,8.89-3.77,17.92-10.76,24.8C620,57.07,611.22,60.78,602.7,60.78Zm10.42-57.7A35,35,0,0,0,588.57,14a31.07,31.07,0,0,0-8.74,23.7c.46,6.27,3,11.61,6.91,14.65,11.36,8.79,26.87,7,38.59-4.55,6.42-6.3,10-14.56,9.88-22.62A22.93,22.93,0,0,0,628,8.34h0c-3.9-3.55-9.2-5.25-14.87-5.25Z"/><path class="cls-1" d="M602.16,49.37c-11.47.49-14.81-8.95-15.14-12.95a23.54,23.54,0,0,1,6.57-17.68c5.09-5.31,12.11-8.48,18.76-8.48,3.95,0,7.43,1.15,9.7,3.23a15.15,15.15,0,0,1,4.68,11.1c.1,5.93-2.64,12.1-7.53,16.91C613.93,46.66,608.06,49.37,602.16,49.37Z"/><path class="cls-2" d="M603.87,50.42c-10.72.45-13.83-8.36-14.13-12.09a22,22,0,0,1,6.13-16.51c4.76-4.94,11.3-7.9,17.49-7.9a13.3,13.3,0,0,1,9.06,3,14.14,14.14,0,0,1,4.37,10.37c.1,5.54-2.47,11.3-7,15.8C614.86,47.88,609.34,50.42,603.87,50.42Z"/><path class="cls-3" d="M601.3,50.87c-12,0-15.46-10.28-15.8-14.34a25,25,0,0,1,7-18.82c5.37-5.59,12.78-8.89,19.8-8.89,4.36,0,8.16,1.28,10.71,3.62a16.61,16.61,0,0,1,5.16,12.17c.11,6.34-2.79,12.9-8,18-5.51,5.42-11.74,8.28-18,8.29Zm11-39.13c-6.23,0-12.83,3-17.66,8a22,22,0,0,0-6.17,16.56c.25,3.36,3.19,12,13.6,11.57h.06c5.49,0,11-2.58,16-7.45,4.6-4.52,7.19-10.29,7.09-15.8a13.68,13.68,0,0,0-4.19-10C619,12.75,615.94,11.74,612.3,11.74Z"/><path class="cls-3" d="M609.22,69a29.18,29.18,0,0,1-18-6.27c-2.33-1.8-8-6.64-10.55-12.63a1.48,1.48,0,1,1,2.68-1.26l.05.11c2.33,5.49,8,10.14,9.64,11.44,11.51,8.89,27.24,7.07,39.13-4.61,10.61-10.43,14.14-29.68,2.46-41.71a60.31,60.31,0,0,0-7-6.08l-.41-.34a1.48,1.48,0,1,1,1.71-2.42l.14.12.42.34A63.13,63.13,0,0,1,636.71,12a30.37,30.37,0,0,1,8.12,22,34.9,34.9,0,0,1-10.64,23.85C626.73,65.25,617.84,69,609.22,69Z"/><path class="cls-1" d="M321,334.73c16.48,13.3,18.51,14.89,25.82,22.4,35.67,36.72,37.6,104.9-8.52,150.08-44.87,44-101.11,46.9-140.74,16.17C187,515.16,170.51,499.7,163,482.13Z"/><path class="cls-2" d="M323.93,337.17c36.65,33.6,36.52,97.59-9,142.12-44.26,43.52-99.75,46.29-138.73,16-33.47-25.95-37.23-94.14,5.85-138.73S290.2,306.41,323.93,337.17Z"/><path class="cls-3" d="M234,520.61a98.7,98.7,0,0,1-60.91-21.18c-15.66-12.15-25.68-33.1-27.44-57.53A116.61,116.61,0,0,1,178.4,353c43.27-45,111.66-54.14,149.12-19.59a88.52,88.52,0,0,1,28,64.66c.54,30.46-12.93,61.42-36.88,85C293.24,507.89,263.16,520.61,234,520.61Zm35.7-197.69a119.79,119.79,0,0,0-84.12,37.23,106.42,106.42,0,0,0-29.95,81.21c1.56,21.49,10.15,39.79,23.69,50.18,38.91,30.15,92,23.89,132.21-15.56,22-21.59,34.34-49.88,33.83-77.53a78.52,78.52,0,0,0-24.73-57.52h0c-13.37-12.15-31.5-18-50.93-18Z"/><path class="cls-1" d="M232.13,481.52c-39.32,1.66-50.76-30.65-51.87-44.36a80.61,80.61,0,0,1,22.5-60.6c17.46-18.17,41.49-29,64.29-29,13.54,0,25.45,3.93,33.23,11.07a51.93,51.93,0,0,1,16,38c.34,20.31-9.07,41.46-25.82,57.94C272.47,472.22,252.33,481.52,232.13,481.52Z"/><path class="cls-2" d="M238,485.11c-36.71,1.56-47.37-28.63-48.42-41.42a75.28,75.28,0,0,1,21-56.57C226.89,370.2,249.29,360,270.5,360a45.61,45.61,0,0,1,31,10.33,48.46,48.46,0,0,1,15,35.53c.34,19-8.46,38.71-24.09,54.14C275.65,476.42,256.73,485.11,238,485.11Z"/><path class="cls-3" d="M229.19,486.67c-41.25,0-53-35.23-54.14-49.14A85.76,85.76,0,0,1,199.21,373c18.4-19.15,43.78-30.46,67.84-30.46C282,342.58,295,347,303.73,355a57,57,0,0,1,17.7,41.69c.37,21.73-9.58,44.19-27.34,61.62-18.88,18.58-40.23,28.39-61.72,28.43ZM266.88,352.6c-21.35,0-44,10.15-60.53,27.48a75.48,75.48,0,0,0-21.12,56.71c.85,11.54,10.93,41.11,46.6,39.66h.2c18.81,0,37.73-8.83,54.72-25.52,15.77-15.49,24.63-35.26,24.29-54.14a47,47,0,0,0-14.38-34.38C289.93,356.05,279.34,352.6,266.88,352.6Z"/><path class="cls-3" d="M256.33,548.83a100,100,0,0,1-61.83-21.45c-8-6.2-27.44-22.78-36.14-43.28a5.08,5.08,0,1,1,9.19-4.32,3.88,3.88,0,0,1,.15.36c8,18.81,27.31,34.75,33,39.22,39.45,30.45,93.33,24.22,134.07-15.81,36.37-35.73,48.45-101.68,8.42-142.9a205.27,205.27,0,0,0-23.92-20.84l-1.42-1.15a5.07,5.07,0,1,1,5.85-8.29,5,5,0,0,1,.51.4l1.42,1.15a214,214,0,0,1,24.84,21.66,103.93,103.93,0,0,1,27.81,75.49,119.5,119.5,0,0,1-36.44,81.73C316.32,535.94,285.87,548.83,256.33,548.83Z"/></g></g></svg>