<svg xmlns="http://www.w3.org/2000/svg" viewBox="0 0 503.48 702.27">
  <defs>
    <style>
      .cls-1 {
        fill: #fff;
      }
    </style>
  </defs>
  <g id="Layer_2" data-name="Layer 2">
    <g id="Layer_3_Message" data-name="Layer 3 Message">
      <g>
        <path class="cls-1" d="M383.54,57.36l7.08-55.73-2.79.76a490.59,490.59,0,0,1,25,55.39c.68,1.79,3.58,1,2.9-.8q-8.49-22.42-19.09-44-3-6.12-6.2-12.14c-.77-1.45-2.63-.57-2.8.76l-7.08,55.73c-.24,1.91,2.76,1.89,3,0Z" transform="translate(0 -0.12)"/>
        <path class="cls-1" d="M379.79,57.53l9.7,78.09,2.74,22.06a1.53,1.53,0,0,0,1.5,1.5A101,101,0,0,0,420.39,154c1.82-.62,1-3.52-.8-2.89a98.37,98.37,0,0,1-25.86,5.11l1.5,1.5-9.7-78.09-2.74-22.06c-.23-1.89-3.23-1.91-3,0Z" transform="translate(0 -0.12)"/>
        <path class="cls-1" d="M418.44,59.72q4.9,39.8,10.82,79.48,1.69,11.28,3.45,22.54l1.84-1.84-8-1.84c-1.88-.43-2.68,2.46-.8,2.89l8,1.84A1.51,1.51,0,0,0,435.6,161q-6.17-39.48-11.35-79.1-1.46-11.07-2.81-22.13c-.24-1.9-3.24-1.92-3,0Z" transform="translate(0 -0.12)"/>
        <path class="cls-1" d="M400.44,181.89a299,299,0,0,1,38.2-8.69c1.9-.3,1.1-3.19-.79-2.89A297.1,297.1,0,0,0,399.64,179c-1.85.54-1.06,3.44.8,2.89Z" transform="translate(0 -0.12)"/>
        <path class="cls-1" d="M399.9,185.81l18,50.56,5.1,14.34a1.51,1.51,0,0,0,2.89,0,60.47,60.47,0,0,0,2.26-20.38l-2.94.4a42.49,42.49,0,0,0,4.13,12.65,1.52,1.52,0,0,0,2.59,0l5.55-9.4h-2.59a141.52,141.52,0,0,1,13.35,41.93,1.51,1.51,0,0,0,2.51.66l4.82-4.75-2.36-.31a12.6,12.6,0,0,1-.05,10.31l2.79.75A550.45,550.45,0,0,0,445.86,200q-2.31-11.56-5.12-23c-.46-1.88-3.35-1.08-2.89.79a546.4,546.4,0,0,1,13.53,81.56q1,11.63,1.55,23.29c.06,1.36,2.13,2.2,2.8.76a15.88,15.88,0,0,0,0-13.33,1.51,1.51,0,0,0-2.35-.31l-4.83,4.76,2.51.66a143.92,143.92,0,0,0-13.65-42.64,1.51,1.51,0,0,0-2.59,0l-5.55,9.39h2.59a39.94,39.94,0,0,1-3.83-11.93c-.26-1.66-3.05-1.28-2.95.4A58,58,0,0,1,423,249.91h2.89l-18-50.55L402.8,185c-.65-1.81-3.54-1-2.9.79Z" transform="translate(0 -0.12)"/>
        <path class="cls-1" d="M379.45,78.55,352,102.92l-13.52,12a74.18,74.18,0,0,0-10.33,10.56c-3.19,4.23-5.41,9.28-4.93,14.68a1.53,1.53,0,0,0,1.9,1.44,240,240,0,0,0,44.91-14.54q6.26-2.73,12.33-5.81c1.73-.87.21-3.46-1.51-2.59a236.46,236.46,0,0,1-43.52,16.84q-6.45,1.78-13,3.21l1.89,1.45c-.87-9.67,7.46-17,14-22.78L366.56,94l15-13.34c1.45-1.28-.68-3.4-2.12-2.12Z" transform="translate(0 -0.12)"/>
        <path class="cls-1" d="M429.1,70.71a263.68,263.68,0,0,1,57.41,28.77q7.58,5,14.78,10.58l1.16-2.74a122.5,122.5,0,0,0-54.78,0c-1.88.43-1.08,3.33.8,2.89a118.9,118.9,0,0,1,53.18,0,1.51,1.51,0,0,0,1.16-2.74A265.14,265.14,0,0,0,447,74.56q-8.41-3.66-17.06-6.74c-1.83-.65-2.61,2.25-.8,2.89Z" transform="translate(0 -0.12)"/>
        <path class="cls-1" d="M24.52,139.39l17.09,71.38,4.89,20.39c.45,1.88,3.34,1.08,2.89-.8L32.3,159l-4.88-20.39c-.45-1.88-3.35-1.08-2.9.8Z" transform="translate(0 -0.12)"/>
        <path class="cls-1" d="M2.21,150.2l52.23-33.37c1.62-1,.12-3.63-1.52-2.59L.7,147.61c-1.62,1-.12,3.63,1.51,2.59Z" transform="translate(0 -0.12)"/>
        <path class="cls-1" d="M82.07,135.83a42.44,42.44,0,0,0-11.61,31.49c.31,5.13,1.54,10.73,5.29,14.51,4.43,4.45,10.84,4,16.49,2.75,9.5-2.12,19.5-6.19,26.26-13.44a23.42,23.42,0,0,0,6.24-12.09,21.92,21.92,0,0,0-3.22-15.21c-7.45-11.74-22.72-14.32-35-9.38-1.77.71-1,3.61.79,2.89,9.92-4,22.06-3.11,29.53,5.19A19.84,19.84,0,0,1,122,155.6a19.23,19.23,0,0,1-4,11.51c-5.3,7-14.07,11.08-22.31,13.48-4.65,1.36-10.57,3.13-15.23.95-4.34-2-6.11-7.11-6.74-11.54A39.23,39.23,0,0,1,84.19,138c1.34-1.4-.78-3.52-2.12-2.12Z" transform="translate(0 -0.12)"/>
        <path class="cls-1" d="M47.34,358.61a357.83,357.83,0,0,0,10.24,69q2.39,9.53,5.29,18.91c.57,1.83,3.47,1.05,2.89-.8a353.29,353.29,0,0,1-13.9-67.51q-1-9.76-1.52-19.57c-.09-1.93-3.09-1.94-3,0Z" transform="translate(0 -0.12)"/>
        <path class="cls-1" d="M34.61,404.45Q61,390.25,86.14,373.88c1.62-1.05.12-3.65-1.51-2.59Q59.51,387.64,33.1,401.86c-1.7.92-.19,3.51,1.51,2.59Z" transform="translate(0 -0.12)"/>
        <path class="cls-1" d="M89.8,345.05l22.67,65.05,6.4,18.38a1.51,1.51,0,0,0,2.95-.4,299.55,299.55,0,0,1,3.46-42.61c.42-2.79.63-5.9,1.77-8.52,1.3-3,4.08-3.33,6.94-2.42a49.65,49.65,0,0,1,8.11,3.92c2.65,1.44,5.29,2.91,8,4.27,5.21,2.64,10.71,4.87,16.59,5.34a27.9,27.9,0,0,0,15.46-3.44c9.6-5.22,16.48-14.87,20.84-24.67,4.51-10.14,6.83-21.51,5.1-32.58a38.19,38.19,0,0,0-5.7-15.07c-1.44-2.18-3.36-4.71-6.22-4.83-2.7-.11-4.56,2-6,4-6.7,9.55-14,20.76-13.26,32.95a26,26,0,0,0,4.64,13.8,19.49,19.49,0,0,0,13.16,7.84c5.66.83,11.54,0,17.16-.81a91.1,91.1,0,0,0,15-3.51c9.3-3.08,18.25-8.07,24.12-16.12a32.91,32.91,0,0,0,3.5-6.13c.77-1.75-1.82-3.28-2.59-1.52-7.9,18.07-30.06,23.72-47.94,25.21-5.57.46-11.58.42-16.31-3A19.43,19.43,0,0,1,180.62,349c-2.74-11.09,2.77-21.71,8.66-30.76q1.14-1.75,2.31-3.48a18.46,18.46,0,0,1,2.55-3.39c2.28-2.1,4.27.42,5.54,2.32A35.93,35.93,0,0,1,205.16,328c1.69,10.51-.7,21.6-5.09,31.17-4.22,9.19-10.65,18.23-19.77,23.05a24.94,24.94,0,0,1-14.83,2.74c-5.59-.73-10.8-3.18-15.74-5.77-2.48-1.31-4.93-2.69-7.42-4a42.41,42.41,0,0,0-7.93-3.64c-2.54-.73-5.36-.75-7.55.91s-3,4-3.48,6.47c-1.34,6.33-2,12.88-2.75,19.31q-1.09,10-1.52,20.06c-.14,3.27-.22,6.54-.26,9.81l3-.4L99.1,362.63l-6.41-18.38c-.63-1.81-3.53-1-2.89.8Z" transform="translate(0 -0.12)"/>
        <path class="cls-1" d="M111.45,576.52q7.33,48.94,16.55,97.59,2.58,13.62,5.3,27.21l2.9-.8q-6.51-28-10.63-56.49t-5.73-57q-.95-16.17-1.09-32.38l-3,.4a110.56,110.56,0,0,0,10.82,23,91.29,91.29,0,0,0,7.28,10.28c2.16,2.6,5.59,4.14,8.6,1.93,2.53-1.86,3.81-5.18,4.42-8.15.94-4.6,1.69-9.25,2.48-13.87q2.39-13.93,4.35-27.95,2.24-15.9,3.94-31.89l-2.94.4a863.92,863.92,0,0,0,33.44,79.67c6.09,12.69,12.42,25.31,19.26,37.62a169.46,169.46,0,0,0,11,17.51c1.93,2.64,4,5.21,6.11,7.66s4.32,4.87,7.24,6.22c11.82,5.48,19.19-10.15,21.41-19.12.46-1.87-2.43-2.67-2.9-.79a35.1,35.1,0,0,1-6,13.3c-2.57,3.26-6.35,5.74-10.59,4.18-2.89-1.07-5.05-3.66-7-5.91q-3.19-3.65-6-7.6a170.73,170.73,0,0,1-10.36-16.57,766.58,766.58,0,0,1-35.55-73.53Q165.58,529.9,157.64,508a1.51,1.51,0,0,0-2.95.39q-2.79,26.22-7.05,52.25-1.06,6.55-2.23,13.09c-.64,3.61-.93,7.6-2.43,11-1,2.32-3.17,5-5.74,2.77a24.55,24.55,0,0,1-3.6-4.39c-1.16-1.6-2.29-3.23-3.36-4.89a106.83,106.83,0,0,1-11.58-23.93,1.51,1.51,0,0,0-3,.4q.28,28.88,3,57.64t7.91,57.09q2.92,16.06,6.62,32c.44,1.89,3.27,1.08,2.9-.8q-9.73-48.54-17.6-97.41-2.2-13.68-4.26-27.39c-.28-1.9-3.18-1.09-2.89.8Z" transform="translate(0 -0.12)"/>
        <path class="cls-1" d="M250.27,532.52a79.1,79.1,0,0,0-11.35,51.78,74.24,74.24,0,0,0,2.83,13.1c1.38,4.35,3.45,8.35,7.46,10.8,7.21,4.43,16.92,4.06,24.62,1.19,17.1-6.4,25.79-23.92,27.09-41.29,1.32-17.7-4.84-36.68-20.45-46.49A35.74,35.74,0,0,0,269,516.88c-4.19-.9-9.07-1.37-12.2,2.17-2.83,3.18-4.09,7.9-4.69,12a33.78,33.78,0,0,0,3,20c.83,1.75,3.41.23,2.59-1.51a31.37,31.37,0,0,1-.91-24.61,10.54,10.54,0,0,1,3-4.67c1.75-1.33,4.11-1.18,6.17-.91a31.77,31.77,0,0,1,10.65,3.49c15,8,21.63,24.91,21.43,41.22-.19,15.85-6.55,32.86-21.21,40.66-6.73,3.58-14.82,4.92-22.2,2.63a13.72,13.72,0,0,1-9-8,55.46,55.46,0,0,1-3.26-12,76.24,76.24,0,0,1,7.38-48c.95-1.83,2-3.62,3.09-5.37s-1.56-3.14-2.59-1.51Z" transform="translate(0 -0.12)"/>
        <path class="cls-1" d="M335.56,491.14A97,97,0,0,0,321.28,514c-3.4,7.64-6.37,16-6.91,24.43-.49,7.43,1.61,15.51,8.79,19.05,3.87,1.91,8.26,2.4,12.51,2.74a60.8,60.8,0,0,0,11.76-.11c7.66-.88,15.39-3.63,20.37-9.8,5.15-6.38,6.45-14.75,6.07-22.74a88,88,0,0,0-5.31-25.95c-3-8.05-7.55-15.64-14.34-21-6.26-5-14.88-8.71-23-7.24a8.08,8.08,0,0,0-6.88,7c-.4,3.46,1,7,2.67,9.94a33.23,33.23,0,0,0,3.14,4.56c1.22,1.49,3.34-.64,2.13-2.13-2.86-3.5-8.57-12.84-2.25-15.92a11.62,11.62,0,0,1,5.61-.72,25.76,25.76,0,0,1,5.44.9,31.12,31.12,0,0,1,10,4.88c6.39,4.6,10.91,11.33,13.88,18.55a85.83,85.83,0,0,1,5.69,23.41c.77,7.26.59,15.18-3.12,21.69-3.56,6.24-9.91,9.66-16.77,11.06a49,49,0,0,1-10.74.85,55.64,55.64,0,0,1-11-1.13c-3.61-.81-7-2.42-9.11-5.6a17.74,17.74,0,0,1-2.54-9.25c-.2-7.42,2.21-14.93,4.85-21.78a94,94,0,0,1,11.7-21.48q1.83-2.52,3.83-4.9c1.23-1.47-.88-3.61-2.12-2.12Z" transform="translate(0 -0.12)"/>
        <path class="cls-1" d="M403.16,490.66l7.67,23.18,2.74-1.16a126.35,126.35,0,0,1-13-48.38c-.12-1.92-3.12-1.93-3,0A130.21,130.21,0,0,0,411,514.2c.75,1.51,3.28.45,2.74-1.16l-7.67-23.18c-.61-1.82-3.5-1-2.89.8Z" transform="translate(0 -0.12)"/>
        <path class="cls-1" d="M403.72,441.25a88.63,88.63,0,0,0,57.84,27.57c4.82.35,10,.23,14.39-2.08,4.77-2.53,6.78-7.5,6.58-12.72a46.9,46.9,0,0,0-1.24-8.16c-.65-3.08-1.37-6.14-2.14-9.19q-2.28-9-5.2-17.9a263.67,263.67,0,0,0-16.42-38.91c-.9-1.71-3.49-.2-2.59,1.51a255.69,255.69,0,0,1,23.82,67c.94,4.61,1.75,10.35-1.93,14-3.22,3.21-8.35,3.65-12.65,3.54a81,81,0,0,1-29.86-6.85,85.64,85.64,0,0,1-28.47-20c-1.33-1.42-3.45.71-2.13,2.12Z" transform="translate(0 -0.12)"/>
      </g>
    </g>
  </g>
</svg>
