<svg xmlns="http://www.w3.org/2000/svg" viewBox="0 0 776.42 502.36"><defs><style>.cls-1{fill:#efb44b;}.cls-2{fill:#fce754;}.cls-3{fill:#66201e;}</style></defs><g id="Layer_2" data-name="Layer 2"><g id="Layer_3_Message" data-name="Layer 3 Message"><path class="cls-1" d="M336.58,304.65c10.46,8.44,11.75,9.45,16.39,14.22,22.64,23.31,23.87,66.59-5.41,95.27-28.49,27.93-64.19,29.78-89.34,10.27-6.75-5.22-17.19-15-22-26.19Z"/><path class="cls-2" d="M338.43,306.2c23.26,21.33,23.18,61.95-5.71,90.22-28.1,27.62-63.33,29.39-88.08,10.14-21.24-16.48-23.63-59.76,3.72-88.08S317,286.67,338.43,306.2Z"/><path class="cls-3" d="M281.33,422.65a62.66,62.66,0,0,1-38.67-13.45c-9.94-7.71-16.3-21-17.42-36.52A74,74,0,0,1,246,316.23c27.47-28.59,70.89-34.37,94.67-12.44a56.21,56.21,0,0,1,17.78,41c.35,19.34-8.2,39-23.41,53.94C319,414.57,299.85,422.65,281.33,422.65ZM304,297.15a76.08,76.08,0,0,0-53.4,23.63,67.61,67.61,0,0,0-19,51.56c1,13.64,6.44,25.26,15,31.86,24.7,19.14,58.43,15.16,83.93-9.89,14-13.7,21.8-31.66,21.48-49.21a49.89,49.89,0,0,0-15.71-36.52h0c-8.48-7.71-20-11.41-32.33-11.41Z"/><path class="cls-1" d="M280.15,397.84c-25,1.05-32.22-19.46-32.93-28.16A51.2,51.2,0,0,1,261.5,331.2c11.09-11.53,26.34-18.43,40.82-18.43,8.59,0,16.15,2.49,21.09,7a33,33,0,0,1,10.19,24.15c.21,12.89-5.76,26.32-16.39,36.78C305.76,391.93,293,397.84,280.15,397.84Z"/><path class="cls-2" d="M283.87,400.11c-23.31,1-30.08-18.17-30.74-26.29a47.79,47.79,0,0,1,13.34-35.92c10.35-10.74,24.57-17.18,38-17.18a29,29,0,0,1,19.7,6.55,30.77,30.77,0,0,1,9.51,22.56c.22,12.05-5.37,24.57-15.29,34.37C307.78,394.59,295.77,400.11,283.87,400.11Z"/><path class="cls-3" d="M278.28,401.1c-26.19,0-33.64-22.36-34.37-31.19A54.44,54.44,0,0,1,259.25,329c11.68-12.16,27.8-19.34,43.07-19.34,9.47,0,17.74,2.8,23.28,7.89A36.15,36.15,0,0,1,336.84,344c.24,13.79-6.08,28.06-17.36,39.12-12,11.79-25.54,18-39.18,18ZM302.21,316c-13.55,0-27.92,6.45-38.43,17.45a47.9,47.9,0,0,0-13.4,36c.53,7.32,6.93,26.1,29.58,25.18h.13c11.94,0,24-5.61,34.73-16.2,10-9.84,15.64-22.39,15.42-34.37a29.81,29.81,0,0,0-9.12-21.83C316.84,318.18,310.12,316,302.21,316Z"/><path class="cls-3" d="M295.51,440.56A63.45,63.45,0,0,1,256.26,427c-5.07-3.94-17.42-14.46-22.94-27.48a3.22,3.22,0,1,1,5.83-2.74,1.6,1.6,0,0,1,.1.23c5.07,11.94,17.33,22.06,21,24.89,25.05,19.34,59.25,15.38,85.11-10,23.1-22.68,30.77-64.55,5.35-90.71a130,130,0,0,0-15.18-13.24l-.91-.73a3.22,3.22,0,1,1,3.72-5.26,2.6,2.6,0,0,1,.32.26l.9.73a133.92,133.92,0,0,1,15.77,13.75A66,66,0,0,1,373,364.54a75.84,75.84,0,0,1-23.14,51.88C333.6,432.38,314.26,440.56,295.51,440.56Z"/><path class="cls-1" d="M740,175.65c10.47,8.44,11.75,9.45,16.39,14.22,22.64,23.31,23.87,66.59-5.41,95.27-28.48,27.92-64.18,29.77-89.34,10.26-6.74-5.22-17.18-15-22-26.18Z"/><path class="cls-2" d="M741.83,177.2c23.27,21.33,23.18,62-5.71,90.21C708,295,672.79,296.8,648.05,277.55c-21.25-16.47-23.63-59.76,3.71-88.07S720.42,157.67,741.83,177.2Z"/><path class="cls-3" d="M684.74,293.64a62.6,62.6,0,0,1-38.67-13.45c-9.94-7.71-16.3-21-17.42-36.51a74.06,74.06,0,0,1,20.79-56.45c27.48-28.59,70.89-34.37,94.67-12.44a56.21,56.21,0,0,1,17.78,41.05c.35,19.33-8.2,39-23.41,53.94C722.35,285.57,703.25,293.64,684.74,293.64ZM707.4,168.15A76,76,0,0,0,654,191.78a67.59,67.59,0,0,0-19,51.55c1,13.64,6.44,25.27,15,31.86,24.71,19.14,58.43,15.17,83.93-9.88,14-13.71,21.8-31.66,21.48-49.21a49.87,49.87,0,0,0-15.7-36.52h0c-8.49-7.71-20-11.41-32.33-11.41Z"/><path class="cls-1" d="M683.56,268.83c-25,1.05-32.23-19.46-32.93-28.16a51.15,51.15,0,0,1,14.28-38.47c11.08-11.54,26.34-18.43,40.81-18.43,8.6,0,16.16,2.49,21.1,7A33,33,0,0,1,737,214.94c.21,12.89-5.76,26.31-16.39,36.77C709.16,262.92,696.38,268.83,683.56,268.83Z"/><path class="cls-2" d="M687.27,271.11c-23.3,1-30.07-18.17-30.74-26.29a47.83,47.83,0,0,1,13.34-35.92c10.36-10.74,24.58-17.18,38-17.18a28.9,28.9,0,0,1,19.7,6.55,30.76,30.76,0,0,1,9.52,22.55c.21,12.05-5.37,24.58-15.3,34.37C711.18,265.59,699.17,271.11,687.27,271.11Z"/><path class="cls-3" d="M681.69,272.1c-26.19,0-33.64-22.36-34.37-31.19A54.44,54.44,0,0,1,662.66,200c11.68-12.16,27.79-19.34,43.06-19.34,9.48,0,17.75,2.8,23.29,7.89A36.18,36.18,0,0,1,740.24,215c.24,13.79-6.08,28.05-17.35,39.12-12,11.79-25.54,18-39.18,18ZM705.62,187c-13.56,0-27.93,6.45-38.43,17.44a47.94,47.94,0,0,0-13.41,36c.54,7.33,6.94,26.1,29.58,25.18h.13c11.94,0,24-5.61,34.74-16.2,10-9.83,15.63-22.38,15.42-34.37a29.8,29.8,0,0,0-9.13-21.82C720.24,189.18,713.52,187,705.62,187Z"/><path class="cls-3" d="M698.91,311.56a63.49,63.49,0,0,1-39.24-13.62c-5.07-3.93-17.42-14.46-22.94-27.48a3.22,3.22,0,0,1,5.83-2.74,2.29,2.29,0,0,1,.1.23c5.07,11.94,17.33,22.06,21,24.9,25,19.33,59.24,15.38,85.11-10,23.09-22.69,30.76-64.55,5.35-90.72a130.9,130.9,0,0,0-15.19-13.23l-.9-.73a3.22,3.22,0,1,1,3.72-5.26,3.65,3.65,0,0,1,.32.26l.9.73a135.49,135.49,0,0,1,15.76,13.74,65.94,65.94,0,0,1,17.66,47.93,75.83,75.83,0,0,1-23.13,51.87C737,303.37,717.67,311.56,698.91,311.56Z"/><path class="cls-1" d="M51.26,435.87c4.81,3.88,5.4,4.35,7.54,6.54,10.41,10.71,11,30.61-2.49,43.8-13.1,12.84-29.51,13.69-41.08,4.72-3.1-2.4-7.9-6.91-10.09-12Z"/><path class="cls-2" d="M52.11,436.58c10.7,9.81,10.66,28.48-2.63,41.48C36.57,490.76,20.37,491.57,9,482.72c-9.77-7.57-10.86-27.47,1.71-40.49S42.26,427.6,52.11,436.58Z"/><path class="cls-3" d="M25.86,490.12a28.83,28.83,0,0,1-17.78-6.18c-4.57-3.55-7.49-9.66-8-16.79a34.07,34.07,0,0,1,9.56-26c12.64-13.14,32.6-15.8,43.53-5.72a25.88,25.88,0,0,1,8.18,18.88c.15,8.89-3.78,17.92-10.77,24.8C43.15,486.41,34.37,490.12,25.86,490.12Zm10.42-57.7a35,35,0,0,0-24.55,10.87A31,31,0,0,0,3,467c.45,6.27,3,11.61,6.91,14.65,11.36,8.8,26.86,7,38.59-4.55,6.42-6.3,10-14.55,9.87-22.62a22.89,22.89,0,0,0-7.22-16.79h0c-3.9-3.55-9.19-5.25-14.86-5.25Z"/><path class="cls-1" d="M25.32,478.71c-11.48.49-14.82-8.94-15.14-12.94a23.5,23.5,0,0,1,6.56-17.69c5.1-5.31,12.11-8.48,18.77-8.48,4,0,7.43,1.15,9.7,3.23a15.2,15.2,0,0,1,4.68,11.1c.1,5.93-2.65,12.1-7.54,16.91C37.09,476,31.21,478.71,25.32,478.71Z"/><path class="cls-2" d="M27,479.76c-10.72.45-13.83-8.36-14.14-12.09A22,22,0,0,1,19,451.16c4.76-4.94,11.29-7.9,17.49-7.9a13.3,13.3,0,0,1,9,3A14.15,14.15,0,0,1,50,456.64c.1,5.54-2.47,11.3-7,15.8C38,477.22,32.5,479.76,27,479.76Z"/><path class="cls-3" d="M24.46,480.21c-12,0-15.47-10.28-15.8-14.34a25,25,0,0,1,7.05-18.82c5.37-5.59,12.78-8.89,19.8-8.89,4.35,0,8.16,1.28,10.71,3.63A16.65,16.65,0,0,1,51.38,454c.11,6.34-2.79,12.9-8,18-5.51,5.42-11.74,8.28-18,8.29Zm11-39.13c-6.23,0-12.84,3-17.67,8a22,22,0,0,0-6.16,16.56c.25,3.36,3.19,12,13.6,11.57h.06c5.49,0,11-2.58,16-7.45,4.6-4.52,7.19-10.29,7.09-15.8a13.69,13.69,0,0,0-4.2-10C42.19,442.09,39.09,441.08,35.46,441.08Z"/><path class="cls-3" d="M32.38,498.36a29.26,29.26,0,0,1-18.05-6.26c-2.33-1.81-8-6.65-10.54-12.64a1.48,1.48,0,0,1,2.68-1.26s0,.07,0,.11c2.33,5.49,8,10.14,9.64,11.44,11.52,8.89,27.24,7.08,39.13-4.61,10.62-10.43,14.14-29.68,2.46-41.71a61.18,61.18,0,0,0-7-6.08l-.42-.33A1.5,1.5,0,0,1,50,435a1.47,1.47,0,0,1,2.06-.35l.15.11.42.34a63,63,0,0,1,7.24,6.32,30.33,30.33,0,0,1,8.12,22,34.89,34.89,0,0,1-10.63,23.86C49.89,494.59,41,498.36,32.38,498.36Z"/><path class="cls-1" d="M512.26,212.87c4.81,3.88,5.4,4.35,7.54,6.54,10.41,10.71,11,30.61-2.49,43.8-13.1,12.84-29.51,13.69-41.08,4.72-3.1-2.4-7.9-6.91-10.09-12Z"/><path class="cls-2" d="M513.11,213.58c10.7,9.81,10.66,28.48-2.63,41.48-12.91,12.7-29.11,13.51-40.49,4.66-9.77-7.57-10.86-27.47,1.71-40.49S503.26,204.6,513.11,213.58Z"/><path class="cls-3" d="M486.86,267.12a28.83,28.83,0,0,1-17.78-6.18c-4.57-3.55-7.49-9.66-8-16.79a34.07,34.07,0,0,1,9.56-26c12.64-13.14,32.6-15.8,43.53-5.72a25.88,25.88,0,0,1,8.18,18.88c.15,8.89-3.78,17.92-10.77,24.8C504.15,263.41,495.37,267.12,486.86,267.12Zm10.42-57.7a35,35,0,0,0-24.55,10.87A31,31,0,0,0,464,244c.45,6.27,3,11.61,6.91,14.65,11.36,8.8,26.86,7,38.59-4.55,6.42-6.3,10-14.55,9.87-22.62a22.89,22.89,0,0,0-7.22-16.79h0c-3.9-3.55-9.19-5.25-14.86-5.25Z"/><path class="cls-1" d="M486.32,255.71c-11.48.49-14.82-8.94-15.14-12.94a23.5,23.5,0,0,1,6.56-17.69c5.1-5.31,12.11-8.48,18.77-8.48,3.95,0,7.43,1.15,9.7,3.23a15.2,15.2,0,0,1,4.68,11.1c.1,5.93-2.65,12.1-7.54,16.91C498.09,253,492.21,255.71,486.32,255.71Z"/><path class="cls-2" d="M488,256.76c-10.72.45-13.83-8.36-14.14-12.09A22,22,0,0,1,480,228.16c4.76-4.94,11.29-7.9,17.49-7.9a13.3,13.3,0,0,1,9.05,3A14.15,14.15,0,0,1,511,233.64c.1,5.54-2.47,11.3-7,15.8C499,254.22,493.5,256.76,488,256.76Z"/><path class="cls-3" d="M485.46,257.21c-12,0-15.47-10.28-15.8-14.34a25,25,0,0,1,7-18.82c5.37-5.59,12.78-8.89,19.8-8.89,4.35,0,8.16,1.28,10.71,3.63A16.65,16.65,0,0,1,512.38,231c.11,6.34-2.79,12.9-8,18-5.51,5.42-11.74,8.28-18,8.29Zm11-39.13c-6.23,0-12.84,3-17.67,8a22,22,0,0,0-6.16,16.56c.25,3.36,3.19,12,13.6,11.57h.06c5.49,0,11-2.58,16-7.45,4.6-4.52,7.19-10.29,7.09-15.8a13.69,13.69,0,0,0-4.2-10C503.19,219.09,500.09,218.08,496.46,218.08Z"/><path class="cls-3" d="M493.38,275.36a29.26,29.26,0,0,1-18.05-6.26c-2.33-1.81-8-6.65-10.54-12.64a1.48,1.48,0,1,1,2.68-1.26s0,.07,0,.11c2.33,5.49,8,10.14,9.64,11.44,11.52,8.89,27.24,7.08,39.13-4.61,10.62-10.43,14.14-29.68,2.46-41.71a61.18,61.18,0,0,0-7-6.08l-.42-.33A1.5,1.5,0,0,1,511,212a1.47,1.47,0,0,1,2.06-.35l.15.11.42.34a63,63,0,0,1,7.24,6.32,30.33,30.33,0,0,1,8.12,22,34.89,34.89,0,0,1-10.63,23.86C510.89,271.59,502,275.36,493.38,275.36Z"/><path class="cls-1" d="M742.26,439.87c4.81,3.88,5.4,4.35,7.54,6.54,10.41,10.71,11,30.61-2.49,43.8-13.1,12.84-29.51,13.69-41.08,4.72-3.1-2.4-7.9-6.91-10.09-12Z"/><path class="cls-2" d="M743.11,440.58c10.7,9.81,10.66,28.48-2.63,41.48-12.91,12.7-29.11,13.51-40.49,4.66-9.77-7.57-10.86-27.47,1.71-40.49S733.26,431.6,743.11,440.58Z"/><path class="cls-3" d="M716.86,494.12a28.83,28.83,0,0,1-17.78-6.18c-4.57-3.55-7.49-9.66-8-16.79a34.07,34.07,0,0,1,9.56-26c12.64-13.14,32.6-15.8,43.53-5.72a25.88,25.88,0,0,1,8.18,18.88c.15,8.89-3.78,17.92-10.77,24.8C734.15,490.41,725.37,494.12,716.86,494.12Zm10.42-57.7a35,35,0,0,0-24.55,10.87A31,31,0,0,0,694,471c.45,6.27,3,11.61,6.91,14.65,11.36,8.8,26.86,7,38.59-4.55,6.42-6.3,10-14.55,9.87-22.62a22.89,22.89,0,0,0-7.22-16.79h0c-3.9-3.55-9.19-5.25-14.86-5.25Z"/><path class="cls-1" d="M716.32,482.71c-11.48.49-14.82-8.94-15.14-12.94a23.5,23.5,0,0,1,6.56-17.69c5.1-5.31,12.11-8.48,18.77-8.48,4,0,7.43,1.15,9.7,3.23a15.2,15.2,0,0,1,4.68,11.1c.1,5.93-2.65,12.1-7.54,16.91C728.09,480,722.21,482.71,716.32,482.71Z"/><path class="cls-2" d="M718,483.76c-10.72.45-13.83-8.36-14.14-12.09A22,22,0,0,1,710,455.16c4.76-4.94,11.29-7.9,17.49-7.9a13.3,13.3,0,0,1,9.05,3A14.15,14.15,0,0,1,741,460.64c.1,5.54-2.47,11.3-7,15.8C729,481.22,723.5,483.76,718,483.76Z"/><path class="cls-3" d="M715.46,484.21c-12,0-15.47-10.28-15.8-14.34a25,25,0,0,1,7.05-18.82c5.37-5.59,12.78-8.89,19.8-8.89,4.35,0,8.16,1.28,10.71,3.63A16.65,16.65,0,0,1,742.38,458c.11,6.34-2.79,12.9-8,18-5.51,5.42-11.74,8.28-18,8.29Zm11-39.13c-6.23,0-12.84,3-17.67,8a22,22,0,0,0-6.16,16.56c.25,3.36,3.19,12,13.6,11.57h.06c5.49,0,11-2.58,16-7.45,4.6-4.52,7.19-10.29,7.09-15.8a13.69,13.69,0,0,0-4.2-10C733.19,446.09,730.09,445.08,726.46,445.08Z"/><path class="cls-3" d="M723.38,502.36a29.26,29.26,0,0,1-18-6.26c-2.33-1.81-8-6.65-10.54-12.64a1.48,1.48,0,1,1,2.68-1.26s0,.07,0,.11c2.33,5.49,8,10.14,9.64,11.44,11.52,8.89,27.24,7.08,39.13-4.61,10.62-10.43,14.14-29.68,2.46-41.71a61.18,61.18,0,0,0-7-6.08l-.42-.33A1.5,1.5,0,0,1,741,439a1.47,1.47,0,0,1,2.06-.35l.15.11.42.34a63,63,0,0,1,7.24,6.32,30.33,30.33,0,0,1,8.12,22,34.89,34.89,0,0,1-10.63,23.86C740.89,498.59,732,502.36,723.38,502.36Z"/><path class="cls-1" d="M699.1,5.86a59.25,59.25,0,0,1,6.76,5.87c9.34,9.62,9.85,27.48-2.23,39.31-11.76,11.53-26.49,12.29-36.87,4.24-2.79-2.15-7.09-6.21-9.06-10.81Z"/><path class="cls-2" d="M699.86,6.5c9.6,8.8,9.56,25.56-2.36,37.23-11.59,11.4-26.13,12.13-36.34,4.18-8.77-6.8-9.76-24.66,1.53-36.34S691-1.56,699.86,6.5Z"/><path class="cls-3" d="M676.3,54.55a25.83,25.83,0,0,1-16-5.55c-4.1-3.18-6.73-8.67-7.19-15.07a30.52,30.52,0,0,1,8.58-23.29C673.07-1.16,691-3.55,700.8,5.5a23.25,23.25,0,0,1,7.34,17c.14,8-3.39,16.08-9.66,22.25C691.82,51.22,683.94,54.55,676.3,54.55Zm9.35-51.78a31.34,31.34,0,0,0-22,9.75,27.86,27.86,0,0,0-7.84,21.27c.4,5.63,2.66,10.43,6.2,13.15,10.2,7.9,24.11,6.26,34.63-4.08,5.77-5.66,9-13.07,8.87-20.31A20.58,20.58,0,0,0,699,7.48h0a19.56,19.56,0,0,0-13.34-4.71Z"/><path class="cls-1" d="M675.81,44.31c-10.3.44-13.3-8-13.59-11.62a21.09,21.09,0,0,1,5.89-15.87A24.09,24.09,0,0,1,685,9.21a12.84,12.84,0,0,1,8.7,2.9,13.57,13.57,0,0,1,4.2,10c.09,5.32-2.37,10.86-6.76,15.18C686.38,41.88,681.1,44.31,675.81,44.31Z"/><path class="cls-2" d="M677.34,45.25c-9.62.41-12.41-7.5-12.68-10.85a19.7,19.7,0,0,1,5.5-14.82,22.49,22.49,0,0,1,15.7-7.09,11.94,11.94,0,0,1,8.13,2.7,12.73,12.73,0,0,1,3.93,9.31c.09,5-2.22,10.14-6.31,14.18C687.21,43,682.25,45.25,677.34,45.25Z"/><path class="cls-3" d="M675,45.66c-10.81,0-13.88-9.23-14.19-12.87a22.52,22.52,0,0,1,6.33-16.9,25.4,25.4,0,0,1,17.78-8,14.09,14.09,0,0,1,9.61,3.25,15,15,0,0,1,4.63,10.92c.1,5.69-2.51,11.58-7.16,16.14-4.95,4.87-10.54,7.44-16.17,7.45Zm9.87-35.12a22.6,22.6,0,0,0-15.86,7.2,19.79,19.79,0,0,0-5.53,14.86c.22,3,2.87,10.77,12.21,10.38h0c4.93,0,9.89-2.31,14.34-6.68,4.13-4.06,6.45-9.24,6.36-14.18a12.27,12.27,0,0,0-3.77-9C691,11.44,688.17,10.54,684.91,10.54Z"/><path class="cls-3" d="M682.15,62A26.29,26.29,0,0,1,666,56.33c-2.09-1.63-7.19-6-9.47-11.34a1.33,1.33,0,1,1,2.41-1.13l0,.09c2.09,4.93,7.15,9.1,8.65,10.27,10.34,8,24.45,6.35,35.12-4.14,9.53-9.36,12.7-26.63,2.21-37.43a52.53,52.53,0,0,0-6.27-5.46l-.37-.3a1.33,1.33,0,1,1,1.54-2.17l.13.1.37.3a55.76,55.76,0,0,1,6.51,5.68,27.2,27.2,0,0,1,7.28,19.77A31.31,31.31,0,0,1,704.56,52C697.86,58.57,689.89,62,682.15,62Z"/></g></g></svg>